<?xml version="1.0" standalone="no"?>
<!DOCTYPE svg PUBLIC "-//W3C//DTD SVG 1.1//EN" "http://www.w3.org/Graphics/SVG/1.1/DTD/svg11.dtd" >
<svg xmlns="http://www.w3.org/2000/svg">
<metadata>
<json>
<![CDATA[
{
	"fontFamily": "icomoon",
	"majorVersion": 1,
	"minorVersion": 0,
	"version": "Version 1.0",
	"fontId": "icomoon",
	"psName": "icomoon",
	"subFamily": "Regular",
	"fullName": "icomoon",
	"description": "Font generated by IcoMoon."
}
]]>
</json>
</metadata>
<defs>
<font id="icomoon" horiz-adv-x="1024">
<font-face units-per-em="1024" ascent="960" descent="-64" />
<missing-glyph horiz-adv-x="1024" />
<glyph unicode="&#x20;" horiz-adv-x="512" d="" />
<glyph unicode="&#xe900;" glyph-name="Icon_Agricultureloan" data-tags="Icon_Agricultureloan" d="M0 925.867c0 0-13.653-493.568 342.699-340.651 0 0 151.552 295.595-342.699 340.651zM1024 721.067c0 0 13.653-493.568-342.699-340.651 0 0-150.869 295.595 342.699 340.651zM477.184-29.867h-68.267c32.085 231.424 43.008 472.405-118.101 617.813l45.739 50.517c200.704-181.589 167.253-474.453 140.629-668.331zM477.184-29.867h-68.267c13.653 258.048 161.792 381.611 249.856 444.416 21.163 15.019 39.595 27.989 49.152 38.912l50.517-46.421c-14.336-15.701-35.499-30.72-60.075-48.469-82.603-58.709-209.579-163.157-221.184-388.437z" />
<glyph unicode="&#xe901;" glyph-name="Icon_ATMswipe" data-tags="Icon_ATMswipe" d="M128 768v-64h64v-704c0-32 32-64 64-64h512c32 0 64 32 64 64v704h64v64h-768zM384 0h-64v704h64v-704zM704 448h-128v192h128v-192zM960 960h-896c-32 0-64-32-64-64v-320c0-32 32-64 64-64h64v64h-64v320h896v-320h-64v-64h64c32 0 64 32 64 64v320c0 32-32 64-64 64z" />
<glyph unicode="&#xe902;" glyph-name="Icon_Bank" data-tags="Icon_Bank" horiz-adv-x="960" d="M787.2 576h-614.4c-25.6 0-44.8-19.2-44.8-44.8v-358.4c0-25.6 19.2-44.8 44.8-44.8h614.4c25.6 0 44.8 19.2 44.8 44.8v358.4c0 25.6-19.2 44.8-44.8 44.8zM307.2 268.8c0-25.6-25.6-44.8-51.2-44.8h-12.8c-32 0-51.2 19.2-51.2 44.8v192c0 25.6 25.6 44.8 51.2 44.8h12.8c32 0 51.2-19.2 51.2-44.8v-192zM537.6 268.8c0-25.6-25.6-44.8-51.2-44.8h-12.8c-32 0-51.2 19.2-51.2 44.8v192c0 25.6 25.6 44.8 51.2 44.8h6.4c32 0 51.2-19.2 51.2-44.8v-192zM768 268.8c0-25.6-25.6-44.8-51.2-44.8h-12.8c-32 0-51.2 19.2-51.2 44.8v192c0 25.6 25.6 44.8 51.2 44.8h6.4c32 0 51.2-19.2 51.2-44.8v-192zM96 38.4h768c38.4 0 64-25.6 64-51.2v0c0-25.6-25.6-51.2-64-51.2h-768c-38.4 0-64 25.6-64 51.2v0c0 32 25.6 51.2 64 51.2zM460.8 953.6l-448-262.4c-25.6-19.2-12.8-51.2 25.6-51.2h889.6c32 0 51.2 32 19.2 51.2l-448 262.4c-12.8 6.4-25.6 6.4-38.4 0z" />
<glyph unicode="&#xe903;" glyph-name="Icon_Banklocker" data-tags="Icon_Banklocker" horiz-adv-x="1170" d="M1097.143 960h-1024c-36.571 0-73.143-36.571-73.143-73.143v-804.571c0-36.571 36.571-73.143 73.143-73.143h73.143v-73.143h146.286v73.143h585.143v-73.143h146.286v73.143h73.143c36.571 0 73.143 36.571 73.143 73.143v292.571h-73.143v-292.571h-1024v804.571h1024v-292.571h73.143v292.571c0 36.571-36.571 73.143-73.143 73.143zM1024 594.286v146.286c0 36.571-36.571 73.143-73.143 73.143h-731.429c-36.571 0-73.143-36.571-73.143-73.143v-512c0-36.571 36.571-73.143 73.143-73.143h731.429c36.571 0 73.143 36.571 73.143 73.143v146.286h-146.286v219.429h146.286zM438.857 448v-146.286h-73.143v146.286c-43.886 14.629-73.143 58.514-73.143 109.714 0 58.514 51.2 109.714 109.714 109.714s109.714-51.2 109.714-109.714c0-51.2-29.257-95.086-73.143-109.714zM950.857 521.143h219.429v-73.143h-219.429v73.143z" />
<glyph unicode="&#xe904;" d="M0 960v-704h256v64h89.6c19.2 70.4 89.6 121.6 166.4 121.6s147.2-51.2 166.4-121.6h89.6v-64h256v704h-1024zM704 512h-384v64h384v-64zM832 640h-640v64h640v-64z" />
<glyph unicode="&#xe905;" d="M608 172.8c19.2 19.2 32 51.2 32 83.2 0 25.6-6.4 44.8-19.2 64h6.4c-12.8 12.8-19.2 19.2-25.6 25.6-25.6 25.6-57.6 38.4-89.6 38.4s-64-12.8-89.6-38.4c-6.4-6.4-12.8-12.8-19.2-25.6-12.8-19.2-19.2-38.4-19.2-64 0-32 12.8-64 25.6-89.6l-19.2-38.4c0 0 0 0 0 0l-70.4-166.4 57.6-25.6 76.8 160 12.8 38.4c12.8-6.4 32-6.4 44.8-6.4 6.4 0 12.8 0 19.2 0 0 0 0 0 6.4 0 0 0 6.4 0 6.4 0s6.4 0 6.4 0l19.2-38.4c0 0 6.4 0 6.4 0v0l70.4-160 57.6 25.6-76.8 172.8-19.2 44.8z" />
<glyph unicode="&#xe906;" glyph-name="Icon_Female" data-tags="Icon_Female" horiz-adv-x="640" d="M640 640c0 179.2-140.8 320-320 320s-320-140.8-320-320c0-153.6 108.8-281.6 256-313.6v-134.4h-128v-128h128v-128h128v128h128v128h-128v134.4c147.2 32 256 160 256 313.6zM128 640c0 108.8 83.2 192 192 192s192-83.2 192-192-83.2-192-192-192-192 83.2-192 192z" />
<glyph unicode="&#xe907;" glyph-name="Icon_Female_outline" data-tags="Icon_Female_outline" horiz-adv-x="640" d="M640 640c0 179.2-140.8 320-320 320s-320-140.8-320-320c0-160 108.8-281.6 256-313.6v-134.4h-128v-128h128v-128h128v128h128v128h-128v134.4c147.2 32 256 153.6 256 313.6zM64 640c0 140.8 115.2 256 256 256s256-115.2 256-256-115.2-256-256-256-256 115.2-256 256z" />
<glyph unicode="&#xe908;" glyph-name="Icon_Male" data-tags="Icon_Male" d="M704 960v-128h102.4l-140.8-140.8c-166.4 115.2-396.8 102.4-544-44.8-160-160-160-428.8 0-588.8s428.8-160 588.8 0c147.2 147.2 160 377.6 38.4 544l147.2 134.4v-96h128v320h-320zM620.8 147.2c-115.2-115.2-294.4-115.2-409.6 0s-115.2 294.4 0 409.6c115.2 115.2 294.4 115.2 409.6 0 108.8-115.2 108.8-294.4 0-409.6z" />
<glyph unicode="&#xe909;" glyph-name="Icon_Male_outline" data-tags="Icon_Male_outline" d="M704 960v-128h102.4l-140.8-140.8c-76.8 51.2-160 76.8-249.6 76.8-108.8 0-217.6-38.4-294.4-121.6-160-160-160-428.8 0-588.8 76.8-83.2 185.6-121.6 294.4-121.6s217.6 38.4 294.4 121.6c147.2 147.2 160 377.6 38.4 537.6l147.2 140.8v-96h128v320h-320zM665.6 102.4c-64-64-153.6-102.4-249.6-102.4s-185.6 38.4-249.6 102.4c-134.4 134.4-134.4 364.8 0 499.2 64 64 153.6 102.4 249.6 102.4s185.6-38.4 249.6-102.4v0c134.4-134.4 134.4-364.8 0-499.2z" />
<glyph unicode="&#xe90a;" glyph-name="Icon_Piggybank" data-tags="Icon_Piggybank" horiz-adv-x="1170" d="M658.286 886.857c-102.4 0-197.486-21.943-277.943-73.143 0 0 0 0 0 0-43.886 80.457-87.771 146.286-87.771 146.286v-204.8c-51.2-43.886-95.086-102.4-117.029-160.914h-175.543v-219.429h153.6c14.629-87.771 65.829-168.229 138.971-234.057v-204.8h146.286v117.029c65.829-29.257 138.971-43.886 219.429-43.886s153.6 14.629 219.429 43.886v-117.029h146.286v204.8c87.771 80.457 146.286 182.857 146.286 307.2 0 241.371-226.743 438.857-512 438.857zM365.714 448c-36.571 0-73.143 36.571-73.143 73.143s36.571 73.143 73.143 73.143 73.143-36.571 73.143-73.143-36.571-73.143-73.143-73.143zM438.857 740.571v73.143h438.857v-73.143h-438.857z" />
<glyph unicode="&#xe90b;" glyph-name="Icon_Customerprofile" data-tags="Icon_Customerprofile" d="M0 832v-768h1024v768h-1024zM512 192h-384v64c0 106.24 85.76 192 192 192-70.4 0-128 57.6-128 128s57.6 128 128 128 128-57.6 128-128-57.6-128-128-128c53.12 0 101.12-21.76 135.68-56.32s56.32-82.56 56.32-135.68v-64zM896 192h-256v64h256v-64zM896 384h-320v64h320v-64zM896 576h-320v64h320v-64z" />
<glyph unicode="&#xe90c;" glyph-name="Icon_Fastag" data-tags="Icon_Fastag" horiz-adv-x="1260" d="M315.077 739.446v63.015c0 39.385-39.385 78.769-78.769 78.769h-157.538c-39.385 0-78.769-39.385-78.769-78.769v-866.462h315.077v724.677l945.231 220.554v78.769l-945.231-220.554zM708.923 566.154l-157.538-315.077v-236.308h78.769v-78.769h78.769v78.769h393.846v-78.769h78.769v78.769h78.769v236.308l-157.538 315.077h-393.846zM708.923 172.308h-78.769v78.769h78.769v-78.769zM1181.538 172.308h-78.769v78.769h78.769v-78.769zM669.538 329.846l86.646 157.538h307.2l86.646-157.538h-480.492z" />
<glyph unicode="&#xe90d;" glyph-name="Icon_Goldloan" data-tags="Icon_Goldloan" horiz-adv-x="960" d="M480 768v0c-17.92 0-32 14.080-32 32v128c0 17.92 14.080 32 32 32v0c17.92 0 32-14.080 32-32v-128c0-17.92-14.080-32-32-32zM158.080 801.92v0c-12.8-12.8-32.64-12.8-45.44 0l-90.24 90.24c-12.8 12.8-12.8 32.64 0 45.44v0c12.8 12.8 32.64 12.8 45.44 0l90.24-90.24c12.8-12.8 12.8-33.28 0-45.44zM801.92 801.92v0c12.8-12.8 32.64-12.8 45.44 0l90.24 90.24c12.8 12.8 12.8 32.64 0 45.44v0c-12.8 12.8-32.64 12.8-45.44 0l-90.24-90.24c-12.8-12.8-12.8-33.28 0-45.44zM448-64h-448l53.76 268.8c5.76 30.080 32 51.2 62.72 51.2h215.040c30.72 0 56.96-21.76 62.72-51.2l53.76-268.8zM960-64h-448l53.76 268.8c5.76 30.080 32 51.2 62.72 51.2h215.040c30.72 0 56.96-21.76 62.72-51.2l53.76-268.8zM704 320h-448l53.76 268.8c5.76 29.44 32 51.2 62.72 51.2h215.040c30.72 0 56.96-21.76 62.72-51.2l53.76-268.8z" />
<glyph unicode="&#xe90e;" glyph-name="Icon_Insurance" data-tags="Icon_Insurance" horiz-adv-x="896" d="M448 960l-448-230.4c0 0-25.6-467.2 448-793.6 427.52 294.4 448 704 448 780.8 0 8.32 0 12.8 0 12.8l-448 230.4zM640 384h-128v-128h-128v128h-128v128h128v128h128v-128h128v-128z" />
<glyph unicode="&#xe90f;" glyph-name="Icon_Investment" data-tags="Icon_Investment" d="M1024 704v-512c0-141.44-114.56-256-256-256h-522.88c-115.84 0-213.76 86.4-245.12 192l48-42.24 243.2 269.44 128.64-129.92 284.16 319.36v-96.64h64v256h-256v-64h105.6l-201.6-229.12-131.2 131.84-284.8-317.44v478.72c0 141.44 114.56 256 256 256h512c141.44 0 256-114.56 256-256z" />
<glyph unicode="&#xe910;" glyph-name="Icon_Loan" data-tags="Icon_Loan" horiz-adv-x="960" d="M844.8 352c-57.6 51.2-128 83.2-204.8 96-19.2 0-44.8 0-64 0h-192c-38.4 0-64-25.6-64-64s25.6-64 64-64h128l32-64h-288l-147.2 121.6c-6.4 6.4-19.2 6.4-32 6.4s-25.6-6.4-32-12.8c-19.2-19.2-12.8-51.2 6.4-64l204.8-172.8v-6.4h352l96-192h256v172.8c0 96-44.8 179.2-115.2 243.2zM352 768c0-88.366-71.634-160-160-160s-160 71.634-160 160c0 88.366 71.634 160 160 160s160-71.634 160-160zM262.4 588.8c25.6-51.2 83.2-89.6 147.2-89.6 89.6 0 160 70.4 160 160 0 96-70.4 166.4-160 166.4-12.8 0-25.6 0-32-6.4 6.4-19.2 12.8-38.4 12.8-70.4 0-76.8-57.6-140.8-128-160z" />
<glyph unicode="&#xe911;" horiz-adv-x="1252" d="M1213.046 172.308h-1173.662c-23.631 0-47.262-23.631-39.385-47.262 23.631-110.277 118.154-189.046 236.308-189.046h787.692c63.015 0 126.031 23.631 165.415 70.892 31.508 31.508 55.138 70.892 63.015 118.154 7.877 23.631-15.754 47.262-39.385 47.262zM858.585 14.769h-472.615v78.769h472.615v-78.769z" />
<glyph unicode="&#xe912;" horiz-adv-x="1252" d="M149.662 251.077h945.231c47.262 0 78.769 31.508 78.769 78.769v551.385c0 47.262-31.508 78.769-78.769 78.769h-945.231c-39.385 0-78.769-31.508-78.769-78.769v-551.385c0-47.262 31.508-78.769 78.769-78.769zM779.815 723.692l-157.538-86.646 165.415-173.292-63.015-55.138-165.415 181.169-94.523-181.169-78.769 393.846 393.846-78.769z" />
<glyph unicode="&#xe913;" glyph-name="Icon_Piggybank_outline" data-tags="Icon_Piggybank_outline" horiz-adv-x="1170" d="M658.286 886.857c-102.4 0-190.171-29.257-270.629-73.143-29.257 102.4-95.086 146.286-95.086 146.286v-204.8c-51.2-43.886-95.086-102.4-117.029-160.914h-175.543v-219.429h153.6c14.629-87.771 65.829-168.229 138.971-234.057v-204.8h146.286v117.029c65.829-29.257 138.971-43.886 219.429-43.886s153.6 14.629 219.429 43.886v-117.029h146.286v204.8c87.771 80.457 146.286 190.171 146.286 307.2 0 241.371-226.743 438.857-512 438.857zM972.8 199.314c-36.571-29.257-80.457-58.514-124.343-73.143-58.514-29.257-124.343-43.886-190.171-43.886s-131.657 14.629-190.171 36.571c-43.886 21.943-87.771 43.886-124.343 80.457-65.829 51.2-102.4 117.029-117.029 190.171-7.314 21.943-7.314 36.571-7.314 58.514 0 43.886 7.314 80.457 21.943 117.029 21.943 51.2 51.2 95.086 102.4 131.657 21.943 21.943 43.886 36.571 73.143 51.2 73.143 43.886 153.6 65.829 241.371 65.829 241.371 0 438.857-160.914 438.857-365.714 0-95.086-43.886-182.857-124.343-248.686zM438.857 521.143c0-40.396-32.747-73.143-73.143-73.143s-73.143 32.747-73.143 73.143c0 40.396 32.747 73.143 73.143 73.143s73.143-32.747 73.143-73.143zM438.857 740.571h438.857v-73.143h-438.857v73.143z" />
<glyph unicode="&#xe914;" glyph-name="Icon_Fragile" data-tags="Icon_Fragile" horiz-adv-x="768" d="M512 960l-128-192h192l-256-320 64 256h-128v12.8l64 243.2h-320v-281.6c0-211.2 140.8-384 320-416v-198.4h-64c-32 0-64-32-64-64v-64h384v64c0 32-32 64-64 64h-64v198.4c179.2 32 320 204.8 320 416v281.6h-256z" />
<glyph unicode="&#xe915;" glyph-name="Icon_Premiumservice" data-tags="Icon_Premiumservice" d="M256 96h512c35.2 0 64-28.8 64-64v0c0-35.2-28.8-64-64-64h-512c-35.2 0-64 28.8-64 64v0c0 35.2 28.8 64 64 64zM221.44 160c-27.52 0-52.48 17.92-60.8 44.16l-94.72 295.040c-9.6 28.8 19.84 54.4 46.72 40.96l197.12-110.080 173.44 289.28c12.8 21.76 44.8 21.76 57.6 0l173.44-289.28 197.12 110.080c26.88 13.44 56.32-12.16 47.36-40.96l-94.72-295.040c-8.96-26.24-33.92-44.16-61.44-44.16h-581.12zM128 672c0-35.346-28.654-64-64-64s-64 28.654-64 64c0 35.346 28.654 64 64 64s64-28.654 64-64zM1024 672c0-35.346-28.654-64-64-64s-64 28.654-64 64c0 35.346 28.654 64 64 64s64-28.654 64-64zM576 864c0-35.346-28.654-64-64-64s-64 28.654-64 64c0 35.346 28.654 64 64 64s64-28.654 64-64z" />
<glyph unicode="&#xe916;" glyph-name="Icon_Reward" data-tags="Icon_Reward" d="M832 896v64h-640v-64h-192v-160c0-134.4 96-249.6 217.6-281.6 38.4-96 121.6-172.8 224-192 0 0 0 0 0 0v-198.4h-57.6c-70.4 0-128-57.6-128-128h512c0 70.4-57.6 128-128 128h-64v198.4c108.8 19.2 192 96 230.4 198.4 128 32 217.6 140.8 217.6 275.2v160h-192zM64 736v96h128v-243.2c0-19.2 0-38.4 6.4-57.6-76.8 38.4-134.4 115.2-134.4 204.8zM512 556.8l-121.6-96 51.2 153.6-121.6 89.6h140.8l51.2 140.8 51.2-140.8h140.8l-121.6-89.6 51.2-153.6-121.6 96zM960 736c0-89.6-51.2-166.4-128-204.8 0 12.8 0 25.6 0 44.8v256h128v-96z" />
<glyph unicode="&#xe917;" glyph-name="Icon_Secure" data-tags="Icon_Secure" horiz-adv-x="960" d="M512 832v128h-64v-128c-249.6-19.2-448-211.2-448-448h448v-313.6c0-38.4-32-70.4-64-70.4s-64 32-64 64h-64c0-83.2 83.2-147.2 172.8-121.6 51.2 19.2 83.2 70.4 83.2 128v313.6h448c0 236.8-198.4 428.8-448 448z" />
<glyph unicode="&#xe918;" glyph-name="Agricultureloan_outline" data-tags="Icon_Agricultureloan_outline" d="M75.093 850.773c109.227-20.48 177.493-61.44 204.8-109.227 20.48-34.133 13.653-81.92 6.827-102.4-27.307-6.827-47.787-13.653-68.267-13.653-34.133 0-54.613 6.827-75.093 27.307-47.787 47.787-61.44 129.707-68.267 197.973zM0 925.867c0 0-6.827-368.64 218.453-368.64 34.133 0 75.093 6.827 122.88 27.307 0 0 150.187 293.547-341.333 341.333v0zM948.907 645.973c-6.827-68.267-27.307-150.187-68.267-191.147-20.48-20.48-47.787-34.133-75.093-34.133-20.48 0-47.787 6.827-68.267 13.653-6.827 27.307-13.653 68.267 6.827 102.4 27.307 47.787 95.573 88.747 204.8 109.227zM1024 721.067c-491.52-47.787-341.333-341.333-341.333-341.333 47.787-20.48 88.747-27.307 122.88-27.307 225.28 0 218.453 368.64 218.453 368.64v0zM477.867-29.867h-68.267c34.133 232.107 40.96 471.040-116.053 621.227l47.787 47.787c197.973-184.32 163.84-477.867 136.533-669.013zM477.867-29.867h-68.267c13.653 259.413 163.84 382.293 252.587 443.733 20.48 13.653 40.96 27.307 47.787 40.96l47.787-47.787c-13.653-13.653-34.133-27.307-61.44-47.787-81.92-61.44-204.8-163.84-218.453-389.12z" />
<glyph unicode="&#xe919;" glyph-name="Icon_ATMswipe_outline" data-tags="Icon_ATMswipe_outline" d="M960 960h-896c-32 0-64-32-64-64v-320c0-32 32-64 64-64h64v64h-64v320h896v-320h-64v-64h64c32 0 64 32 64 64v320c0 32-32 64-64 64zM768 704v-704h-512v704h512zM896 768h-768v-64h64v-704c0-32 32-64 64-64h512c32 0 64 32 64 64v704h64v64zM320 704h64v-704h-64v704zM576 640h128v-192h-128v192z" />
<glyph unicode="&#xe91a;" glyph-name="Icon_Bank_outline" data-tags="Icon_Bank_outline" horiz-adv-x="960" d="M358.4 268.8c0-25.6-19.2-44.8-38.4-44.8v0c-19.2 0-38.4 19.2-38.4 44.8v192c0 25.6 19.2 44.8 38.4 44.8h6.4c19.2 0 38.4-19.2 38.4-44.8l-6.4-192zM518.4 268.8c0-25.6-19.2-44.8-38.4-44.8v0c-19.2 0-38.4 19.2-38.4 44.8v192c0 25.6 19.2 44.8 38.4 44.8h6.4c19.2 0 38.4-19.2 38.4-44.8l-6.4-192zM678.4 268.8c0-25.6-19.2-44.8-38.4-44.8h-6.4c-19.2 0-38.4 19.2-38.4 44.8v192c0 25.6 19.2 44.8 38.4 44.8h6.4c19.2 0 38.4-19.2 38.4-44.8v-192zM96 38.4h768c38.4 0 64-25.6 64-51.2v0c0-25.6-25.6-51.2-64-51.2h-768c-38.4 0-64 25.6-64 51.2v0c0 32 25.6 51.2 64 51.2zM480 889.6l313.6-185.6h-627.2l313.6 185.6zM480 960c-6.4 0-12.8 0-19.2-6.4l-448-262.4c-25.6-19.2-12.8-51.2 25.6-51.2h889.6c32 0 51.2 32 19.2 51.2l-448 262.4c-6.4 0-12.8 6.4-19.2 6.4v0zM128 576h64v-448h-64v448zM768 576h64v-448h-64v448z" />
<glyph unicode="&#xe91b;" glyph-name="Icon_Banklocker_outine" data-tags="Icon_Banklocker_outine" d="M960 64h-896c-38.4 0-64 25.6-64 64v704c0 38.4 25.6 64 64 64h896c38.4 0 64-25.6 64-64v-256h-64v256h-896v-704h896v256h64v-256c0-38.4-25.6-64-64-64zM128 128h128v-128h-128v128zM832 160h-640c-51.2 0-96 44.8-96 96v448c0 51.2 44.8 96 96 96h640c51.2 0 96-44.8 96-96h-64c0 12.8-12.8 32-32 32h-640c-12.8 0-32-19.2-32-32v-448c0-19.2 19.2-32 32-32h640c19.2 0 32 12.8 32 32h64c0-57.6-38.4-96-96-96zM768 128h128v-128h-128v128zM832 512h192v-64h-192v64zM384 448v-128h-64v128c-38.4 12.8-64 51.2-64 96 0 51.2 44.8 96 96 96s96-44.8 96-96c0-44.8-25.6-83.2-64-96z" />
<glyph unicode="&#xe91c;" glyph-name="Icon_Bond_outline" data-tags="Icon_Bond_outline" d="M0 960v-704h256v64h-192v448c64 12.8 115.2 64 128 128h640c12.8-64 64-115.2 128-128v-448h-192v-64h256v704h-1024zM192 704h640v-64h-640v64zM320 576h384v-64h-384v64zM640 256c0 70.4-57.6 128-128 128s-128-57.6-128-128c0-32 12.8-57.6 32-83.2l-96-211.2 57.6-25.6 89.6 198.4c12.8-6.4 32-6.4 44.8-6.4s32 0 44.8 6.4l89.6-198.4 57.6 25.6-96 211.2c19.2 25.6 32 51.2 32 83.2z" />
<glyph unicode="&#xe91d;" glyph-name="Icon_Customerprofile_outline" data-tags="Icon_Customerprofile_outline" d="M960 768v-640h-896v640h896zM1024 832h-1024v-768h1024v768zM512 192h-384v64c0 108.8 83.2 192 192 192-70.4 0-128 57.6-128 128s57.6 128 128 128 128-57.6 128-128-57.6-128-128-128c51.2 0 102.4-19.2 134.4-57.6s57.6-83.2 57.6-134.4v-64zM896 640h-320v-64h320v64zM896 448h-320v-64h320v64zM896 256h-256v-64h256v64z" />
<glyph unicode="&#xe91e;" glyph-name="Icon_Fastag_outline" data-tags="Icon_Fastag_outline" horiz-adv-x="1260" d="M315.077 739.446v63.015c0 47.262-39.385 78.769-78.769 78.769h-157.538c-47.262 0-78.769-31.508-78.769-78.769v-866.462h315.077v724.677l945.231 220.554v78.769l-945.231-220.554zM236.308 14.769h-157.538v787.692h157.538v-787.692zM708.923 566.154l-157.538-315.077v-236.308h78.769v-78.769h78.769v78.769h393.846v-78.769h78.769v78.769h78.769v236.308l-157.538 315.077h-393.846zM630.154 251.077h78.769v-78.769h-78.769v78.769zM787.692 93.538v157.538h236.308v-157.538h-236.308zM1181.538 172.308h-78.769v78.769h78.769v-78.769zM669.538 329.846l86.646 157.538h307.2l86.646-157.538h-480.492z" />
<glyph unicode="&#xe91f;" glyph-name="Icon_Goldloan_outline" data-tags="Icon_Goldloan_outline" horiz-adv-x="960" d="M480 768v0c-19.2 0-32 12.8-32 32v128c0 19.2 12.8 32 32 32v0c19.2 0 32-12.8 32-32v-128c0-19.2-12.8-32-32-32zM160 800v0c-12.8-12.8-32-12.8-44.8 0l-96 89.6c-12.8 12.8-12.8 32 0 44.8v0c12.8 12.8 32 12.8 44.8 0l89.6-89.6c19.2-12.8 19.2-32 6.4-44.8zM800 800v0c12.8-12.8 32-12.8 44.8 0l89.6 89.6c12.8 12.8 12.8 32 0 44.8v0c-12.8 12.8-32 12.8-44.8 0l-89.6-89.6c-12.8-12.8-12.8-32 0-44.8zM332.8 192l38.4-192h-294.4l38.4 192h217.6zM332.8 256h-217.6c-32 0-57.6-19.2-64-51.2l-51.2-268.8h448l-51.2 268.8c-6.4 32-32 51.2-64 51.2v0zM844.8 192l38.4-192h-294.4l38.4 192h217.6zM844.8 256h-217.6c-32 0-57.6-19.2-64-51.2l-51.2-268.8h448l-51.2 268.8c-6.4 32-32 51.2-64 51.2v0zM588.8 576l38.4-192h-294.4l38.4 192h217.6zM588.8 640h-217.6c-32 0-57.6-19.2-64-51.2l-51.2-268.8h448l-51.2 268.8c-6.4 32-32 51.2-64 51.2v0z" />
<glyph unicode="&#xe920;" glyph-name="Icon_Insurance_outline" data-tags="Icon_Insurance_outline" horiz-adv-x="896" d="M448 960l-448-230.4c0 0-25.6-467.2 448-793.6 428.8 294.4 448 704 448 780.8 0 6.4 0 12.8 0 12.8l-448 230.4zM448 12.8c-332.8 249.6-377.6 569.6-384 678.4l384 198.4 384-198.4c-6.4-108.8-51.2-428.8-384-678.4zM384 640v-128h-128v-128h128v-128h128v128h128v128h-128v128z" />
<glyph unicode="&#xe921;" glyph-name="Icon_Investment_outline" data-tags="Icon_Investment_outline" d="M768 896c108.8 0 192-83.2 192-192v-512c0-108.8-83.2-192-192-192h-524.8c-76.8 0-153.6 57.6-179.2 140.8v563.2c0 108.8 83.2 192 192 192h512zM768 960h-512c-140.8 0-256-115.2-256-256v-576c32-102.4 128-192 243.2-192h524.8c140.8 0 256 115.2 256 256v512c0 140.8-115.2 256-256 256v0zM51.2 83.2l243.2 268.8 128-128 281.6 320v-96h64v256h-256v-64h102.4l-198.4-230.4-134.4 134.4-236.8-262.4z" />
<glyph unicode="&#xe922;" glyph-name="Icon_Loan_outline" data-tags="Icon_Loan_outline" horiz-adv-x="960" d="M576 384c19.2 0 38.4 0 57.6-6.4 64-6.4 128-38.4 172.8-76.8 57.6-51.2 89.6-121.6 89.6-192v-108.8h-153.6l-192 384h25.6zM576 448h-192c-38.4 0-64-25.6-64-64s25.6-64 64-64h128l32-64h-288l-147.2 121.6c-6.4 6.4-19.2 6.4-32 6.4s-25.6-6.4-32-12.8c-19.2-19.2-12.8-51.2 6.4-64l204.8-172.8v-6.4h352l96-192h256v172.8c0 96-44.8 179.2-115.2 243.2-57.6 51.2-128 83.2-204.8 96-19.2 0-44.8 0-64 0v0zM192 864c51.2 0 96-44.8 96-96s-44.8-96-96-96-96 44.8-96 96 44.8 96 96 96zM192 928c-89.6 0-160-70.4-160-160s70.4-160 160-160 160 70.4 160 160-70.4 160-160 160v0zM409.6 825.6c-12.8 0-25.6 0-32-6.4 6.4-19.2 12.8-38.4 12.8-70.4 0-76.8-57.6-140.8-128-160 25.6-51.2 83.2-89.6 147.2-89.6 89.6 0 160 70.4 160 160 0 96-70.4 166.4-160 166.4z" />
<glyph unicode="&#xe923;" glyph-name="Icon_Netbanking_outline" data-tags="Icon_Netbanking_outline" horiz-adv-x="1252" d="M149.662 251.077h945.231c47.262 0 78.769 31.508 78.769 78.769v551.385c0 47.262-31.508 78.769-78.769 78.769h-945.231c-39.385 0-78.769-31.508-78.769-78.769v-551.385c0-47.262 39.385-78.769 78.769-78.769zM149.662 881.231h945.231v-551.385h-945.231v551.385zM1213.046 172.308h-1173.662c-23.631 0-47.262-23.631-39.385-47.262 23.631-110.277 118.154-189.046 236.308-189.046h787.692c63.015 0 126.031 23.631 165.415 70.892 31.508 31.508 55.138 70.892 63.015 118.154 7.877 23.631-15.754 47.262-39.385 47.262zM858.585 14.769h-472.615v78.769h472.615v-78.769zM779.815 723.692l-393.846 78.769 78.769-393.846 94.523 181.169 165.415-181.169 55.138 55.138-157.538 173.292z" />
<glyph unicode="&#xe924;" glyph-name="Icon_Premiumservice_outline" data-tags="Icon_Premiumservice_outline" d="M256 96h512c38.4 0 64-25.6 64-64v0c0-38.4-25.6-64-64-64h-512c-32 0-64 25.6-64 64v0c0 38.4 32 64 64 64zM512 640l147.2-243.2 32-51.2 51.2 32 128 70.4-70.4-224h-582.4l-70.4 224 128-70.4 51.2-32 32 51.2 153.6 243.2zM512 736c-12.8 0-19.2-6.4-25.6-19.2l-179.2-288-192 108.8c-6.4 6.4-12.8 6.4-19.2 6.4-19.2 0-38.4-19.2-32-44.8l96-294.4c6.4-25.6 32-44.8 64-44.8h582.4c25.6 0 51.2 19.2 64 44.8l89.6 294.4c6.4 25.6-12.8 44.8-32 44.8-6.4 0-12.8 0-12.8-6.4l-198.4-108.8-179.2 288c0 12.8-12.8 19.2-25.6 19.2v0zM128 672c0-35.346-28.654-64-64-64s-64 28.654-64 64c0 35.346 28.654 64 64 64s64-28.654 64-64zM1024 672c0-35.346-28.654-64-64-64s-64 28.654-64 64c0 35.346 28.654 64 64 64s64-28.654 64-64zM576 864c0-35.346-28.654-64-64-64s-64 28.654-64 64c0 35.346 28.654 64 64 64s64-28.654 64-64z" />
<glyph unicode="&#xe925;" glyph-name="Icon_Reward_outline" data-tags="Icon_Reward_outline" d="M832 896v64h-640v-64h-192v-160c0-134.4 96-249.6 217.6-281.6 38.4-96 121.6-172.8 230.4-192v-198.4h-64c-70.4 0-128-57.6-128-128h512c0 70.4-57.6 128-128 128h-64v198.4c108.8 19.2 192 96 236.8 198.4 121.6 32 211.2 140.8 211.2 275.2v160h-192zM64 736v96h128v-243.2c0-19.2 0-38.4 6.4-57.6-76.8 38.4-134.4 108.8-134.4 204.8zM512 320c-19.2 0-38.4 0-51.2 6.4-121.6 25.6-204.8 134.4-204.8 262.4v307.2h512v-320c0-140.8-115.2-256-256-256zM960 736c0-96-57.6-172.8-134.4-204.8 6.4 12.8 6.4 25.6 6.4 44.8v256h128v-96zM512 844.8l-51.2-140.8h-140.8l121.6-89.6-51.2-153.6 121.6 96 121.6-96-51.2 153.6 121.6 89.6h-140.8z" />
<glyph unicode="&#xe926;" glyph-name="Icon_Secure_outline" data-tags="Icon_Secure_outline" horiz-adv-x="960" d="M512 832v128h-64v-128c-249.6-19.2-448-211.2-448-448h448v-313.6c0-38.4-25.6-70.4-64-70.4s-64 25.6-64 64h-64c0-83.2 83.2-147.2 172.8-121.6 51.2 19.2 83.2 70.4 83.2 128v313.6h448c0 236.8-198.4 428.8-448 448zM70.4 448c32 179.2 204.8 320 409.6 320s377.6-140.8 409.6-320h-819.2z" />
<glyph unicode="&#xe927;" glyph-name="Icon_AC" data-tags="Icon_AC" d="M51.2 960c-32 0-51.2-19.2-51.2-51.2v-198.4c0-51.2 25.6-166.4 64-198.4v76.8c0 32 19.2 51.2 51.2 51.2h800c25.6 0 44.8-19.2 44.8-51.2v-76.8c38.4 32 64 147.2 64 198.4v198.4c0 32-19.2 51.2-51.2 51.2h-921.6zM192 800c0-19.2-12.8-32-32-32s-32 12.8-32 32 12.8 32 32 32 32-12.8 32-32zM320 800c0-19.2-12.8-32-32-32s-32 12.8-32 32 12.8 32 32 32 32-12.8 32-32zM448 800c0-19.2-12.8-32-32-32s-32 12.8-32 32 12.8 32 32 32 32-12.8 32-32zM160 576h704c19.2 0 32-12.8 32-32v-64c0-19.2-12.8-32-32-32h-704c-19.2 0-32 12.8-32 32v64c0 19.2 12.8 32 32 32zM128 128v64c32 6.4 38.4 25.6 38.4 32 12.8 64 76.8 89.6 83.2 96l25.6-57.6c-12.8-6.4-38.4-25.6-44.8-44.8-6.4-25.6-38.4-76.8-102.4-89.6zM896 128c-64 12.8-96 64-102.4 89.6 0 19.2-38.4 38.4-44.8 38.4l25.6 57.6c6.4-6.4 70.4-32 83.2-89.6 0-12.8 6.4-25.6 38.4-32v-64zM448 320h64v-192h-64v192z" />
<glyph unicode="&#xe928;" glyph-name="Icon_AC_outline" data-tags="Icon_AC_outline" d="M192 800c0-19.2-12.8-32-32-32s-32 12.8-32 32 12.8 32 32 32 32-12.8 32-32zM320 800c0-19.2-12.8-32-32-32s-32 12.8-32 32 12.8 32 32 32 32-12.8 32-32zM448 800c0-19.2-12.8-32-32-32s-32 12.8-32 32 12.8 32 32 32 32-12.8 32-32zM160 576h704c19.2 0 32-12.8 32-32v-64c0-19.2-12.8-32-32-32h-704c-19.2 0-32 12.8-32 32v64c0 19.2 12.8 32 32 32zM128 128v64c32 6.4 38.4 25.6 38.4 32 12.8 64 76.8 89.6 83.2 96l25.6-57.6c-12.8-6.4-38.4-25.6-44.8-44.8-6.4-25.6-38.4-76.8-102.4-89.6zM896 128c-64 12.8-96 64-102.4 89.6 0 19.2-38.4 38.4-44.8 38.4l25.6 57.6c6.4-6.4 70.4-32 83.2-89.6 0-12.8 6.4-25.6 38.4-32v-64zM448 320h64v-192h-64v192zM960 896v-185.6c0-6.4 0-12.8 0-12.8-12.8 0-32 6.4-44.8 6.4h-800c-19.2 0-38.4-6.4-51.2-12.8 0 6.4 0 12.8 0 19.2v185.6h896zM972.8 960h-921.6c-32 0-51.2-19.2-51.2-51.2v-198.4c0-51.2 25.6-166.4 64-198.4v76.8c0 32 19.2 51.2 51.2 51.2h800c25.6 0 44.8-19.2 44.8-51.2v-76.8c38.4 32 64 147.2 64 198.4v198.4c0 32-19.2 51.2-51.2 51.2v0z" />
<glyph unicode="&#xe929;" glyph-name="Icon_Bike" data-tags="Icon_Bike" d="M192 896h256v-64h-256v64zM640 896h256v-64h-256v64zM832 448h-576l115.2 288c6.4 19.2 25.6 32 51.2 32h249.6c19.2 0 38.4-12.8 51.2-32l108.8-288zM832 448v-320c0-38.4-25.6-64-64-64v0c-38.4 0-64 25.6-64 64v128h-320v-128c0-38.4-25.6-64-64-64v0c-38.4 0-64 25.6-64 64v320h576zM492.8 192h96c25.6 0 44.8-19.2 44.8-44.8v-160c0-25.6-19.2-44.8-44.8-44.8h-96c-25.6-6.4-44.8 12.8-44.8 38.4v160c0 32 19.2 51.2 44.8 51.2zM492.8 960h102.4c25.6 0 44.8-19.2 44.8-44.8v-147.2h-192v147.2c0 25.6 19.2 44.8 44.8 44.8z" />
<glyph unicode="&#xe92a;" glyph-name="Icon_Bike_outline" data-tags="Icon_Bike_outline" d="M192 896h256v-64h-256v64zM640 896h256v-64h-256v64zM665.6 704l102.4-268.8v-115.2h-448v-192 307.2l108.8 268.8h236.8zM672 768h-249.6c-25.6 0-44.8-12.8-51.2-32l-115.2-288v-320c0-38.4 25.6-64 64-64s64 25.6 64 64v128h320v-128c0-38.4 25.6-64 64-64s64 25.6 64 64v320l-108.8 288c-12.8 19.2-32 32-51.2 32v0zM492.8 192h96c25.6 0 44.8-19.2 44.8-44.8v-160c0-25.6-19.2-44.8-44.8-44.8h-96c-25.6-6.4-44.8 12.8-44.8 38.4v160c0 32 19.2 51.2 44.8 51.2zM492.8 960h102.4c25.6 0 44.8-19.2 44.8-44.8v-147.2h-192v147.2c0 25.6 19.2 44.8 44.8 44.8z" />
<glyph unicode="&#xe92b;" glyph-name="Icon_Blanket" data-tags="Icon_Blanket" d="M736 960h-512c-88.32 0-160-71.68-160-160v-416h256v-128h576v544c0 88.32-71.68 160-160 160zM128 448v352c0 53.12 42.88 96 96 96s96-42.88 96-96v-352h-192zM320 192h576v-128h-576v128zM320 64h64v-128h-64v128zM448 64h64v-128h-64v128zM576 64h64v-128h-64v128zM704 64h64v-128h-64v128zM832 64h64v-128h-64v128z" />
<glyph unicode="&#xe92c;" glyph-name="Icon_Blanket_outline" data-tags="Icon_Blanket_outline" d="M736 896c51.2 0 96-44.8 96-96v-480h-448v480c0 38.4-12.8 70.4-32 96h384zM736 960h-512c-89.6 0-160-70.4-160-160v-416h256v-128h576v544c0 89.6-70.4 160-160 160v0zM128 448v352c0 51.2 44.8 96 96 96s96-44.8 96-96v-352h-192zM320 192h576v-128h-576v128zM320 64h64v-128h-64v128zM448 64h64v-128h-64v128zM576 64h64v-128h-64v128zM704 64h64v-128h-64v128zM832 64h64v-128h-64v128z" />
<glyph unicode="&#xe92d;" glyph-name="Icon_Bulldozer" data-tags="Icon_Bulldozer" d="M864-64h-576c-51.2 0-96 44.8-96 96v0c0 51.2 44.8 96 96 96h576c51.2 0 96-44.8 96-96v0c0-51.2-44.8-96-96-96zM160 384h480v-96c0-51.2-44.8-96-96-96h-384c-51.2 0-96 44.8-96 96v0c0 51.2 44.8 96 96 96zM640 384h-64l-51.2 192h-140.8v-192h-128v204.8c0 25.6 25.6 51.2 51.2 51.2h268.8l64-256zM1024 339.2v-19.2c0-70.4-44.8-96-108.8-115.2l-147.2-12.8v256h108.8c83.2 0 147.2-51.2 147.2-108.8zM896 384v268.8c0 25.6-25.6 38.4-44.8 32l-313.6-102.4-25.6 57.6 403.2 134.4c19.2 6.4 44.8-6.4 44.8-32v-358.4h-64z" />
<glyph unicode="&#xe92e;" glyph-name="Icon_Bulldozer_outline" data-tags="Icon_Bulldozer_outline" d="M864 64c12.8 0 32-19.2 32-32s-19.2-32-32-32h-576c-12.8 0-32 19.2-32 32s19.2 32 32 32h576zM864 128h-576c-51.2 0-96-44.8-96-96s44.8-96 96-96h576c51.2 0 96 44.8 96 96s-44.8 96-96 96v0zM576 320v-32c0-12.8-19.2-32-32-32h-384c-12.8 0-32 19.2-32 32s19.2 32 32 32h416zM640 384h-480c-51.2 0-96-44.8-96-96s44.8-96 96-96h384c51.2 0 96 44.8 96 96v96zM640 384h-64l-51.2 192h-140.8v-192h-128v204.8c0 25.6 25.6 51.2 51.2 51.2h268.8l64-256zM876.8 384c51.2 0 83.2-25.6 83.2-44.8v-19.2c0-19.2 0-32-57.6-51.2l-70.4-6.4v121.6h44.8zM876.8 448h-108.8v-256l147.2 12.8c64 19.2 108.8 44.8 108.8 115.2v19.2c0 57.6-64 108.8-147.2 108.8v0zM896 384v268.8c0 25.6-25.6 38.4-44.8 32l-313.6-102.4-25.6 57.6 403.2 134.4c19.2 6.4 44.8-6.4 44.8-32v-358.4h-64z" />
<glyph unicode="&#xe92f;" glyph-name="Icon_Bus" data-tags="Icon_Bus" d="M64 883.2v-736c0-44.8 38.4-83.2 76.8-83.2h736c44.8 0 76.8 38.4 76.8 76.8v742.4c6.4 38.4-32 76.8-70.4 76.8h-742.4c-38.4 0-76.8-38.4-76.8-76.8zM384 192h-128v64h128v-64zM768 192h-128v64h128v-64zM755.2 448h-486.4c-38.4 0-76.8 38.4-76.8 76.8v230.4c0 38.4 38.4 76.8 76.8 76.8h480c44.8 0 83.2-38.4 83.2-76.8v-224c0-44.8-38.4-83.2-76.8-83.2zM960 832h64v-192h-64v192zM0 832h64v-192h-64v192zM256-64v0c-32 0-64 25.6-64 64v64h128v-64c0-38.4-25.6-64-64-64zM768-64v0c-38.4 0-64 25.6-64 64v64h128v-64c0-38.4-25.6-64-64-64z" />
<glyph unicode="&#xe930;" glyph-name="Icon_Bus_outline" data-tags="Icon_Bus_outline" d="M384 192h-128v64h128v-64zM768 192h-128v64h128v-64zM960 832h64v-192h-64v192zM0 832h64v-192h-64v192zM256-64v0c-32 0-64 25.6-64 64v64h128v-64c0-38.4-25.6-64-64-64zM768-64v0c-38.4 0-64 25.6-64 64v64h128v-64c0-38.4-25.6-64-64-64zM883.2 896c0 0 6.4 0 6.4-6.4v0-748.8c0-6.4-6.4-12.8-12.8-12.8h-736c-6.4 0-12.8 6.4-12.8 19.2v736c0 6.4 6.4 12.8 12.8 12.8h742.4zM883.2 960h-742.4c-38.4 0-76.8-38.4-76.8-76.8v-736c0-44.8 38.4-83.2 76.8-83.2h736c44.8 0 76.8 38.4 76.8 76.8v742.4c6.4 38.4-32 76.8-70.4 76.8v0zM748.8 768c12.8 0 19.2-6.4 19.2-12.8v-224c0-12.8-6.4-19.2-12.8-19.2h-486.4c-6.4 0-12.8 6.4-12.8 12.8v230.4c0 6.4 6.4 12.8 12.8 12.8h480zM748.8 832h-480c-38.4 0-76.8-38.4-76.8-76.8v-230.4c0-38.4 38.4-76.8 76.8-76.8h486.4c38.4 0 76.8 38.4 76.8 83.2v224c0 38.4-38.4 76.8-83.2 76.8v0z" />
<glyph unicode="&#xe931;" glyph-name="Icon_Chargingpoint" data-tags="Icon_Chargingpoint" d="M128 704h768v-128h-768v128zM576 192h-128c-140.8 0-256 115.2-256 256v128h640v-128c0-140.8-115.2-256-256-256zM320 960v0c38.4 0 64-25.6 64-64v-192c0-38.4-25.6-64-64-64v0c-38.4 0-64 25.6-64 64v192c0 38.4 25.6 64 64 64zM704 960v0c38.4 0 64-25.6 64-64v-192c0-38.4-25.6-64-64-64v0c-38.4 0-64 25.6-64 64v192c0 38.4 25.6 64 64 64zM448 320h128v-384h-128v384z" />
<glyph unicode="&#xe932;" glyph-name="Icon_Chargingpoint_outline" data-tags="Icon_Chargingpoint_outline" d="M832 544h-640c-57.6 0-96 38.4-96 96s38.4 96 96 96h640c57.6 0 96-38.4 96-96s-38.4-96-96-96zM192 672c-19.2 0-32-12.8-32-32s12.8-32 32-32h640c19.2 0 32 12.8 32 32s-12.8 32-32 32h-640zM768 544v-76.8c0-115.2-83.2-211.2-192-211.2h-128c-108.8 0-192 96-192 211.2v76.8h512zM832 608h-640v-140.8c0-147.2 115.2-275.2 256-275.2h128c140.8 0 256 128 256 275.2v140.8zM320 960v0c38.4 0 64-19.2 64-57.6v-166.4c0-32-25.6-57.6-64-57.6v0c-38.4 0-64 19.2-64 57.6v166.4c0 38.4 25.6 57.6 64 57.6zM704 960v0c38.4 0 64-19.2 64-57.6v-166.4c0-32-25.6-57.6-64-57.6v0c-38.4 0-64 19.2-64 57.6v166.4c0 38.4 25.6 57.6 64 57.6zM448 224h128v-288h-128v288z" />
<glyph unicode="&#xe933;" glyph-name="Icon_Firehose" data-tags="Icon_Firehose" d="M288 64h441.6c19.2 0 32-12.8 32-32v-57.6c0-19.2-12.8-32-32-32h-441.6c-19.2-6.4-32 6.4-32 25.6v57.6c0 25.6 12.8 38.4 32 38.4zM256 768h512v-64h-512v64zM704 704h-384c0 108.8 83.2 192 192 192v0c108.8 0 192-83.2 192-192v0zM492.8 960h44.8c19.2 0 38.4-19.2 38.4-44.8v-44.8c0-19.2-19.2-38.4-44.8-38.4h-38.4c-25.6 0-44.8 19.2-44.8 44.8v38.4c0 25.6 19.2 44.8 44.8 44.8zM320 704h384v-640h-384v640zM640 448h128v-128h-128v128zM832 576v0c38.4 0 64-25.6 64-64v-256c0-38.4-25.6-64-64-64v0c-38.4 0-64 25.6-64 64v256c0 38.4 25.6 64 64 64zM320 320h-96c-51.2 0-96 44.8-96 96v0c0 51.2 44.8 96 96 96h96v-192zM294.4 576h57.6c12.8 0 32-19.2 32-38.4v-249.6c0-12.8-19.2-32-38.4-32h-51.2c-19.2 0-38.4 19.2-38.4 38.4v243.2c0 19.2 19.2 38.4 38.4 38.4z" />
<glyph unicode="&#xe934;" glyph-name="Icon_Firehose_outline" data-tags="Icon_Firehose_outline" d="M729.6 64h-441.6c-19.2 0-32-12.8-32-38.4v-57.6c0-12.8 6.4-25.6 25.6-25.6 0 0 6.4 0 6.4 0h441.6c19.2 0 32 12.8 32 32v57.6c0 19.2-12.8 32-32 32v0zM256 768h512v-64h-512v64zM512 832c51.2 0 89.6-25.6 108.8-64h-217.6c19.2 38.4 57.6 64 108.8 64zM512 896c-108.8 0-192-83.2-192-192h384c0 108.8-83.2 192-192 192v0zM492.8 960h44.8c19.2 0 38.4-19.2 38.4-44.8v-44.8c0-19.2-19.2-38.4-44.8-38.4h-38.4c-25.6 0-44.8 19.2-44.8 44.8v38.4c0 25.6 19.2 44.8 44.8 44.8zM640 640v-512h-256v512h256zM704 704h-384v-640h384v640zM768 448h-128v-128h128v128zM832 512v0zM832 576c-38.4 0-64-25.6-64-64v-256c0-38.4 25.6-64 64-64s64 25.6 64 64v256c0 38.4-25.6 64-64 64v0zM256 448v-64h-32c-12.8 0-32 19.2-32 32s19.2 32 32 32h32zM320 512h-96c-51.2 0-96-44.8-96-96s44.8-96 96-96h96v192zM294.4 576h57.6c12.8 0 32-19.2 32-38.4v-249.6c0-12.8-19.2-32-38.4-32h-51.2c-19.2 0-38.4 19.2-38.4 38.4v243.2c0 19.2 19.2 38.4 38.4 38.4z" />
<glyph unicode="&#xe935;" glyph-name="Icon_Mticket" data-tags="Icon_Mticket" d="M1024 665.6v134.4c0 19.2-12.8 32-32 32h-960c-19.2 0-32-12.8-32-32v-134.4c0-12.8 6.4-25.6 25.6-25.6 25.6-6.4 51.2-19.2 64-38.4 25.6-19.2 38.4-51.2 38.4-89.6s-12.8-70.4-38.4-89.6c-19.2-19.2-38.4-32-64-38.4-19.2 0-25.6-12.8-25.6-25.6v-134.4c0-19.2 12.8-32 32-32h960c19.2 0 32 12.8 32 32v134.4c0 12.8-6.4 25.6-25.6 25.6-25.6 6.4-51.2 19.2-64 38.4-25.6 19.2-38.4 51.2-38.4 89.6s12.8 70.4 38.4 89.6c19.2 19.2 38.4 32 64 38.4 19.2 0 25.6 12.8 25.6 25.6zM704 320h-64v275.2l-102.4-134.4c-12.8-12.8-38.4-12.8-51.2 0l-102.4 134.4v-275.2h-64v352c0 12.8 6.4 25.6 19.2 32 12.8 0 25.6 0 38.4-12.8l134.4-160 134.4 166.4c12.8 6.4 25.6 6.4 38.4 6.4 12.8-6.4 19.2-19.2 19.2-32v-352z" />
<glyph unicode="&#xe936;" glyph-name="Icon_Mticket_outline" data-tags="Icon_Mticket_outline" d="M704 320h-64v275.2l-102.4-134.4c-12.8-12.8-38.4-12.8-51.2 0l-102.4 134.4v-275.2h-64v352c0 12.8 6.4 25.6 19.2 32 12.8 0 25.6 0 38.4-12.8l134.4-160 134.4 166.4c12.8 6.4 25.6 6.4 38.4 6.4 12.8-6.4 19.2-19.2 19.2-32v-352zM960 768v-70.4c-25.6-6.4-44.8-25.6-70.4-44.8-38.4-32-57.6-83.2-57.6-140.8s19.2-102.4 57.6-134.4c19.2-25.6 51.2-38.4 70.4-51.2v-70.4h-896v70.4c25.6 6.4 44.8 25.6 70.4 44.8 38.4 32 57.6 83.2 57.6 140.8s-19.2 102.4-57.6 134.4c-19.2 25.6-44.8 38.4-70.4 51.2v70.4h896zM992 832h-960c-19.2 0-32-12.8-32-32v-134.4c0-12.8 6.4-25.6 25.6-25.6 25.6-6.4 51.2-19.2 64-38.4 25.6-19.2 38.4-51.2 38.4-89.6s-12.8-70.4-38.4-89.6c-19.2-19.2-38.4-32-64-38.4-19.2 0-25.6-12.8-25.6-25.6v-134.4c0-19.2 12.8-32 32-32h960c19.2 0 32 12.8 32 32v134.4c0 12.8-6.4 25.6-25.6 25.6-25.6 6.4-51.2 19.2-64 38.4-25.6 19.2-38.4 51.2-38.4 89.6s12.8 70.4 38.4 89.6c19.2 19.2 38.4 32 64 38.4 19.2 0 25.6 12.8 25.6 25.6v134.4c0 19.2-12.8 32-32 32v0z" />
<glyph unicode="&#xe937;" glyph-name="Icon_NonAC" data-tags="Icon_NonAC" d="M44.8 832c-25.6 0-44.8-19.2-44.8-44.8v-198.4c0-57.6 25.6-172.8 64-204.8v128h275.2l320 320h-614.4zM921.6 832l-320-320h358.4v-128c38.4 32 64 147.2 64 204.8v198.4c0 25.6-19.2 44.8-44.8 44.8h-57.6zM192 672c0-19.2-12.8-32-32-32s-32 12.8-32 32 12.8 32 32 32 32-12.8 32-32zM320 672c0-19.2-12.8-32-32-32s-32 12.8-32 32 12.8 32 32 32 32-12.8 32-32zM448 672c0-19.2-12.8-32-32-32s-32 12.8-32 32 12.8 32 32 32 32-12.8 32-32zM275.2 448l-128-128h-19.2v96c0 19.2 12.8 32 32 32h115.2zM896 409.6v-51.2c0-19.2-19.2-38.4-38.4-38.4h-448l128 128h320c19.2 0 38.4-19.2 38.4-38.4zM63.549 236.496l719.545 719.545 45.254-45.254-719.545-719.545-45.254 45.254z" />
<glyph unicode="&#xe938;" glyph-name="Icon_NonAC_outline" data-tags="Icon_NonAC_outline" d="M192 672c0-19.2-12.8-32-32-32s-32 12.8-32 32 12.8 32 32 32 32-12.8 32-32zM320 672c0-19.2-12.8-32-32-32s-32 12.8-32 32 12.8 32 32 32 32-12.8 32-32zM448 672c0-19.2-12.8-32-32-32s-32 12.8-32 32 12.8 32 32 32 32-12.8 32-32zM275.2 448l-128-128h-19.2v96c0 19.2 12.8 32 32 32h115.2zM896 409.6v-51.2c0-19.2-19.2-38.4-38.4-38.4h-448l128 128h320c19.2 0 38.4-19.2 38.4-38.4zM61.066 237.354l719.545 719.545 45.254-45.254-719.545-719.545-45.254 45.254zM505.6 768l-192-192h-249.6c0 6.4 0 6.4 0 12.8v179.2h441.6zM659.2 832h-614.4c-25.6 0-44.8-19.2-44.8-44.8v-198.4c0-57.6 25.6-172.8 64-204.8v128h275.2l320 320zM960 768v-179.2c0-6.4 0-6.4 0-12.8h-204.8l192 192h12.8zM979.2 832h-57.6l-320-320h358.4v-128c38.4 32 64 147.2 64 204.8v198.4c0 25.6-19.2 44.8-44.8 44.8v0z" />
<glyph unicode="&#xe939;" glyph-name="Icon_Fragile_outline" data-tags="Icon_Fragile_outline" horiz-adv-x="768" d="M512 960h-512v-281.6c0-211.2 140.8-384 320-416v-198.4h-64c-32 0-64-25.6-64-64v-64h384v64c0 38.4-25.6 64-64 64h-64v198.4c179.2 32 320 204.8 320 416v281.6h-256zM704 678.4c0-172.8-115.2-326.4-268.8-352-12.8-6.4-32-6.4-51.2-6.4s-38.4 0-51.2 6.4c-153.6 25.6-268.8 179.2-268.8 352v217.6h243.2l-44.8-179.2-6.4-12.8h128l-64-256 256 320h-192l83.2 128h236.8v-217.6z" />
<glyph unicode="&#xe93a;" glyph-name="Icon_Readinglight_outline" data-tags="Icon_Readinglight_outline" d="M64 64h320c38.4 0 64-25.6 64-64v0c0-38.4-25.6-64-64-64h-320c-38.4 0-64 25.6-64 64v0c0 38.4 25.6 64 64 64zM800 640c64 0 121.6-51.2 147.2-128h-300.8c25.6 76.8 83.2 128 153.6 128zM800 704c-115.2 0-211.2-102.4-224-236.8 0-6.4 12.8-19.2 19.2-19.2h409.6c6.4 0 19.2 12.8 19.2 19.2-12.8 128-108.8 236.8-224 236.8v0zM256 0h-64v672c0 160 128 288 288 288h64c160 0 288-128 288-288v-32h-64v32c0 121.6-102.4 224-224 224h-64c-121.6 0-224-102.4-224-224v-672zM800 448c19.2 0 32-12.8 32-32s-12.8-32-32-32-32 12.8-32 32 12.8 32 32 32zM800 512c-51.2 0-96-44.8-96-96s44.8-96 96-96 96 44.8 96 96-44.8 96-96 96v0z" />
<glyph unicode="&#xe93b;" d="M0 960h1024v-64h-1024v64z" />
<glyph unicode="&#xe93c;" d="M729.6 640h-371.2c-128 0-230.4-102.4-230.4-230.4v-153.6l128-320h576l128 320v153.6c0 128-102.4 230.4-230.4 230.4zM614.4 512h179.2c19.2 0 38.4-19.2 38.4-38.4v-115.2c0-19.2-19.2-38.4-38.4-38.4h-179.2c-19.2 0-38.4 19.2-38.4 38.4v115.2c0 19.2 19.2 38.4 38.4 38.4zM294.4 512h179.2c19.2 0 38.4-19.2 38.4-38.4v-115.2c0-19.2-19.2-38.4-38.4-38.4h-179.2c-19.2 0-38.4 19.2-38.4 38.4v115.2c0 19.2 19.2 38.4 38.4 38.4z" />
<glyph unicode="&#xe93d;" d="M512 832h64v-256h-64v256z" />
<glyph unicode="&#xe93e;" d="M384 896h320v-83.2c0-25.6-19.2-44.8-44.8-44.8h-230.4c-25.6 0-44.8 19.2-44.8 44.8v83.2z" />
<glyph unicode="&#xe93f;" d="M320 192h448v-32h-448v32z" />
<glyph unicode="&#xe940;" d="M320 128h448v-32h-448v32z" />
<glyph unicode="&#xe941;" d="M320 64h448v-64h-448v64z" />
<glyph unicode="&#xe942;" glyph-name="Icon_Ropecar_outline" data-tags="Icon_Ropecar_outline" d="M729.6 576c96 0 166.4-70.4 166.4-166.4v-140.8l-108.8-268.8h-486.4l-108.8 268.8v140.8c0 96 70.4 166.4 166.4 166.4h371.2zM729.6 640h-371.2c-128 0-230.4-102.4-230.4-230.4v-153.6l128-320h576l128 320v153.6c0 128-102.4 230.4-230.4 230.4v0zM0 960h1024v-64h-1024v64zM768 448v-64h-128v64h128zM448 448v-64h-128v64h128zM793.6 512h-179.2c-19.2 0-38.4-19.2-38.4-38.4v-115.2c0-19.2 19.2-38.4 38.4-38.4h179.2c19.2 0 38.4 19.2 38.4 38.4v115.2c0 19.2-19.2 38.4-38.4 38.4v0zM473.6 512h-179.2c-19.2 0-38.4-19.2-38.4-38.4v-115.2c0-19.2 19.2-38.4 38.4-38.4h179.2c19.2 0 38.4 19.2 38.4 38.4v115.2c0 19.2-19.2 38.4-38.4 38.4v0zM512 832h64v-256h-64v256zM384 896h320v-83.2c0-25.6-19.2-44.8-44.8-44.8h-230.4c-25.6 0-44.8 19.2-44.8 44.8v83.2zM768 192h-448v-32h448v32zM768 128h-448v-32h448v32zM768 64h-448v-64h448v64z" />
<glyph unicode="&#xe943;" glyph-name="Icon_Seater" data-tags="Icon_Seater" d="M256 128h64v-192h-64v192zM576 128h64v-192h-64v192zM128 320h588.8c32 0 51.2-25.6 51.2-51.2v-140.8h-588.8c-32 0-51.2 19.2-51.2 51.2v140.8zM320 128h-147.2c-25.6 0-44.8 19.2-51.2 44.8l-102.4 614.4c-12.8 57.6 32 108.8 89.6 108.8v0c44.8 0 83.2-32 96-76.8l115.2-691.2zM128 576h384c38.4 0 64-25.6 64-64v0c0-38.4-25.6-64-64-64h-384v128z" />
<glyph unicode="&#xe944;" glyph-name="Icon_Seater_outline" data-tags="Icon_Seater_outline" d="M256 128h64v-192h-64v192zM576 128h64v-192h-64v192zM108.8 832c12.8 0 25.6-12.8 32-25.6l83.2-492.8 12.8-57.6h467.2v-64h-518.4l-102.4 608c0 6.4 0 12.8 6.4 19.2 0 6.4 12.8 12.8 19.2 12.8zM108.8 896c-57.6 0-102.4-51.2-89.6-108.8l102.4-614.4c6.4-25.6 25.6-44.8 51.2-44.8h595.2v140.8c0 25.6-19.2 51.2-51.2 51.2h-428.8l-83.2 499.2c-12.8 44.8-51.2 76.8-96 76.8v0zM217.6 576h307.2c32 0 51.2-25.6 51.2-64v0c0-38.4-19.2-64-51.2-64h-307.2v128z" />
<glyph unicode="&#xe945;" glyph-name="Icon_Semisleeper" data-tags="Icon_Semisleeper" d="M320 192h64v-192h-64v192zM640 192h64v-192h-64v192zM256 384h512v-192h-460.8c-25.6 0-51.2 25.6-51.2 51.2v140.8zM960 64l-192 128v192l198.4-147.2c32-25.6 44.8-70.4 25.6-108.8l-32-64zM448 192h-147.2c-25.6 0-51.2 19.2-57.6 44.8l-224 665.6c-6.4 32 12.8 57.6 44.8 57.6h102.4c19.2 0 32-12.8 38.4-32l243.2-736zM192 640h416c19.2 0 32-12.8 32-32v-70.4c0-12.8-12.8-25.6-32-25.6h-416v128z" />
<glyph unicode="&#xe946;" glyph-name="Icon_Semisleeper_outline" data-tags="Icon_Semisleeper_outline" d="M320 192h64v-192h-64v192zM640 192h64v-192h-64v192zM147.2 896l172.8-531.2 19.2-44.8h409.6l179.2-134.4c6.4-6.4 12.8-19.2 6.4-32l-134.4 89.6-12.8 12.8h-480l-217.6 640h57.6zM166.4 960h-102.4c-32 0-51.2-25.6-44.8-57.6l224-665.6c6.4-25.6 32-44.8 57.6-44.8h467.2l192-128 32 64c19.2 38.4 6.4 83.2-25.6 108.8l-198.4 147.2h-384l-179.2 544c-6.4 19.2-19.2 32-38.4 32v0zM294.4 640h320c12.8 0 25.6-12.8 25.6-32v-70.4c0-12.8-12.8-25.6-25.6-25.6h-320v128z" />
<glyph unicode="&#xe947;" glyph-name="Icon_Ship" data-tags="Icon_Ship" d="M774.4 320h-524.8c-32 0-57.6 25.6-57.6 57.6v396.8c0 32 25.6 57.6 57.6 57.6h524.8c32 0 57.6-25.6 57.6-57.6v-396.8c0-32-25.6-57.6-57.6-57.6zM313.6 384h396.8c32 0 57.6 25.6 57.6 57.6v268.8c0 32-25.6 57.6-57.6 57.6h-396.8c-32 0-57.6-25.6-57.6-57.6v-268.8c0-32 25.6-57.6 57.6-57.6zM428.8 960h166.4c25.6 0 44.8-19.2 44.8-44.8v-102.4c0-25.6-19.2-44.8-44.8-44.8h-166.4c-25.6 0-44.8 19.2-44.8 44.8v102.4c0 25.6 19.2 44.8 44.8 44.8zM0 0h1024v-64h-1024v64zM960 384c0 0 0-12.8 0-19.2 0-51.2-76.8-230.4-192-428.8h-512c-134.4 236.8-192 448-192 448l448 256 448-256z" />
<glyph unicode="&#xe948;" glyph-name="Icon_Ship_outline" data-tags="Icon_Ship_outline" d="M192 441.6v332.8c0 32 25.6 57.6 57.6 57.6h524.8c32 0 57.6-25.6 57.6-57.6v-332.8zM768 441.6v268.8c0 32-25.6 57.6-57.6 57.6h-396.8c-32 0-57.6-25.6-57.6-57.6v-268.8zM428.8 960h166.4c25.6 0 44.8-19.2 44.8-44.8v-102.4c0-25.6-19.2-44.8-44.8-44.8h-166.4c-25.6 0-44.8 19.2-44.8 44.8v102.4c0 25.6 19.2 44.8 44.8 44.8zM0 0h1024v-64h-1024v64zM512 563.2l384-217.6c-12.8-51.2-64-172.8-160-345.6h-441.6c-83.2 147.2-128 288-153.6 352l371.2 211.2zM512 640l-448-256c0 0 57.6-211.2 192-448h512c115.2 198.4 192 377.6 192 428.8 0 6.4 0 19.2 0 19.2l-448 256z" />
<glyph unicode="&#xe949;" glyph-name="Icon_Snacks" data-tags="Icon_Snacks" d="M576-64h-448c-70.4 0-128 57.6-128 128v0h704c0-70.4-57.6-128-128-128zM672 128h-640c-17.92 0-32 14.080-32 32v0c0 17.92 14.080 32 32 32h640c17.92 0 32-14.080 32-32v0c0-17.92-14.080-32-32-32zM704 256h-704c0 8.32 0.64 16 1.92 23.68 16 130.56 166.4 232.32 350.080 232.32s334.080-101.76 350.080-232.32c1.28-7.68 1.92-15.36 1.92-23.68zM704 960h192v-128h-192v128zM1024 512v-448c0-70.4-57.6-128-128-128h-128c36.48 66.56 64 142.72 64 224 0 139.52-59.52 264.96-154.88 352h346.88zM1024 512h-346.88c-22.4 21.12-46.72 39.68-72.96 55.68l99.84 200.32h192l128-256z" />
<glyph unicode="&#xe94a;" glyph-name="Icon_Snacks_outline" data-tags="Icon_Snacks_outline" d="M704 64h-704c0-70.4 57.6-128 128-128h448c70.4 0 128 57.6 128 128v0zM672 128h-640c-19.2 0-32 12.8-32 32v0c0 19.2 12.8 32 32 32h640c19.2 0 32-12.8 32-32v0c0-19.2-12.8-32-32-32zM352 448c121.6 0 230.4-51.2 268.8-128h-537.6c38.4 76.8 147.2 128 268.8 128zM352 512c-185.6 0-332.8-102.4-352-230.4 0-6.4 0-12.8 0-25.6h704c0 6.4 0 12.8 0 25.6-19.2 128-166.4 230.4-352 230.4v0zM704 960h192v-128h-192v128zM883.2-64h-115.2v64h115.2c44.8 0 76.8 38.4 76.8 83.2v409.6l-96 211.2h-121.6l-76.8-166.4-57.6 25.6 96 204.8h198.4l121.6-268.8v-416c0-76.8-64-147.2-140.8-147.2z" />
<glyph unicode="&#xe94b;" glyph-name="Icon_Train" data-tags="Icon_Train" d="M640 960h-448c-106.24 0-192-85.76-192-192v-448c0-106.24 85.76-192 192-192h448c106.24 0 192 85.76 192 192v448c0 106.24-85.76 192-192 192zM224 257.28c-53.12 0-96 42.88-96 96s42.88 96 96 96c53.12 0 96-42.88 96-96s-42.88-96-96-96zM608 257.28c-53.12 0-96 42.88-96 96s42.88 96 96 96c53.12 0 96-42.88 96-96s-42.88-96-96-96zM704 576h-576v256h576v-256zM704-64h-576l128 256h320z" />
<glyph unicode="&#xe94c;" glyph-name="Icon_Train_outline" data-tags="Icon_Train_outline" d="M224 256c-51.2 0-96 44.8-96 96s44.8 96 96 96 96-38.4 96-96c0-51.2-44.8-96-96-96zM608 256c-51.2 0-96 44.8-96 96s44.8 96 96 96 96-38.4 96-96c0-51.2-44.8-96-96-96zM537.6 128l64-128h-371.2l64 128h243.2zM576 192h-320l-128-256h576l-128 256zM640 896c70.4 0 128-57.6 128-128v-448c0-70.4-57.6-128-128-128h-448c-70.4 0-128 57.6-128 128v448c0 70.4 57.6 128 128 128h448zM640 960h-448c-108.8 0-192-83.2-192-192v-448c0-108.8 83.2-192 192-192h448c108.8 0 192 83.2 192 192v448c0 108.8-83.2 192-192 192v0zM640 768v-128h-448v128h448zM704 832h-576v-256h576v256z" />
<glyph unicode="&#xe94d;" glyph-name="Icon_truck" data-tags="Icon_truck" d="M768 960c38.4 0 64-32 64-64v-512h-64l-64 192h-384l-64-192h-64v512c0 38.4 32 64 64 64h512zM128 339.2v-236.8c0-19.2 19.2-38.4 44.8-38.4h684.8c25.6 0 44.8 19.2 44.8 44.8v230.4c-6.4 25.6-25.6 44.8-51.2 44.8h-678.4c-25.6 0-44.8-19.2-44.8-44.8zM275.2 192c-12.8 0-19.2 6.4-32 12.8l-51.2 51.2h108.8c12.8 0 19.2-6.4 32-12.8l51.2-51.2h-108.8zM780.8 204.8c-6.4-6.4-19.2-12.8-32-12.8h-108.8l51.2 51.2c6.4 6.4 19.2 12.8 32 12.8h108.8l-51.2-51.2zM192 64h128v-64c0-38.4-25.6-64-64-64v0c-38.4 0-64 25.6-64 64v64zM704 64h128v-64c0-38.4-25.6-64-64-64v0c-38.4 0-64 25.6-64 64v64zM25.6 576h70.4c19.2 0 32-12.8 32-25.6v-70.4c0-19.2-12.8-32-25.6-32h-76.8c-12.8 0-25.6 12.8-25.6 25.6v76.8c0 12.8 12.8 25.6 25.6 25.6zM921.6 576h70.4c19.2 0 32-12.8 32-25.6v-70.4c0-19.2-12.8-32-25.6-32h-70.4c-19.2 0-32 12.8-32 25.6v76.8c0 12.8 12.8 25.6 25.6 25.6z" />
<glyph unicode="&#xe94e;" glyph-name="Icon_truck_outlinesvg" data-tags="Icon_truck_outlinesvg" d="M768 896v-307.2l-6.4 12.8-12.8 38.4h-473.6l-12.8-44.8-6.4-6.4v307.2h512zM768 960h-512c-32 0-64-25.6-64-64v-512h64l64 192h384l64-192h64v512c0 32-25.6 64-64 64v0zM275.2 192c-12.8 0-19.2 6.4-32 12.8l-51.2 51.2h108.8c12.8 0 19.2-6.4 32-12.8l51.2-51.2h-108.8zM780.8 204.8c-6.4-6.4-19.2-12.8-32-12.8h-108.8l51.2 51.2c6.4 6.4 19.2 12.8 32 12.8h108.8l-51.2-51.2zM192 64h128v-64c0-38.4-25.6-64-64-64v0c-38.4 0-64 25.6-64 64v64zM704 64h128v-64c0-38.4-25.6-64-64-64v0c-38.4 0-64 25.6-64 64v64zM25.6 576h70.4c19.2 0 32-12.8 32-25.6v-70.4c0-19.2-12.8-32-25.6-32h-76.8c-12.8 0-25.6 12.8-25.6 25.6v76.8c0 12.8 12.8 25.6 25.6 25.6zM921.6 576h70.4c19.2 0 32-12.8 32-25.6v-70.4c0-19.2-12.8-32-25.6-32h-70.4c-19.2 0-32 12.8-32 25.6v76.8c0 12.8 12.8 25.6 25.6 25.6zM838.4 320v-192h-646.4v192h646.4zM851.2 384h-678.4c-25.6 0-44.8-19.2-44.8-44.8v-236.8c0-19.2 19.2-38.4 44.8-38.4h684.8c25.6 0 44.8 19.2 44.8 44.8v230.4c-6.4 25.6-25.6 44.8-51.2 44.8v0z" />
<glyph unicode="&#xe94f;" glyph-name="Icon_Waterbottle" data-tags="Icon_Waterbottle" d="M384 960h192v-128h-192v128zM576-64h-192c-70.4 0-128 57.6-128 128v448h448v-448c0-70.4-57.6-128-128-128zM704 512h-448l128 256h192z" />
<glyph unicode="&#xe950;" glyph-name="Icon_Waterbottle_outline" data-tags="Icon_Waterbottle_outline" d="M384 960h192v-128h-192v128zM537.6 704l102.4-204.8v-435.2c0-38.4-25.6-64-64-64h-192c-38.4 0-64 25.6-64 64v435.2l102.4 204.8h115.2zM576 768h-192l-128-256v-448c0-70.4 57.6-128 128-128h192c70.4 0 128 57.6 128 128v448l-128 256z" />
<glyph unicode="&#xe951;" glyph-name="Icon_Antenna" data-tags="Icon_Antenna" d="M640 704c0-70.692-57.308-128-128-128s-128 57.308-128 128c0 70.692 57.308 128 128 128s128-57.308 128-128zM133.76 448c-7.68 0-16 2.56-21.76 8.32-71.040 65.92-112 158.72-112 254.080 0 89.6 34.56 174.72 97.28 240 12.16 12.8 32.64 13.44 45.44 1.28s13.44-32 1.28-44.16c-51.84-53.76-80-123.52-80-197.12 0-79.36 32.64-153.6 91.52-208.64 12.8-12.16 13.44-32 1.28-44.16-5.76-6.4-14.72-9.6-23.040-9.6zM890.24 448c-8.32 0-17.28 3.2-23.040 9.6-12.16 12.8-11.52 32.64 1.28 44.16 58.88 55.040 91.52 129.28 91.52 209.28 0 72.96-28.16 142.72-79.36 196.48-12.16 12.8-11.52 32.64 1.28 44.16s33.28 11.52 45.44-1.28c62.080-65.28 96.64-150.4 96.64-239.36 0-96-40.96-188.16-112-254.080-5.76-6.4-14.080-8.96-21.76-8.96zM261.12 576c-10.24 0-19.84 3.84-26.24 11.52-28.16 34.56-42.88 74.24-42.88 116.48s14.72 82.56 42.88 116.48c10.24 12.16 30.080 15.36 44.8 6.4 14.72-8.32 17.92-25.6 7.68-37.76-20.48-24.96-31.36-54.4-31.36-85.12s10.88-60.16 31.36-85.12c10.24-12.16 6.4-29.44-7.68-37.76-5.76-3.84-12.16-5.12-18.56-5.12zM762.24 576c-6.4 0-12.8 1.28-17.92 5.12-14.72 8.32-17.92 25.6-8.32 37.76 20.48 24.96 31.36 54.4 31.36 84.48 0 30.72-10.88 60.16-31.36 85.12-10.24 12.16-6.4 29.44 7.68 37.76 14.72 8.96 34.56 5.76 44.8-6.4 28.16-34.56 42.88-74.88 42.88-116.48s-14.72-81.92-42.24-115.84c-7.040-7.68-16.64-11.52-26.88-11.52zM512-64v0c-35.2 0-64 28.8-64 64v640h128v-640c0-35.2-28.8-64-64-64z" />
<glyph unicode="&#xe952;" glyph-name="Icon_Antenna_outline" data-tags="Icon_Antenna_outline" d="M512 544c-89.6 0-160 70.4-160 160s70.4 160 160 160c89.6 0 160-70.4 160-160s-70.4-160-160-160zM512 800c-51.2 0-96-44.8-96-96s44.8-96 96-96 96 44.8 96 96-44.8 96-96 96zM134.4 448c-6.4 0-19.2 0-19.2 6.4-76.8 70.4-115.2 160-115.2 256 0 89.6 32 172.8 96 243.2 12.8 6.4 32 12.8 44.8 0s12.8-32 0-44.8c-51.2-57.6-76.8-128-76.8-198.4 0-76.8 32-153.6 89.6-211.2 12.8-12.8 12.8-32 0-44.8 0 0-12.8-6.4-19.2-6.4zM889.6 448c-6.4 0-19.2 6.4-25.6 12.8-12.8 12.8-12.8 32 0 44.8 57.6 57.6 89.6 128 89.6 211.2 0 70.4-25.6 140.8-76.8 198.4-12.8 12.8-12.8 32 0 44.8 19.2 0 38.4 0 51.2-12.8 64-64 96-147.2 96-236.8 0-96-38.4-185.6-115.2-256 0-6.4-12.8-6.4-19.2-6.4zM262.4 576c-12.8 0-19.2 6.4-25.6 12.8-32 32-44.8 70.4-44.8 115.2s12.8 83.2 44.8 115.2c6.4 12.8 25.6 19.2 44.8 6.4 12.8-6.4 19.2-25.6 6.4-38.4-19.2-25.6-32-51.2-32-83.2s12.8-57.6 32-83.2c12.8-12.8 6.4-32-6.4-38.4-6.4-6.4-12.8-6.4-19.2-6.4zM761.6 576c-6.4 0-12.8 0-19.2 6.4-12.8 6.4-19.2 25.6-6.4 38.4 19.2 25.6 32 51.2 32 83.2s-12.8 57.6-32 83.2c-12.8 12.8-6.4 32 6.4 38.4s32 6.4 44.8-6.4c32-32 44.8-76.8 44.8-115.2s-12.8-83.2-44.8-115.2c-6.4-6.4-12.8-12.8-25.6-12.8zM512 512v0zM576 576h-128v-576c0-38.4 25.6-64 64-64s64 25.6 64 64v576z" />
<glyph unicode="&#xe953;" glyph-name="Icon_Datacard" data-tags="Icon_Datacard" horiz-adv-x="640" d="M512 704v256h-384v-256h-128v-448c0-176.64 143.36-320 320-320s320 143.36 320 320v448h-128zM192 896h256v-192h-256v192zM256 832h128v-64h-128v64z" />
<glyph unicode="&#xe954;" glyph-name="Icon_Datacard_outline" data-tags="Icon_Datacard_outline" horiz-adv-x="640" d="M576 640v-384c0-140.8-115.2-256-256-256s-256 115.2-256 256v384h512zM512 960h-384v-256h-128v-448c0-179.2 140.8-320 320-320s320 140.8 320 320v448h-128v256zM192 704v192h256v-192h-256zM256 832h128v-64h-128v64z" />
<glyph unicode="&#xe955;" glyph-name="Icon_Dress" data-tags="Icon_Dress" horiz-adv-x="768" d="M576 435.2v153.6l128 134.4c-38.4 32-83.2 44.8-128 44.8v192h-64v-204.8c-32-6.4-57.6-25.6-76.8-51.2-19.2-19.2-32-38.4-38.4-64h-25.6c-6.4 25.6-19.2 44.8-38.4 64-19.2 25.6-51.2 38.4-76.8 51.2v204.8h-64v-192c-44.8 0-89.6-12.8-128-44.8l128-140.8v-147.2c-115.2-96-192-262.4-192-422.4 0-25.6 0-76.8 0-76.8h768c0 0 0 51.2 0 76.8 0 166.4-76.8 332.8-192 422.4z" />
<glyph unicode="&#xe956;" glyph-name="Icon_Dish_outline" data-tags="Icon_Dish_outline" d="M320.853 147.627l129.707-40.96 68.267-102.4h-286.72l88.747 143.36zM293.547 229.547l-191.147-293.547h546.133l-150.187 232.107-204.8 61.44zM211.627 700.587l512-430.080c-61.44-47.787-136.533-75.093-211.627-75.093-81.92 0-157.013 27.307-218.453 81.92-68.267 61.44-116.053 143.36-122.88 232.107-6.827 68.267 6.827 136.533 40.96 191.147zM197.973 802.987c-143.36-170.667-122.88-430.080 47.787-573.44 75.093-61.44 170.667-95.573 266.24-95.573 116.053 0 232.107 47.787 314.027 143.36l-628.053 525.653zM914.773 550.4c-6.827-6.827-13.653-13.653-27.307-13.653-20.48 0-34.133 13.653-34.133 34.133 6.827 88.747-27.307 163.84-88.747 225.28-54.613 61.44-129.707 95.573-204.8 95.573-20.48 0-34.133 13.653-34.133 34.133s13.653 34.133 34.133 34.133c95.573 0 184.32-40.96 252.587-109.227 75.093-75.093 109.227-170.667 109.227-273.067 0-13.653-6.827-20.48-6.827-27.307zM716.8 550.4c-6.827 0-6.827-6.827-13.653-6.827-20.48-6.827-34.133 6.827-34.133 20.48-6.827 34.133-20.48 68.267-40.96 88.747-27.307 20.48-54.613 34.133-88.747 40.96-20.48 0-27.307 13.653-27.307 34.133 6.827 20.48 27.307 27.307 40.96 27.307 47.787 0 88.747-20.48 122.88-54.613s47.787-75.093 54.613-116.053c0-13.653-6.827-20.48-13.653-34.133z" />
<glyph unicode="&#xe957;" glyph-name="Icon_Fiber" data-tags="Icon_Fiber" horiz-adv-x="960" d="M832-64h-704v192c0 35.2 28.8 64 64 64h576c35.2 0 64-28.8 64-64v-192zM576 864c0-53.019-42.981-96-96-96s-96 42.981-96 96c0 53.019 42.981 96 96 96s96-42.981 96-96zM192 736c0-53.019-42.981-96-96-96s-96 42.981-96 96c0 53.019 42.981 96 96 96s96-42.981 96-96zM448 832h64v-640h-64v640zM320 192h-64v328.32l-182.4 181.76 44.8 45.44 201.6-200.32zM960 736c0-53.019-42.981-96-96-96s-96 42.981-96 96c0 53.019 42.981 96 96 96s96-42.981 96-96zM704 192h-64v355.2l201.6 200.32 44.8-45.44-182.4-181.76zM256 384h448v-256h-448v256z" />
<glyph unicode="&#xe958;" glyph-name="Icon_Fiber_outline" data-tags="Icon_Fiber_outline" horiz-adv-x="960" d="M576 864c0-53.019-42.981-96-96-96s-96 42.981-96 96c0 53.019 42.981 96 96 96s96-42.981 96-96zM192 736c0-53.019-42.981-96-96-96s-96 42.981-96 96c0 53.019 42.981 96 96 96s96-42.981 96-96zM448 832h64v-492.8h-64v492.8zM320 192h-64v326.4l-185.6 185.6 51.2 44.8 198.4-198.4zM960 736c0-53.019-42.981-96-96-96s-96 42.981-96 96c0 53.019 42.981 96 96 96s96-42.981 96-96zM704 192h-64v358.4l198.4 198.4 51.2-44.8-185.6-185.6zM640 320v-192h128v-128h-576v128h128v192h320zM704 384h-448v-192h-64c-32 0-64-32-64-64v-192h704v192c0 32-32 64-64 64h-64v192z" />
<glyph unicode="&#xe959;" glyph-name="Icon_HDvoice" data-tags="Icon_HDvoice" d="M520.32 101.12c-117.12 0-243.2 8.96-243.2 60.8 0 78.080 8.32 138.88-142.72 156.16s-134.4-95.36-133.76-173.44c0-87.040 197.12-212.48 511.36-208.64 310.4 0 511.36 120.96 511.36 208 0 78.080 16.64 190.72-134.4 173.44s-142.72-78.080-142.72-156.16c8.96-42.88-108.16-60.16-225.92-60.16zM192 896v-128h128v128h128v-384h-128v128h-128v-128h-128v384h128zM888.32 853.12c-41.6 28.8-95.36 42.88-178.56 42.88h-133.76v-384h113.92c83.84 0 155.52 16.64 201.6 53.12 39.040 30.72 68.48 79.36 68.48 149.76 0 64.64-28.16 109.44-71.68 138.24zM808.32 657.92c-15.36-12.16-38.4-17.92-66.56-17.92h-37.76v128h44.8c27.52 0 44.8-4.48 58.88-14.080s24.32-24.96 24.32-46.080c0-23.68-10.24-39.68-23.68-49.92z" />
<glyph unicode="&#xe95a;" glyph-name="Icon_HDvoice_outline" data-tags="Icon_HDvoice_outline" d="M102.4 256c6.4 0 12.8 0 19.2 0 89.6-12.8 83.2-19.2 83.2-83.2v-12.8c0-121.6 198.4-121.6 307.2-121.6 217.6 0 256 51.2 268.8 64 12.8 19.2 19.2 38.4 19.2 64v6.4c0 64 0 70.4 83.2 83.2 6.4 0 12.8 0 19.2 0 19.2 0 25.6-6.4 32-6.4 25.6-12.8 25.6-57.6 25.6-83.2 0-6.4 0-12.8 0-19.2-6.4-32-153.6-147.2-448-147.2h-12.8c-288 0-428.8 108.8-435.2 147.2 0 6.4 0 12.8 0 19.2 0 25.6 0 70.4 6.4 83.2 6.4 0 19.2 6.4 32 6.4v0zM102.4 320c-115.2 0-102.4-102.4-102.4-172.8 0-89.6 192-211.2 499.2-211.2 6.4 0 6.4 0 12.8 0 307.2 0 512 121.6 512 204.8 0 70.4 12.8 172.8-102.4 172.8-6.4 0-19.2 0-32 0-153.6-19.2-140.8-76.8-140.8-153.6 6.4-44.8-108.8-57.6-224-57.6s-243.2 6.4-243.2 57.6c0 76.8 6.4 140.8-140.8 153.6-19.2 6.4-25.6 6.4-38.4 6.4v0zM192 896v-128h128v128h128v-384h-128v128h-128v-128h-128v384h128zM889.6 851.2c-44.8 32-96 44.8-179.2 44.8h-134.4v-384h115.2c83.2 0 153.6 19.2 204.8 51.2 32 32 64 83.2 64 153.6 0 64-25.6 108.8-70.4 134.4zM806.4 659.2c-12.8-12.8-38.4-19.2-64-19.2h-38.4v128h44.8c25.6 0 44.8-6.4 57.6-12.8 12.8-12.8 25.6-25.6 25.6-44.8 0-25.6-12.8-44.8-25.6-51.2z" />
<glyph unicode="&#xe95b;" glyph-name="Icon_Internationalroaming" data-tags="Icon_Internationalroaming" d="M1024 505.6c0-39.040-24.32-76.16-63.36-90.24l-615.68-223.36-124.8 44.16-89.6 126.080 59.52 21.12 154.88-56.32 549.12 268.16c49.92 17.92 104.96-7.68 123.52-57.6 4.48-10.24 6.4-21.12 6.4-32zM840.32 534.4l-522.24 105.6-63.36-25.6 407.68-178.56zM544-64h-448c-53.12 0-96 42.88-96 96v832c0 53.12 42.88 96 96 96h448c53.12 0 96-42.88 96-96v-160h-64v160c0 17.92-14.080 32-32 32h-448c-17.92 0-32-14.080-32-32v-832c0-17.92 14.080-32 32-32h448c17.92 0 32 14.080 32 32v96h64v-96c0-53.12-42.88-96-96-96z" />
<glyph unicode="&#xe95c;" glyph-name="Icon_Internationalroaming_outline" data-tags="Icon_Internationalroaming_outline" d="M928 537.6c12.8 0 25.6-6.4 32-19.2v0 0c0 0 0-6.4 0-6.4 0-12.8-6.4-25.6-19.2-32l-563.2-204.8 544 262.4c0 0 0 0 6.4 0zM928 601.6c-12.8 0-19.2 0-32-6.4l-550.4-268.8-153.6 57.6-64-19.2 89.6-128 70.4-25.6 57.6-19.2 614.4 224c38.4 12.8 64 51.2 64 89.6 0 12.8 0 19.2-6.4 32-12.8 38.4-51.2 64-89.6 64v0zM838.4 531.2l-518.4 108.8-64-25.6 409.6-179.2zM544-64h-448c-51.2 0-96 44.8-96 96v832c0 51.2 44.8 96 96 96h448c51.2 0 96-44.8 96-96v-160h-64v160c0 19.2-12.8 32-32 32h-448c-19.2 0-32-12.8-32-32v-832c0-19.2 12.8-32 32-32h448c19.2 0 32 12.8 32 32v96h64v-96c0-51.2-44.8-96-96-96z" />
<glyph unicode="&#xe95d;" glyph-name="Icon_Navigation" data-tags="Icon_Navigation" horiz-adv-x="896" d="M448 960c-142.72 0-254.72-117.76-254.72-261.76 0-200.32 254.080-505.6 254.080-505.6s254.72 305.28 254.72 505.6c0.64 149.12-111.36 261.76-254.080 261.76zM448 576c-70.4 0-128 57.6-128 128s57.6 128 128 128 128-57.6 128-128-57.6-128-128-128zM645.76 159.36c60.16-1.92 119.68-8.96 179.84-26.88 14.72-5.12 29.44-10.88 44.16-21.12 7.040-5.76 14.72-11.52 20.48-22.4 5.76-10.24 7.040-26.24 2.56-37.12-9.6-22.4-25.6-32.64-39.68-41.6-14.72-8.96-29.44-15.36-44.16-21.12-118.4-42.88-240.64-51.2-362.24-53.12-121.6 1.92-243.84 9.6-362.24 53.12-14.72 5.76-29.44 12.8-44.16 21.76-14.080 9.6-30.72 19.84-39.040 44.8-7.040 27.52 10.88 49.28 24.96 58.24 14.72 10.88 29.44 17.28 44.16 22.4 60.16 18.56 120.32 24.32 180.48 24.32-57.6-14.72-117.12-27.52-167.68-53.76-24.96-10.24-48-34.56-40.32-39.040 3.84-9.6 33.92-24.32 58.88-31.36 53.76-15.36 111.36-24.32 169.6-28.8 58.24-5.76 116.48-7.68 175.36-7.68 116.48 0 236.16 6.4 344.96 35.2 25.6 7.040 55.040 21.12 61.44 32 2.56 2.56 1.92 6.4-7.040 16-8.96 8.32-21.12 14.72-33.28 21.12-50.56 25.6-109.44 39.68-167.040 55.040z" />
<glyph unicode="&#xe95e;" glyph-name="Icon_Navigation_outline" data-tags="Icon_Navigation_outline" horiz-adv-x="896" d="M448 608c-51.2 0-96 44.8-96 96s44.8 96 96 96 96-44.8 96-96-44.8-96-96-96zM646.4 160c57.6 0 121.6-6.4 179.2-25.6 12.8-6.4 32-12.8 44.8-19.2 6.4-6.4 12.8-12.8 19.2-25.6s6.4-25.6 0-38.4-25.6-32-38.4-38.4c-12.8-6.4-32-12.8-44.8-19.2-115.2-44.8-236.8-57.6-358.4-57.6s-243.2 6.4-364.8 51.2c-12.8 6.4-32 12.8-44.8 19.2s-32 19.2-38.4 44.8c-6.4 25.6 12.8 51.2 25.6 57.6 12.8 12.8 32 19.2 44.8 25.6 57.6 19.2 121.6 25.6 179.2 25.6-57.6-12.8-115.2-25.6-166.4-51.2-25.6-12.8-51.2-32-38.4-38.4 6.4-6.4 32-25.6 57.6-32 51.2-12.8 108.8-25.6 172.8-25.6 57.6-12.8 115.2-12.8 172.8-12.8 115.2 0 236.8 6.4 345.6 38.4 25.6 6.4 57.6 19.2 64 32 0 0 0 6.4-6.4 12.8s-19.2 12.8-32 19.2c-57.6 25.6-115.2 38.4-172.8 57.6zM448 896c51.2 0 96-19.2 134.4-57.6 38.4-32 57.6-83.2 57.6-140.8 0-115.2-115.2-294.4-192-403.2-76.8 108.8-192 288-192 403.2 0 108.8 83.2 198.4 192 198.4zM448 960c-140.8 0-256-115.2-256-262.4 0-198.4 256-505.6 256-505.6s256 307.2 256 505.6c0 147.2-115.2 262.4-256 262.4v0z" />
<glyph unicode="&#xe95f;" d="M1024-64h-273.067v68.267h204.8v204.8h68.267z" />
<glyph unicode="&#xe960;" d="M273.067-64h-273.067v273.067h68.267v-204.8h204.8z" />
<glyph unicode="&#xe961;" d="M68.267 686.933h-68.267v273.067h273.067v-68.267h-204.8z" />
<glyph unicode="&#xe962;" d="M1024 686.933h-68.267v204.8h-204.8v68.267h273.067z" />
<glyph unicode="&#xe963;" d="M477.867 482.133h-341.333v341.333h341.333v-341.333z" />
<glyph unicode="&#xe964;" d="M477.867 72.533h-341.333v341.333h341.333v-341.333z" />
<glyph unicode="&#xe965;" d="M887.467 482.133h-341.333v341.333h341.333v-341.333z" />
<glyph unicode="&#xe966;" d="M887.467 72.533h-341.333v341.333h341.333v-341.333z" />
<glyph unicode="&#xe967;" d="M273.067 686.933h68.267v-68.267h-68.267v68.267z" />
<glyph unicode="&#xe968;" d="M682.667 686.933h68.267v-68.267h-68.267v68.267z" />
<glyph unicode="&#xe969;" d="M273.067 277.333h68.267v-68.267h-68.267v68.267z" />
<glyph unicode="&#xe96a;" d="M682.667 277.333h68.267v-68.267h-68.267v68.267z" />
<glyph unicode="&#xe96b;" glyph-name="Icon_QRcode_outline" data-tags="Icon_QRcode_outline" d="M1024-64h-273.067v68.267h204.8v204.8h68.267zM273.067-64h-273.067v273.067h68.267v-204.8h204.8zM68.267 686.933h-68.267v273.067h273.067v-68.267h-204.8zM1024 686.933h-68.267v204.8h-204.8v68.267h273.067zM477.867 482.133h-341.333v341.333h341.333v-341.333zM204.8 550.4h204.8v204.8h-204.8v-204.8zM477.867 72.533h-341.333v341.333h341.333v-341.333zM204.8 140.8h204.8v204.8h-204.8v-204.8zM887.467 482.133h-341.333v341.333h341.333v-341.333zM614.4 550.4h204.8v204.8h-204.8v-204.8zM887.467 72.533h-341.333v341.333h341.333v-341.333zM614.4 140.8h204.8v204.8h-204.8v-204.8zM273.067 686.933h68.267v-68.267h-68.267v68.267zM682.667 686.933h68.267v-68.267h-68.267v68.267zM273.067 277.333h68.267v-68.267h-68.267v68.267zM682.667 277.333h68.267v-68.267h-68.267v68.267z" />
<glyph unicode="&#xe96c;" glyph-name="Icon_Router" data-tags="Icon_Router" d="M320 256h-64v288c0 17.92 14.080 32 32 32v0c17.92 0 32-14.080 32-32v-288zM0 256v-192c0-35.2 28.8-64 64-64h896c35.2 0 64 28.8 64 64v192c0 35.2-28.8 64-64 64h-896c-35.2 0-64-28.8-64-64zM512 128h-64v64h64v-64zM704 128h-64v64h64v-64zM896 128h-64v64h64v-64zM128 0h128v-64h-128v64zM768 0h128v-64h-128v64zM544 840.32c0-8.32-3.2-16.64-9.6-23.040-12.8-12.16-32.64-11.52-44.16 1.28-55.040 58.88-129.28 77.44-209.28 77.44-72.96 0-142.72-28.16-195.84-79.36-12.8-12.16-32.64-11.52-44.16 1.28-12.16 13.44-11.52 33.28 0.64 45.44 65.28 62.080 150.4 96.64 239.36 96.64 96 0 188.16-26.24 254.080-97.92 6.4-5.76 8.96-14.080 8.96-21.76zM416 698.24c0-6.4-1.28-12.8-5.12-17.92-8.32-14.72-25.6-18.56-37.76-8.32-24.96 20.48-54.4 31.36-84.48 31.36-30.72 0-60.16-10.88-85.12-31.36-12.16-10.24-29.44-6.4-37.76 7.68-8.96 14.72-5.76 34.56 6.4 44.8 34.56 28.16 74.88 42.88 116.48 42.88s81.92-14.72 115.84-42.24c7.68-7.040 11.52-16.64 11.52-26.88z" />
<glyph unicode="&#xe96d;" glyph-name="Icon_Router_outline" data-tags="Icon_Router_outline" d="M320 256h-64v288c0 19.2 12.8 32 32 32v0c19.2 0 32-12.8 32-32v-288zM512 128h-64v64h64v-64zM704 128h-64v64h64v-64zM896 128h-64v64h64v-64zM128 0h128v-64h-128v64zM768 0h128v-64h-128v64zM544 838.4c0-6.4-6.4-19.2-6.4-25.6-12.8-12.8-32-12.8-44.8 0-57.6 64-134.4 83.2-211.2 83.2s-140.8-25.6-198.4-76.8c-12.8-12.8-32-12.8-44.8 0s-6.4 32 0 44.8c70.4 64 153.6 96 243.2 96 96 0 185.6-25.6 256-96 6.4-6.4 6.4-19.2 6.4-25.6zM416 697.6c0-6.4 0-12.8-6.4-19.2-6.4-12.8-25.6-19.2-38.4-6.4-25.6 19.2-51.2 32-83.2 32s-57.6-12.8-83.2-32c-12.8-12.8-32-6.4-38.4 6.4s-6.4 38.4 6.4 44.8c32 32 76.8 44.8 115.2 44.8s83.2-12.8 115.2-44.8c6.4-6.4 12.8-12.8 12.8-25.6zM960 256v-192h-896v192h896zM960 320h-896c-38.4 0-64-25.6-64-64v-192c0-38.4 25.6-64 64-64h896c38.4 0 64 25.6 64 64v192c0 38.4-25.6 64-64 64v0z" />
<glyph unicode="&#xe96e;" glyph-name="Icon_Scan" data-tags="Icon_Scan" horiz-adv-x="960" d="M0 512h960v-128h-960v128zM960-64h-256v64h192v192h64zM256-64h-256v256h64v-192h192zM64 704h-64v256h256v-64h-192zM960 704h-64v192h-192v64h256z" />
<glyph unicode="&#xe96f;" glyph-name="Icon_Scan_outline" data-tags="Icon_Scan_outline" horiz-adv-x="960" d="M0 512h960v-128h-960v128zM960-64h-256v64h192v192h64zM256-64h-256v256h64v-192h192zM64 704h-64v256h256v-64h-192zM960 704h-64v192h-192v64h256z" />
<glyph unicode="&#xe970;" glyph-name="Icon_Signalstrength" data-tags="Icon_Signalstrength" d="M989.867-64h-136.533v955.733c0 37.547 30.72 68.267 68.267 68.267v0c37.547 0 68.267-30.72 68.267-68.267v-955.733zM716.8-64h-136.533v682.667c0 37.547 30.72 68.267 68.267 68.267v0c37.547 0 68.267-30.72 68.267-68.267v-682.667zM443.733-64h-136.533v409.6c0 37.547 30.72 68.267 68.267 68.267v0c37.547 0 68.267-30.72 68.267-68.267v-409.6zM170.667-64h-136.533v136.533c0 37.547 30.72 68.267 68.267 68.267v0c37.547 0 68.267-30.72 68.267-68.267v-136.533z" />
<glyph unicode="&#xe971;" glyph-name="Icon_Signalstrength_outline" data-tags="Icon_Signalstrength_outline" d="M989.867-64h-136.533v955.733c0 40.96 27.307 68.267 68.267 68.267v0c40.96 0 68.267-27.307 68.267-68.267v-955.733zM716.8-64h-136.533v682.667c0 40.96 27.307 68.267 68.267 68.267v0c40.96 0 68.267-27.307 68.267-68.267v-682.667zM443.733-64h-136.533v409.6c0 40.96 27.307 68.267 68.267 68.267v0c40.96 0 68.267-27.307 68.267-68.267v-409.6zM170.667-64h-136.533v136.533c0 40.96 27.307 68.267 68.267 68.267v0c34.133 0 68.267-27.307 68.267-68.267v-136.533z" />
<glyph unicode="&#xe972;" glyph-name="Icon_Simcard" data-tags="Icon_Simcard" d="M0 736v-376.96c0-17.92 7.68-35.2 20.48-47.36l217.6-199.040c12.16-10.88 27.52-16.64 43.52-16.64h678.4c35.2 0 64 28.8 64 64v576c0 35.2-28.8 64-64 64h-896c-35.2 0-64-28.8-64-64zM448 672h192v-128h-192v128zM448 480h192v-256h-192v256zM896 224h-192v128h192v-128zM896 416h-192v256h192v-256z" />
<glyph unicode="&#xe973;" glyph-name="Icon_Simcard_outline" data-tags="Icon_Simcard_outline" d="M448 672h192v-128h-192v128zM448 480h192v-256h-192v256zM896 224h-192v128h192v-128zM896 416h-192v256h192v-256zM960 736v-576h-678.4l-217.6 198.4v377.6h896zM960 800h-896c-38.4 0-64-25.6-64-64v-377.6c0-19.2 6.4-38.4 19.2-44.8l217.6-198.4c12.8-12.8 32-19.2 44.8-19.2h678.4c38.4 0 64 25.6 64 64v576c0 38.4-25.6 64-64 64v0z" />
<glyph unicode="&#xe974;" glyph-name="Icon_Status" data-tags="Icon_Status" d="M512-64c-282.24 0-512 229.76-512 512s229.76 512 512 512v-128c-211.84 0-384-172.16-384-384s172.16-384 384-384v-128zM593.92 823.040c-26.88 5.76-54.4 8.96-81.92 8.96v128c36.48 0 73.6-3.84 108.8-11.52l-26.88-125.44zM803.2 26.88l-72.96 104.96c40.96 28.16 75.52 64 103.040 105.6l106.88-69.76c-35.84-55.040-81.92-103.040-136.96-140.8zM1014.4 350.72l-125.44 24.32c4.48 23.68 7.040 48 7.040 72.96s-2.56 49.92-7.040 74.88l125.44 24.96c6.4-33.28 9.6-66.56 9.6-99.84 0-32.64-3.2-65.92-9.6-97.28zM832.64 659.2c-27.52 41.6-62.080 77.44-103.68 105.6l72.32 105.6c55.040-37.76 101.12-85.12 137.6-140.8l-106.24-70.4zM512-64v128c27.52 0 55.040 3.2 81.92 8.96l26.88-125.44c-35.2-7.68-72.32-11.52-108.8-11.52zM447.36 224c-17.28 0-33.28 7.040-45.44 18.56l-113.92 114.56c-24.96 25.6-24.96 65.92 0 90.88v0c24.96 24.96 65.28 24.96 90.24 0l63.36-64 172.8 214.4c21.76 27.52 62.080 31.36 89.6 9.6v0c27.52-22.4 32-62.72 9.6-90.24l-216.96-270.080c-11.52-14.080-28.16-23.040-46.72-23.68-0.64 0-1.92 0-2.56 0z" />
<glyph unicode="&#xe975;" glyph-name="Icon_Status_outline" data-tags="Icon_Status_outline" d="M512 32c-230.4 0-416 185.6-416 416s185.6 416 416 416v-64c-192 0-352-160-352-352s160-352 352-352v-64zM588.8 793.6c-25.6 6.4-51.2 6.4-76.8 6.4v64c25.6 0 64 0 89.6-6.4l-12.8-64zM748.8 108.8l-38.4 51.2c32 25.6 70.4 57.6 96 96l51.2-38.4c-25.6-38.4-70.4-83.2-108.8-108.8zM921.6 364.8l-57.6 19.2c6.4 12.8 6.4 38.4 6.4 57.6 0 25.6 0 44.8-6.4 70.4l64 12.8c6.4-32 6.4-57.6 6.4-83.2-6.4-19.2-6.4-51.2-12.8-76.8zM806.4 646.4c-25.6 38.4-57.6 70.4-96 102.4l38.4 51.2c38.4-32 83.2-70.4 108.8-115.2l-51.2-38.4zM512 32v64c12.8 0 25.6 0 38.4 0s32 6.4 44.8 6.4v-64c-12.8 0-25.6 0-38.4 0-12.8-6.4-32-6.4-44.8-6.4zM435.2 262.4c-6.4 0-19.2 6.4-25.6 6.4l-128 128c-6.4 12.8-6.4 38.4 0 51.2s38.4 6.4 51.2 0l102.4-102.4 224 275.2c12.8 12.8 32 12.8 44.8 6.4 12.8-12.8 12.8-32 6.4-44.8l-249.6-300.8c-6.4-12.8-12.8-19.2-25.6-19.2 0 0 0 0 0 0z" />
<glyph unicode="&#xe976;" glyph-name="Icon_Surveillance" data-tags="Icon_Surveillance" d="M0 544h64v-448h-64v448zM192 672h576v-192h-576v192zM831.36 608h-672.64c-17.28 0-30.72 12.8-30.72 28.8v134.4c0 16 13.44 28.8 30.72 28.8h865.28l-192.64-192zM384 288h-320v64h256v256h64z" />
<glyph unicode="&#xe977;" glyph-name="Icon_Surveillance_outline" data-tags="Icon_Surveillance_outline" d="M0 544h64v-448h-64v448zM704 608v-64h-448v64h448zM768 672h-576v-192h576v192zM870.4 736l-64-64h-614.4v64h678.4zM1024 800h-864c-19.2 0-32-12.8-32-25.6v-134.4c0-19.2 12.8-32 32-32h672l192 192zM384 288h-320v64h256v192h64z" />
<glyph unicode="&#xe978;" glyph-name="Icon_Unlimited" data-tags="Icon_Unlimited" horiz-adv-x="975" d="M322.847 249.604h-132.044c-18.486 0-33.011 14.525-33.011 33.011v363.121h198.066v-363.121c0-17.826-15.185-33.011-33.011-33.011zM652.957 645.736h132.044c18.486 0 33.011-14.525 33.011-33.011v-363.121h-198.066v363.121c0 18.486 14.525 33.011 33.011 33.011zM232.397 948.776l-223.814-247.582c-19.146-21.127-3.961-55.458 24.428-55.458h446.968c28.389 0 43.574 33.671 24.428 54.798l-223.154 248.242c-13.204 15.185-36.312 15.185-48.856 0zM743.407-53.436l223.814 248.242c19.146 21.127 3.961 54.798-24.428 54.798h-447.629c-28.389 0-43.574-33.671-24.428-54.798l223.814-248.242c12.544-14.525 35.652-14.525 48.856 0z" />
<glyph unicode="&#xe979;" glyph-name="Icon_Unlimited_outline" data-tags="Icon_Unlimited_outline" horiz-adv-x="978" d="M257.652 874.116l151.948-165.161h-118.916v-396.387h-66.065v396.387h-118.916l151.948 165.161zM257.652 960c-6.606 0-19.819-6.606-26.426-13.213l-224.619-244.439c-19.819-19.819-6.606-52.852 26.426-52.852h125.523v-363.355c0-19.819 13.213-33.032 33.032-33.032h132.129c19.819 0 33.032 13.213 33.032 33.032v356.748h125.523c26.426 0 46.245 33.032 26.426 52.852l-224.619 251.045c-6.606 6.606-19.819 13.213-26.426 13.213v0zM753.135 576.826v-396.387h118.916l-151.948-165.161-151.948 165.161h118.916v396.387h66.065zM786.168 642.89h-132.129c-19.819 0-33.032-13.213-33.032-33.032v-363.355h-125.523c-26.426 0-46.245-33.032-26.426-52.852l224.619-251.045c6.606-6.606 13.213-13.213 26.426-13.213 6.606 0 19.819 6.606 26.426 13.213l224.619 251.045c19.819 19.819 6.606 52.852-26.426 52.852h-125.523v363.355c0 19.819-13.213 33.032-33.032 33.032v0z" />
<glyph unicode="&#xe97a;" glyph-name="Icon_Barcode" data-tags="Icon_Barcode" horiz-adv-x="960" d="M960-64h-256v64h192v192h64v-256zM256-64h-256v256h64v-192h192v-64zM64 704h-64v256h256v-64h-192v-192zM960 704h-64v192h-192v64h256v-256zM128 704h128v-512h-128v512zM320 704h64v-512h-64v512zM448 704h64v-512h-64v512zM576 704h128v-512h-128v512zM768 704h64v-512h-64v512z" />
<glyph unicode="&#xe97b;" glyph-name="Icon_Barcode_outline" data-tags="Icon_Barcode_outline" horiz-adv-x="960" d="M960-64h-256v64h192v192h64v-256zM256-64h-256v256h64v-192h192v-64zM64 704h-64v256h256v-64h-192v-192zM960 704h-64v192h-192v64h256v-256zM185.6 166.4c-19.2 0-32 12.8-32 32v499.2c0 19.2 12.8 32 32 32s32-12.8 32-32v-499.2c0-19.2-12.8-32-32-32zM345.6 166.4c-19.2 0-32 12.8-32 32v499.2c0 19.2 12.8 32 32 32s32-12.8 32-32v-499.2c0-19.2-12.8-32-32-32zM460.8 166.4c-19.2 0-32 12.8-32 32v499.2c0 19.2 12.8 32 32 32s32-12.8 32-32v-499.2c0-19.2-12.8-32-32-32zM646.4 166.4c-19.2 0-32 12.8-32 32v492.8c0 19.2 12.8 32 32 32s32-12.8 32-32v-492.8c0-19.2-12.8-32-32-32zM793.6 166.4c-19.2 0-32 12.8-32 32v492.8c0 19.2 12.8 32 32 32s32-12.8 32-32v-492.8c0-19.2-12.8-32-32-32z" />
<glyph unicode="&#xe97c;" glyph-name="Icon_Dress_outline" data-tags="Icon_Dress_outline" horiz-adv-x="768" d="M576 435.2v153.6l128 134.4c-38.4 32-83.2 44.8-128 44.8v192h-64v-204.8c-32-6.4-57.6-25.6-76.8-51.2-19.2-19.2-32-38.4-38.4-64h-25.6c-6.4 25.6-19.2 44.8-38.4 64-19.2 25.6-44.8 44.8-76.8 51.2v204.8h-64v-192c0 0-6.4 0-6.4 0-38.4 0-83.2-12.8-121.6-44.8l128-140.8v-147.2c-115.2-96-192-262.4-192-422.4 0-25.6 0-76.8 0-76.8h768c0 0 0 51.2 0 76.8 0 160-76.8 332.8-192 422.4zM704 0h-640v12.8c0 140.8 70.4 294.4 166.4 371.2l25.6 25.6v198.4l-19.2 19.2-64 76.8c6.4 0 12.8 0 19.2 0 38.4 0 70.4-12.8 96-44.8 12.8-12.8 19.2-25.6 25.6-44.8l12.8-38.4h115.2l12.8 44.8c6.4 19.2 12.8 32 25.6 44.8 25.6 25.6 57.6 38.4 96 38.4 6.4 0 12.8 0 19.2 0l-64-70.4-19.2-19.2v-211.2l25.6-19.2c102.4-83.2 166.4-230.4 166.4-371.2v-12.8z" />
<glyph unicode="&#xe97d;" glyph-name="Icon_Customersupport" data-tags="Icon_Customersupport" horiz-adv-x="960" d="M896 428.8v147.2c0 211.2-172.8 384-384 384h-64c-211.2 0-384-172.8-384-384v-147.2c-38.4-19.2-64-64-64-108.8 0-70.4 57.6-128 128-128 0-32 32-64 64-64s64 32 64 64v256c0 32-32 64-64 64s-64-32-64-64v128c0 179.2 140.8 320 320 320h64c179.2 0 320-140.8 320-320v-128c0 32-32 64-64 64s-64-32-64-64v-256c0-25.6 12.8-44.8 38.4-57.6-19.2-44.8-64-121.6-166.4-153.6 0 6.4 0 12.8 0 19.2 0 32-32 64-64 64h-64c-32 0-64-32-64-64s32-64 64-64h64c6.4 0 19.2 0 25.6 6.4 153.6 25.6 211.2 134.4 236.8 185.6 32 0 57.6 32 57.6 64 70.4 0 128 57.6 128 128 0 44.8-25.6 89.6-64 108.8z" />
<glyph unicode="&#xe97e;" glyph-name="Icon_Calculator" data-tags="Icon_Calculator" horiz-adv-x="768" d="M0 896v-896c0-35.2 28.8-64 64-64h640c35.2 0 64 28.8 64 64v896c0 35.2-28.8 64-64 64h-640c-35.2 0-64-28.8-64-64zM256 64h-128v128h128v-128zM256 256h-128v128h128v-128zM256 448h-128v128h128v-128zM448 64h-128v128h128v-128zM448 256h-128v128h128v-128zM448 448h-128v128h128v-128zM640 64h-128v320h128v-320zM640 448h-128v128h128v-128zM640 704h-512v128h512v-128z" />
<glyph unicode="&#xe97f;" glyph-name="Icon_Calculator_outline" data-tags="Icon_Calculator_outline" horiz-adv-x="768" d="M192 64v0c-38.4 0-64 25.6-64 64v0c0 38.4 25.6 64 64 64v0c38.4 0 64-25.6 64-64v0c0-38.4-25.6-64-64-64zM192 256v0c-38.4 0-64 25.6-64 64v0c0 38.4 25.6 64 64 64v0c38.4 0 64-25.6 64-64v0c0-38.4-25.6-64-64-64zM192 448v0c-38.4 0-64 25.6-64 64v0c0 38.4 25.6 64 64 64v0c38.4 0 64-25.6 64-64v0c0-38.4-25.6-64-64-64zM384 64v0c-38.4 0-64 25.6-64 64v0c0 38.4 25.6 64 64 64v0c38.4 0 64-25.6 64-64v0c0-38.4-25.6-64-64-64zM384 256v0c-38.4 0-64 25.6-64 64v0c0 38.4 25.6 64 64 64v0c38.4 0 64-25.6 64-64v0c0-38.4-25.6-64-64-64zM384 448v0c-38.4 0-64 25.6-64 64v0c0 38.4 25.6 64 64 64v0c38.4 0 64-25.6 64-64v0c0-38.4-25.6-64-64-64zM576 64v0c-38.4 0-64 25.6-64 64v192c0 38.4 25.6 64 64 64v0c38.4 0 64-25.6 64-64v-192c0-38.4-25.6-64-64-64zM576 448v0c-38.4 0-64 25.6-64 64v0c0 38.4 25.6 64 64 64v0c38.4 0 64-25.6 64-64v0c0-38.4-25.6-64-64-64zM576 704h-384c-38.4 0-64 25.6-64 64v0c0 38.4 25.6 64 64 64h384c38.4 0 64-25.6 64-64v0c0-38.4-25.6-64-64-64zM704 896v-896h-640v896h640zM704 960h-640c-38.4 0-64-25.6-64-64v-896c0-38.4 25.6-64 64-64h640c38.4 0 64 25.6 64 64v896c0 38.4-25.6 64-64 64v0z" />
<glyph unicode="&#xe980;" glyph-name="Icon_Cards" data-tags="Icon_Cards" d="M273.067 72.533h682.667c37.547 0 68.267 30.72 68.267 68.267v273.067h-819.2v-273.067c0-37.547 30.72-68.267 68.267-68.267zM819.2 277.333h136.533v-136.533h-136.533v136.533zM955.733 618.667h-682.667c-37.547 0-68.267-30.72-68.267-68.267v-68.267h819.2v68.267c0 37.547-30.72 68.267-68.267 68.267zM819.2 686.933h-750.933v136.533h682.667c37.547 0 68.267-30.72 68.267-68.267v-68.267zM136.533 277.333h-68.267c-37.547 0-68.267 30.72-68.267 68.267v409.6c0 37.547 30.72 68.267 68.267 68.267h68.267v-546.133z" />
<glyph unicode="&#xe981;" glyph-name="Icon_Cards_outline" data-tags="Icon_Cards_outline" d="M955.733 345.6v-204.8h-682.667v204.8h682.667zM955.733 618.667h-682.667c-34.133 0-68.267-27.307-68.267-68.267v-68.267h819.2v68.267c0 40.96-27.307 68.267-68.267 68.267v0zM1024 413.867h-819.2v-273.067c0-40.96 34.133-68.267 68.267-68.267h682.667c40.96 0 68.267 27.307 68.267 68.267v273.067zM68.267 755.2v0zM750.933 823.467h-682.667c-34.133 0-68.267-34.133-68.267-68.267v-409.6c0-34.133 34.133-68.267 68.267-68.267h68.267v409.6h682.667v68.267c0 34.133-34.133 68.267-68.267 68.267v0zM887.467 277.333h-68.267v-68.267h68.267v68.267z" />
<glyph unicode="&#xe982;" glyph-name="Icon_Customersupport_outline" data-tags="Icon_Customersupport_outline" horiz-adv-x="960" d="M896 428.8v147.2c0 211.2-172.8 384-384 384h-64c-211.2 0-384-172.8-384-384v-147.2c-38.4-19.2-64-64-64-108.8 0-70.4 57.6-128 128-128 0-32 32-64 64-64s64 32 64 64v256c0 32-32 64-64 64s-64-32-64-64v128c0 179.2 140.8 320 320 320h64c179.2 0 320-140.8 320-320v-128c0 32-32 64-64 64s-64-32-64-64v-256c0-19.2 12.8-44.8 38.4-57.6-19.2-44.8-64-121.6-166.4-153.6 0 6.4 0 12.8 0 19.2 0 38.4-25.6 64-64 64h-64c-38.4 0-64-25.6-64-64s25.6-64 64-64h64c12.8 0 19.2 0 25.6 6.4 147.2 25.6 211.2 134.4 230.4 185.6 32 0 57.6 32 57.6 64 70.4 0 128 57.6 128 128 6.4 44.8-19.2 89.6-57.6 108.8zM192 384v-128h-64c-38.4 0-64 25.6-64 64s25.6 64 64 64h64zM832 256h-64v128h64c38.4 0 64-25.6 64-64s-25.6-64-64-64z" />
<glyph unicode="&#xe983;" glyph-name="Icon_Bill" data-tags="Icon_Bill" d="M960 512h-192v384c0 32-32 64-64 64h-640c-32 0-64-32-64-64v-704c0-140.8 115.2-256 256-256h512c0 0 0 0 0 0h96c89.6 0 160 70.4 160 160v352c0 32-32 64-64 64zM448 192h-256v64h256v-64zM576 448h-384v64h384v-64zM576 704h-384v64h384v-64zM960 96c0-51.2-44.8-96-96-96h-96v448h192v-352z" />
<glyph unicode="&#xe984;" glyph-name="Icon_Delivery" data-tags="Icon_Delivery" d="M0 768h704v-512h-704v512zM704 704h81.28c27.52 0 51.84-17.28 60.8-43.52l49.92-148.48h64c35.2 0 64-28.8 64-64v-192h-320v448zM256 224c0-53.019-42.981-96-96-96s-96 42.981-96 96c0 53.019 42.981 96 96 96s96-42.981 96-96zM896 224c0-53.019-42.981-96-96-96s-96 42.981-96 96c0 53.019 42.981 96 96 96s96-42.981 96-96z" />
<glyph unicode="&#xe985;" d="M640 704v-384h-576v384h576zM704 768h-704v-512h704v512z" />
<glyph unicode="&#xe986;" d="M704 704h83.2c25.6 0 51.2-19.2 57.6-44.8l51.2-147.2h64c38.4 0 64-25.6 64-64v-192h-320v448z" />
<glyph unicode="&#xe987;" d="M256 224c0-53.019-42.981-96-96-96s-96 42.981-96 96c0 53.019 42.981 96 96 96s96-42.981 96-96z" />
<glyph unicode="&#xe988;" d="M160 256c19.2 0 32-12.8 32-32s-12.8-32-32-32-32 12.8-32 32 12.8 32 32 32zM160 320c-51.2 0-96-44.8-96-96s44.8-96 96-96 96 44.8 96 96-44.8 96-96 96v0z" />
<glyph unicode="&#xe989;" d="M896 224c0-53.019-42.981-96-96-96s-96 42.981-96 96c0 53.019 42.981 96 96 96s96-42.981 96-96z" />
<glyph unicode="&#xe98a;" d="M704 640v-128h147.2l-51.2 128z" />
<glyph unicode="&#xe98b;" glyph-name="Icon_Bill_outline" data-tags="Icon_Bill_outline" d="M768 512h192c38.4 0 64-25.6 64-64v-352c0-89.6-70.4-160-160-160h-96zM768 448v-448h96c51.2 0 96 44.8 96 96v352h-192zM448 192h-256v64h256v-64zM576 448h-384v64h384v-64zM576 704h-384v64h384v-64zM704 896v-896h-441.6c-108.8 0-198.4 89.6-198.4 198.4v697.6h640zM704 960h-640c-38.4 0-64-25.6-64-64v-697.6c0-147.2 115.2-262.4 262.4-262.4h505.6v960c0 38.4-25.6 64-64 64v0z" />
<glyph unicode="&#xe98c;" glyph-name="Icon_Readinglight" data-tags="Icon_Readinglight" d="M832 697.6c-19.2 147.2-140.8 262.4-288 262.4h-64c-160 0-288-128-288-288v-608h-128c-38.4 0-64-25.6-64-64s25.6-64 64-64h320c38.4 0 64 25.6 64 64s-25.6 64-64 64h-128v608c0 121.6 102.4 224 224 224h64c115.2 0 204.8-89.6 224-198.4-96-19.2-179.2-115.2-192-230.4 0-6.4 12.8-19.2 19.2-19.2h115.2c-6.4-12.8-6.4-19.2-6.4-32 0-51.2 44.8-96 96-96s96 44.8 96 96c0 12.8 0 19.2-6.4 32h115.2c6.4 0 19.2 12.8 19.2 19.2-12.8 115.2-96 217.6-192 230.4z" />
<glyph unicode="&#xe98d;" glyph-name="Icon_Elevator" data-tags="Icon_Elevator" d="M192 192h-128c-35.2 0-64-28.8-64-64v-192h320l-128 256zM832 448h128c35.2 0 64 28.8 64 64v128c0 35.2-28.8 64-64 64h-256l128-256zM192.64 192l512 512 128-256-512-512zM448.64 832c0-70.692-57.308-128-128-128s-128 57.308-128 128c0 70.692 57.308 128 128 128s128-57.308 128-128zM384 192h-192v384c0 35.2 28.8 64 64 64h64c35.2 0 64-28.8 64-64v-384z" />
<glyph unicode="&#xe98e;" glyph-name="Icon_Elevator_outline" data-tags="Icon_Elevator_outline" d="M448 832c0-70.692-57.308-128-128-128s-128 57.308-128 128c0 70.692 57.308 128 128 128s128-57.308 128-128zM384 192l-192-192v576c0 38.4 32 64 64 64h64c38.4 0 64-25.6 64-64v-384zM230.4 0h-224c-19.2 0-32 12.8-32 32s12.8 32 32 32h211.2l544 550.4c6.4 6.4 12.8 6.4 25.6 6.4h224c19.2 0 32-12.8 32-32s-19.2-32-38.4-32h-211.2l-537.6-550.4c-6.4 0-19.2-6.4-25.6-6.4z" />
<glyph unicode="&#xe98f;" glyph-name="Icon_Dish" data-tags="Icon_Dish" horiz-adv-x="819" d="M150.187 222.72c6.827-6.827 20.48-13.653 27.307-20.48l-177.493-266.24h546.133l-129.707 191.147c116.053 0 232.107 47.787 307.2 143.36l-628.053 532.48c-143.36-177.493-122.88-430.080 54.613-580.267zM709.973 850.773c-68.267 68.267-157.013 109.227-252.587 109.227-20.48 0-34.133-13.653-34.133-34.133s13.653-34.133 34.133-34.133c81.92 0 150.187-34.133 204.8-88.747 61.44-61.44 88.747-143.36 88.747-225.28 0-20.48 13.653-34.133 34.133-34.133 13.653 0 20.48 6.827 27.307 6.827 0 6.827 6.827 13.653 6.827 27.307 0 102.4-34.133 204.8-109.227 273.067zM436.907 693.76c34.133 0 68.267-13.653 88.747-40.96 20.48-20.48 34.133-54.613 40.96-88.747 0-13.653 13.653-27.307 34.133-20.48 6.827 0 13.653 6.827 13.653 6.827 6.827 6.827 13.653 20.48 13.653 27.307-6.827 54.613-27.307 95.573-54.613 122.88-34.133 34.133-75.093 54.613-122.88 54.613-13.653 0-34.133-6.827-40.96-27.307 0-20.48 6.827-34.133 27.307-34.133z" />
<glyph unicode="&#xe991;" glyph-name="Icon_Gift" data-tags="Icon_Gift" d="M1024 640v-128c0-35.2-28.8-64-64-64h-384v192h-128v-192h-384c-35.2 0-64 28.8-64 64v128c0 35.2 28.8 64 64 64h896c35.2 0 64-28.8 64-64zM798.72 926.72c-45.44 45.44-138.24 49.92-209.92-21.76-32-32-57.6-77.44-69.76-124.16-3.84-16.64-6.4-32.64-6.4-46.72-0.64-1.92-0.64-3.2-0.64-4.48 0 1.28 0 2.56-0.64 4.48 0 14.080-2.56 30.080-6.4 46.72-12.16 46.72-37.76 92.16-69.76 124.16-71.68 71.68-164.48 67.2-209.92 21.76-44.8-44.8-51.2-128.64 22.4-202.88 32.64-32 76.8-58.88 121.6-73.6 21.12-7.040 40.96-10.24 58.88-10.24 25.6 0 46.080 7.040 60.8 21.76 2.56 2.56 4.48 4.48 6.4 7.68h33.28c1.92-3.2 3.84-5.12 6.4-7.68 14.72-14.72 35.2-21.76 60.8-21.76 17.92 0 37.76 3.2 58.88 10.88 45.44 14.080 89.6 40.96 121.6 73.6 73.6 73.6 67.2 157.44 22.4 202.24zM442.88 708.48c-13.44-10.88-94.080 7.040-149.12 62.080-42.88 43.52-43.52 87.68-22.4 110.080 8.32 8.32 23.040 14.080 40.32 14.080 23.040 0 51.2-10.24 77.44-36.48 55.040-55.68 65.28-137.6 53.76-149.76zM729.6 770.56c-54.4-54.4-135.040-72.32-148.48-62.080-11.52 12.16-1.28 94.080 53.76 149.76 26.24 26.24 54.4 36.48 76.8 35.84 17.28 0 32-5.12 40.32-14.080 21.76-21.76 20.48-65.92-22.4-109.44zM896 384v-384c0-35.2-28.8-64-64-64h-640c-35.2 0-64 28.8-64 64v384h320v-384h128v384h320zM512.64 734.080c-0.64-1.92-0.64-3.2-0.64-4.48 0 1.28 0 2.56-0.64 4.48h1.28z" />
<glyph unicode="&#xe992;" glyph-name="Icon_Gift_outline" data-tags="Icon_Gift_outline" d="M960 640v-128h-320v128h320zM384 640v-128h-320v128h320zM960 704h-896c-38.4 0-64-25.6-64-64v-128c0-38.4 25.6-64 64-64h384v192h128v-192h384c38.4 0 64 25.6 64 64v128c0 38.4-25.6 64-64 64v0zM800 928c-44.8 44.8-140.8 51.2-211.2-19.2-32-38.4-57.6-83.2-70.4-128-6.4-19.2-6.4-32-6.4-44.8 0 0 0 0 0-6.4 0 0 0 0 0 6.4 0 12.8 0 32-6.4 44.8-12.8 44.8-38.4 89.6-70.4 121.6-70.4 70.4-166.4 64-211.2 19.2s-51.2-128 19.2-204.8c32-32 76.8-57.6 121.6-76.8 25.6 6.4 44.8 0 64 0 25.6 0 44.8 6.4 57.6 19.2 0 0 6.4 6.4 6.4 6.4h32c0-6.4 6.4-6.4 6.4-6.4 19.2-12.8 38.4-19.2 64-19.2 19.2 0 38.4 6.4 57.6 12.8 44.8 12.8 89.6 38.4 121.6 76.8 76.8 70.4 70.4 153.6 25.6 198.4zM441.6 710.4c-12.8-12.8-96 6.4-147.2 57.6-44.8 44.8-44.8 89.6-25.6 115.2 12.8 6.4 25.6 12.8 44.8 12.8 25.6 0 51.2-12.8 76.8-38.4 51.2-57.6 64-134.4 51.2-147.2zM729.6 768c-57.6-51.2-134.4-70.4-147.2-64-12.8 12.8 0 96 51.2 147.2 25.6 32 57.6 44.8 76.8 44.8s32-6.4 38.4-12.8c25.6-25.6 25.6-70.4-19.2-115.2zM832 320v-320h-192v320h192zM384 320v-320h-192v320h192zM896 384h-320v-384h-128v384h-320v-384c0-38.4 32-64 64-64h640c38.4 0 64 25.6 64 64v384zM512 736c0-6.4 0-6.4 0 0 0-6.4 0-6.4 0 0v0z" />
<glyph unicode="&#xe993;" glyph-name="Icon_Money" data-tags="Icon_Money" d="M1024 128h-1024v640h1024v-640zM64 192h896v512h-896v-512zM192 704c-10.24-65.92-62.080-117.76-128-128v128h128zM192 192c-10.24 65.92-62.080 117.76-128 128v-128h128zM832 704c10.24-65.92 62.080-117.76 128-128v128h-128zM832 192c10.24 65.92 62.080 117.76 128 128v-128h-128zM640 448c0-106.039-57.308-192-128-192s-128 85.961-128 192c0 106.039 57.308 192 128 192s128-85.961 128-192z" />
<glyph unicode="&#xe994;" glyph-name="Icon_Money_outline" data-tags="Icon_Money_outline" d="M960 704v-512h-896v512h896zM1024 768h-1024v-640h1024v640zM32 537.6v198.4h198.4l-6.4-38.4c-12.8-76.8-76.8-140.8-153.6-153.6l-38.4-6.4zM96 672v-51.2c19.2 12.8 38.4 32 51.2 51.2h-51.2zM230.4 160h-198.4v198.4l38.4-6.4c76.8-12.8 140.8-76.8 153.6-153.6l6.4-38.4zM96 224h51.2c-12.8 19.2-32 38.4-51.2 51.2v-51.2zM992 537.6l-38.4 6.4c-76.8 12.8-140.8 76.8-153.6 153.6l-6.4 38.4h198.4v-198.4zM876.8 672c12.8-19.2 32-38.4 51.2-51.2v51.2h-51.2zM992 160h-198.4l6.4 38.4c12.8 76.8 76.8 140.8 153.6 153.6l38.4 6.4v-198.4zM876.8 224h51.2v51.2c-19.2-12.8-38.4-32-51.2-51.2zM512 224c-89.6 0-160 96-160 224s70.4 224 160 224c89.6 0 160-96 160-224s-70.4-224-160-224zM512 608c-51.2 0-96-70.4-96-160s44.8-160 96-160 96 70.4 96 160c0 89.6-44.8 160-96 160z" />
<glyph unicode="&#xe995;" glyph-name="Icon_Offer" data-tags="Icon_Offer" d="M1013.76 466.56l-129.92 81.28 71.68 135.68c7.68 14.080-1.92 30.72-17.92 31.36l-153.6 5.76-5.12 152.96c-0.64 16-17.92 25.6-32 18.56l-135.040-71.68-81.28 129.28c-8.96 13.44-28.16 13.44-37.12 0l-81.28-129.28-135.040 71.68c-14.080 7.040-31.36-2.56-32-18.56l-5.76-152.96-152.96-5.76c-16-0.64-25.6-17.28-17.92-31.36l71.68-135.68-129.92-81.28c-13.44-8.32-13.44-28.16 0-36.48l129.92-81.28-71.68-135.68c-7.68-14.080 1.92-31.36 17.92-31.36l150.4-5.76c0.64-1.28 1.92-2.56 3.2-3.84l5.12-149.12c0.64-16 17.92-26.24 32-18.56l130.56 69.12c2.56-0.64 5.12-0.64 7.040-1.28l78.72-126.080c8.96-13.44 28.16-13.44 37.12 0l78.72 126.080c1.92 0.64 4.48 0.64 7.040 1.28l130.56-69.12c14.080-7.68 31.36 2.56 32 18.56l5.12 149.12c1.28 1.28 2.56 2.56 3.2 3.84l150.4 5.76c16 0 25.6 17.28 17.92 31.36l-71.68 135.68 129.92 81.28c13.44 8.32 13.44 28.16 0 36.48zM270.72 659.2c28.8 44.8 87.68 58.24 132.48 30.080 44.8-28.8 58.24-87.68 30.080-132.48-28.8-44.8-87.68-58.24-132.48-30.080-44.8 28.8-58.24 87.68-30.080 132.48zM365.44 194.56l-47.36 44.16 332.16 465.28 53.76-35.2-338.56-474.24zM753.28 236.8c-28.8-44.8-87.68-58.24-132.48-30.080-44.8 28.8-58.24 87.68-30.080 132.48 28.8 44.8 87.68 58.24 132.48 30.080 44.8-28.8 58.24-87.68 30.080-132.48z" />
<glyph unicode="&#xe996;" glyph-name="Icon_Offer_outline" data-tags="Icon_Offer_outline" d="M332.8 601.6c19.2 32 64 44.8 96 19.2 32-19.2 44.8-64 19.2-96-19.2-32-64-44.8-96-19.2-32 19.2-38.4 64-19.2 96zM403.2 262.4l-32 32 243.2 345.6 38.4-25.6-249.6-352zM691.2 294.4c-19.2-32-64-44.8-96-19.2-32 19.2-44.8 64-19.2 96 19.2 32 64 44.8 96 19.2 32-19.2 38.4-64 19.2-96zM512 857.6l44.8-70.4 32-51.2 128 64v-140.8h57.6l83.2-6.4-32-76.8-25.6-51.2 51.2-32 70.4-44.8-70.4-44.8-51.2-32 64-128h-121.6l-12.8-25.6-12.8-12.8v-108.8l-70.4 32-19.2 12.8-19.2-6.4c-6.4 0-12.8 0-12.8-6.4h-25.6l-12.8-19.2-44.8-70.4-44.8 70.4-12.8 19.2-19.2 6.4c-6.4 0-6.4 0-12.8 6.4l-19.2 6.4-25.6-19.2-70.4-38.4v108.8l-12.8 12.8-12.8 25.6h-121.6l38.4 83.2 25.6 51.2-51.2 32-70.4 44.8 70.4 44.8 51.2 32-25.6 51.2-44.8 76.8 83.2 6.4h57.6v57.6l6.4 83.2 83.2-38.4 51.2-25.6 32 51.2 44.8 70.4zM512 960c-6.4 0-12.8-6.4-19.2-12.8l-83.2-128-134.4 70.4c0 6.4-6.4 6.4-6.4 6.4-12.8 0-25.6-12.8-25.6-25.6l-6.4-147.2-153.6-6.4c-12.8 0-25.6-19.2-19.2-32l70.4-134.4-128-83.2c-12.8-6.4-12.8-25.6 0-38.4l128-83.2-70.4-134.4c-6.4-12.8 0-32 19.2-32l147.2-6.4c0 0 0 0 0-6.4l6.4-147.2c6.4-6.4 19.2-19.2 32-19.2 6.4 0 6.4 0 12.8 0l128 70.4c0 0 6.4 0 6.4 0l76.8-128c6.4 0 12.8-6.4 19.2-6.4s12.8 6.4 19.2 12.8l76.8 128c0 0 6.4 0 6.4 0l128-70.4c6.4 0 6.4 0 12.8 0 12.8 0 19.2 6.4 19.2 19.2l6.4 147.2c0 0 0 0 0 6.4l153.6 6.4c12.8 0 25.6 19.2 19.2 32l-70.4 134.4 128 83.2c12.8 6.4 12.8 25.6 0 38.4l-128 83.2 70.4 134.4c6.4 12.8 0 32-19.2 32l-153.6 6.4-6.4 153.6c6.4 0-6.4 12.8-19.2 12.8-6.4 0-6.4 0-12.8 0l-128-76.8-83.2 128c-6.4 6.4-12.8 12.8-19.2 12.8v0z" />
<glyph unicode="&#xe999;" glyph-name="Icon_Shoppingbag" data-tags="Icon_Shoppingbag" d="M960 608h-173.44l-199.040 280.96c-37.12 51.84-113.92 51.84-151.040 0l-199.040-280.96h-173.44c-35.2 0-64-28.8-64-64v-64c0-35.2 28.8-64 64-64l114.56-401.28c7.68-27.52 32.64-46.72 61.44-46.72h544c28.16 0 53.12 19.2 61.44 46.72l114.56 401.28c35.2 0 64 28.8 64 64v64c0 35.2-28.8 64-64 64zM488.32 848c11.52 16 35.84 16 47.36 0l168.32-240h-384l168.32 240z" />
<glyph unicode="&#xe99a;" glyph-name="Icon_Shoppingbag_outline" data-tags="Icon_Shoppingbag_outline" d="M960 544v-64h-51.2l-128-448h-544l-108.8 403.2-12.8 44.8h-51.2v64h896zM512 928c-25.6 0-57.6-12.8-76.8-38.4l-198.4-281.6h-172.8c-38.4 0-64-25.6-64-64v-64c0-38.4 25.6-64 64-64l115.2-403.2c6.4-25.6 32-44.8 64-44.8h544c25.6 0 51.2 19.2 64 44.8l108.8 403.2c38.4 0 64 25.6 64 64v64c0 38.4-25.6 64-64 64h-172.8l-198.4 281.6c-19.2 25.6-51.2 38.4-76.8 38.4v0zM320 608l166.4 243.2c6.4 6.4 19.2 6.4 25.6 6.4s19.2-6.4 25.6-12.8l166.4-236.8h-384z" />
<glyph unicode="&#xe99b;" glyph-name="Icon_Tracking" data-tags="Icon_Tracking" d="M512 64c-211.84 0-384 172.16-384 384s172.16 384 384 384 384-172.16 384-384-172.16-384-384-384zM512 704c-141.44 0-256-114.56-256-256s114.56-256 256-256 256 114.56 256 256-114.56 256-256 256zM448 960h128v-192h-128v192zM448 128h128v-192h-128v192zM1024 512v-128h-192v128h192zM192 512v-128h-192v128h192z" />
<glyph unicode="&#xe99c;" glyph-name="Icon_Tracking_outline" data-tags="Icon_Tracking_outline" d="M512 32c-230.4 0-416 185.6-416 416s185.6 416 416 416 416-185.6 416-416-185.6-416-416-416zM512 800c-192 0-352-160-352-352s160-352 352-352c192 0 352 160 352 352s-160 352-352 352zM448 960h64v-192h-64v192zM448 128h64v-192h-64v192zM832 512h192v-64h-192v64zM0 512h192v-64h-192v64z" />
<glyph unicode="&#xe99d;" glyph-name="Icon_Wallet" data-tags="Icon_Wallet" d="M576 301.44v37.12c0 96 77.44 173.44 172.8 173.44h211.2v128c0 35.2-28.8 64-64 64h-17.28l-182.4 243.2c-8.96 12.8-25.6 16.64-39.68 9.6l-505.6-252.8h-87.040c-35.2 0-64-28.8-64-64v-640c0-35.2 28.8-64 64-64h832c35.2 0 64 28.8 64 64v128h-211.2c-95.36 0-172.8 77.44-172.8 173.44zM661.12 887.68l137.6-183.68h-503.68l366.080 183.68zM768 448c-70.4 0-128-57.6-128-128s57.6-128 128-128h256v256h-256z" />
<glyph unicode="&#xe99e;" glyph-name="Icon_Wallet_outline" data-tags="Icon_Wallet_outline" d="M896 640v-64h-147.2c-128 0-236.8-108.8-236.8-236.8v-38.4c0-128 108.8-236.8 236.8-236.8h147.2v-64h-832v640h832zM672 960c-6.4 0-12.8 0-12.8-6.4l-505.6-249.6h-89.6c-38.4 0-64-25.6-64-64v-640c0-38.4 25.6-64 64-64h832c38.4 0 64 25.6 64 64v128h-211.2c-96 0-172.8 76.8-172.8 172.8v38.4c0 96 76.8 172.8 172.8 172.8h211.2v128c0 38.4-25.6 64-64 64h-19.2l-179.2 243.2c-6.4 6.4-19.2 12.8-25.6 12.8v0zM294.4 704l364.8 185.6 140.8-185.6h-505.6zM1024 448h-256c-70.4 0-128-57.6-128-128s57.6-128 128-128h256v256z" />
<glyph unicode="&#xe99f;" glyph-name="Icon_Area" data-tags="Icon_Area" d="M0 896h768v-64h-768v64zM896 704h64v-768h-64v768zM0 704h768v-768h-768v768zM512 960h64v-192h-64v192zM832 512h192v-64h-192v64z" />
<glyph unicode="&#xe9a0;" glyph-name="Icon_Area_outline" data-tags="Icon_Area_outline" d="M0 896h768v-64h-768v64zM896 704h64v-768h-64v768zM704 640v-640h-640v640h640zM768 704h-768v-768h768v768zM512 960h64v-192h-64v192zM832 512h192v-64h-192v64z" />
<glyph unicode="&#xe9a1;" glyph-name="Icon_Areaplot" data-tags="Icon_Areaplot" d="M576 960h256v-1024h-256v1024zM0 768h576v-256h-576v256zM576 576h448v-192h-448v192zM0 448v-512h512v512h-512zM448 0h-384v384h384v-384z" />
<glyph unicode="&#xe9a2;" glyph-name="Icon_Areaplot_outline" data-tags="Icon_Areaplot_outline" d="M768 896v-384h192v-64h-192v-448h-128v576h-576v128h576v192h128zM832 960h-256v-192h-576v-256h576v-576h256v448h192v192h-192v384zM0 448v-512h512v512h-512zM448 0h-384v384h384v-384z" />
<glyph unicode="&#xe9a3;" glyph-name="Icon_Bathtub" data-tags="Icon_Bathtub" d="M256 160h64v-64h-64v64zM704 160h64v-64h-64v64zM64 736h64v-192h-64v192zM64 640v0c0 19.2 12.8 32 32 32h64c19.2 0 32-12.8 32-32v0c0-19.2-12.8-32-32-32h-64c-19.2 0-32 12.8-32 32zM832 160h-640c-106.24 0-192 85.76-192 192v192h1024v-192c0-106.24-85.76-192-192-192zM128 608h-64v192h192v-64h-128v-128zM256 800h64v-64h-64v64zM288 672v0c-19.2 0-32 12.8-32 32v32h64v-32c0-19.2-12.8-32-32-32z" />
<glyph unicode="&#xe9a4;" glyph-name="Icon_Bathtub_outline" data-tags="Icon_Bathtub_outline" d="M256 160h64v-64h-64v64zM704 160h64v-64h-64v64zM64 736h64v-192h-64v192zM64 640v0c0 19.2 12.8 32 32 32h64c19.2 0 32-12.8 32-32v0c0-19.2-12.8-32-32-32h-64c-19.2 0-32 12.8-32 32zM960 480v-128c0-70.4-57.6-128-128-128h-640c-70.4 0-128 57.6-128 128v128h896zM1024 544h-1024v-192c0-108.8 83.2-192 192-192h640c108.8 0 192 83.2 192 192v192zM128 608h-64v192h192v-64h-128v-128zM256 800h64v-64h-64v64zM288 672v0c-19.2 0-32 12.8-32 32v32h64v-32c0-19.2-12.8-32-32-32z" />
<glyph unicode="&#xe9a5;" glyph-name="Icon_Carrom" data-tags="Icon_Carrom" d="M172.8 832l134.4-134.4-44.8-44.8-134.4 134.4v-678.4l134.4 115.2 44.8-51.2-128-108.8h672l-147.2 121.6 38.4 51.2 153.6-128v678.4l-153.6-134.4-38.4 51.2 147.2 128h-678.4zM512 384c-38.4 0-64 25.6-64 64s25.6 64 64 64 64-25.6 64-64-25.6-64-64-64zM0 896v-896c0-35.2 28.8-64 64-64h896c35.2 0 64 28.8 64 64v896c0 35.2-28.8 64-64 64h-896c-35.2 0-64-28.8-64-64zM960 64h-64v-64h-768v64h-64v768h64v64h768v-64h64v-768z" />
<glyph unicode="&#xe9a6;" glyph-name="Icon_Carrom_outline" data-tags="Icon_Carrom_outline" d="M832 76.8c-12.8 0-25.6 6.4-32 19.2h-576c-6.4-12.8-19.2-19.2-32-19.2s-25.6 12.8-32 25.6c-6.4 6.4-12.8 12.8-12.8 25.6s6.4 19.2 12.8 25.6v582.4c-12.8 6.4-19.2 19.2-19.2 32s6.4 25.6 19.2 32c6.4 25.6 51.2 25.6 57.6 0h582.4c12.8 25.6 51.2 19.2 57.6 0 12.8-6.4 19.2-19.2 19.2-32s-6.4-25.6-19.2-32v-582.4c12.8-6.4 19.2-19.2 19.2-32s-6.4-25.6-19.2-32c0-6.4-12.8-12.8-25.6-12.8zM275.2 160h486.4l-121.6 121.6c-12.8 12.8-12.8 32 0 44.8s32 12.8 44.8 0l115.2-115.2v480l-115.2-115.2c-12.8-12.8-32-12.8-44.8 0s-12.8 32 0 44.8l115.2 115.2h-473.6l108.8-108.8c12.8-12.8 12.8-32 0-44.8s-32-12.8-44.8-6.4l-121.6 128v-505.6l121.6 121.6c12.8 12.8 32 12.8 44.8 0s12.8-32 0-44.8l-115.2-115.2zM512 352c-57.6 0-96 38.4-96 96s38.4 96 96 96 96-38.4 96-96-38.4-96-96-96zM512 480c-19.2 0-32-12.8-32-32s12.8-32 32-32 32 12.8 32 32-12.8 32-32 32zM0 896v-896c0-38.4 25.6-64 64-64h896c38.4 0 64 25.6 64 64v896c0 38.4-25.6 64-64 64h-896c-38.4 0-64-25.6-64-64zM960 64h-64v-64h-768v64h-64v768h64v64h768v-64h64v-768z" />
<glyph unicode="&#xe9a7;" glyph-name="Icon_Cupboard" data-tags="Icon_Cupboard" horiz-adv-x="960" d="M0 896v-704h448v768h-384c-35.2 0-64-28.8-64-64zM384 512h-64v128h64v-128zM0 128v-192h960v192h-960zM576 0h-192v64h192v-64zM512 960v-768h448v704c0 35.2-28.8 64-64 64h-384zM640 512h-64v128h64v-128z" />
<glyph unicode="&#xe9a8;" glyph-name="Icon_Cupboard_outline" data-tags="Icon_Cupboard_outline" horiz-adv-x="960" d="M384 512h-64v128h64v-128zM576 0h-192v64h192v-64zM640 512h-64v128h64v-128zM384 896v-640h-320v640h320zM448 960h-384c-38.4 0-64-25.6-64-64v-704h448v768zM896 896v-640h-320v640h320zM896 960h-384v-768h448v704c0 38.4-25.6 64-64 64v0zM896 64v-64h-832v64h832zM960 128h-960v-192h960v192z" />
<glyph unicode="&#xe9a9;" glyph-name="Icon_Dinningtable" data-tags="Icon_Dinningtable" d="M128 0h-128v832c0 35.2 28.8 64 64 64v0c35.2 0 64-28.8 64-64v-832zM1024 0h-128v832c0 35.2 28.8 64 64 64v0c35.2 0 64-28.8 64-64v-832zM256 384h128v-384h-128v384zM640 384h128v-384h-128v384zM64 448h320v-128h-320v128zM640 448h320v-128h-320v128zM768 576h-512c-35.2 0-64 28.8-64 64v0c0 35.2 28.8 64 64 64h512c35.2 0 64-28.8 64-64v0c0-35.2-28.8-64-64-64zM448 640h128v-640h-128v640z" />
<glyph unicode="&#xe9aa;" glyph-name="Icon_Dinningtable_outline" data-tags="Icon_Dinningtable_outline" d="M32 0c-19.2 0-32 12.8-32 32v832c0 19.2 12.8 32 32 32s32-12.8 32-32v-832c0-19.2-12.8-32-32-32zM288 0c-19.2 0-32 12.8-32 32v352h-224c-19.2 0-32 12.8-32 32s12.8 32 32 32h256c19.2 0 32-12.8 32-32v-384c0-19.2-12.8-32-32-32zM992 0c-19.2 0-32 12.8-32 32v832c0 19.2 12.8 32 32 32s32-12.8 32-32v-832c0-19.2-12.8-32-32-32zM736 0c-19.2 0-32 12.8-32 32v384c0 19.2 12.8 32 32 32h256c19.2 0 32-12.8 32-32s-12.8-32-32-32h-224v-352c0-19.2-12.8-32-32-32zM736 576h-512c-19.2 0-32 12.8-32 32s12.8 32 32 32h512c19.2 0 32-12.8 32-32s-12.8-32-32-32zM480 0c-19.2 0-32 12.8-32 32v576c0 19.2 12.8 32 32 32s32-12.8 32-32v-576c0-19.2-12.8-32-32-32z" />
<glyph unicode="&#xe9ab;" glyph-name="Icon_Doublebed" data-tags="Icon_Doublebed" d="M32 96v0c-17.92 0-32 14.080-32 32v96h64v-96c0-17.92-14.080-32-32-32zM992 96v0c-17.92 0-32 14.080-32 32v96h64v-96c0-17.92-14.080-32-32-32zM1024 224h-1024v192c0 35.2 28.8 64 64 64h896c35.2 0 64-28.8 64-64v-192zM960 480h-64v256h-768v-256h-64v256c0 35.2 28.8 64 64 64h768c35.2 0 64-28.8 64-64v-256zM448 416h-256v128c0 35.2 28.8 64 64 64h128c35.2 0 64-28.8 64-64v-128zM832 416h-256v128c0 35.2 28.8 64 64 64h128c35.2 0 64-28.8 64-64v-128z" />
<glyph unicode="&#xe9ac;" glyph-name="Icon_Doublebed_outline" data-tags="Icon_Doublebed_outline" d="M32 96v0c-19.2 0-32 12.8-32 32v96h64v-96c0-19.2-12.8-32-32-32zM992 96v0c-19.2 0-32 12.8-32 32v96h64v-96c0-19.2-12.8-32-32-32zM960 416v-128h-896v128h896zM960 480h-896c-38.4 0-64-25.6-64-64v-192h1024v192c0 38.4-25.6 64-64 64v0zM960 480h-64v256h-768v-256h-64v256c0 38.4 32 64 64 64h768c38.4 0 64-25.6 64-64v-256zM448 416h-256v128c0 32 32 64 64 64h128c38.4 0 64-32 64-64v-128zM832 416h-256v128c0 32 25.6 64 64 64h128c38.4 0 64-32 64-64v-128z" />
<glyph unicode="&#xe9ad;" glyph-name="Icon_Fan" data-tags="Icon_Fan" d="M638.293 366.080c0-75.405-61.128-136.533-136.533-136.533s-136.533 61.128-136.533 136.533c0 75.405 61.128 136.533 136.533 136.533s136.533-61.128 136.533-136.533zM1006.933 113.493l-334.507 218.453c-6.827-47.787-40.96-88.747-81.92-116.053l341.333-225.28c34.133-20.48 75.093-13.653 95.573 20.48v0c20.48 40.96 13.653 81.92-20.48 102.4zM331.093 318.293l-307.2-245.76c-27.307-20.48-34.133-68.267-6.827-95.573v0c20.48-27.307 68.267-34.133 95.573-6.827l300.373 245.76c-34.133 20.48-68.267 54.613-81.92 102.4zM502.443 543.573c27.307 0 47.787-6.827 68.267-13.653v327.68c0 40.96-27.307 68.267-68.267 68.267s-68.267-27.307-68.267-68.267v-327.68c20.48 6.827 40.96 13.653 68.267 13.653z" />
<glyph unicode="&#xe9ae;" glyph-name="Icon_Fan_outline" data-tags="Icon_Fan_outline" d="M518.827 441.173c40.96 0 68.267-27.307 68.267-68.267s-27.307-68.267-68.267-68.267-68.267 27.307-68.267 68.267 34.133 68.267 68.267 68.267zM518.827 509.44c-75.093 0-136.533-61.44-136.533-136.533s61.44-136.533 136.533-136.533 136.533 61.44 136.533 136.533-61.44 136.533-136.533 136.533v0zM518.827 557.227c-20.48 0-34.133 13.653-34.133 34.133v300.373c0 20.48 13.653 34.133 34.133 34.133s34.133-13.653 34.133-34.133v-300.373c0-20.48-13.653-34.133-34.133-34.133zM928.427 11.093c-6.827 0-20.48 0-20.48 6.827l-232.107 225.28c-13.653 13.653-13.653 34.133 0 47.787s34.133 13.653 47.787 0l232.107-225.28c13.653-13.653 13.653-34.133 0-47.787-6.827 0-20.48-6.827-27.307-6.827zM102.4 11.093c-6.827 0-20.48 6.827-27.307 13.653-13.653 13.653-13.653 34.133 0 47.787l232.107 225.28c13.653 13.653 34.133 13.653 47.787 0s13.653-34.133 0-47.787l-232.107-225.28c0-13.653-13.653-13.653-20.48-13.653z" />
<glyph unicode="&#xe9af;" glyph-name="Icon_Fence" data-tags="Icon_Fence" d="M0 789.333h204.8v-819.2h-204.8v819.2zM273.067 789.333h204.8v-819.2h-204.8v819.2zM546.133 789.333h204.8v-819.2h-204.8v819.2zM819.2 789.333h204.8v-819.2h-204.8v819.2zM103.083 925.867l-102.4-136.533h204.8zM376.149 925.867l-102.4-136.533h204.8zM649.216 925.867l-102.4-136.533h204.8zM922.283 925.867l-102.4-136.533h204.8zM68.949 584.533h819.2v-136.533h-819.2v136.533zM68.949 311.467h819.2v-136.533h-819.2v136.533z" />
<glyph unicode="&#xe9b0;" glyph-name="Icon_Fence_outline" data-tags="Icon_Fence_outline" d="M102.4 4.267c-20.48 0-34.133 13.653-34.133 34.133v819.2c0 20.48 13.653 34.133 34.133 34.133s34.133-13.653 34.133-34.133v-819.2c0-20.48-13.653-34.133-34.133-34.133zM375.467 4.267c-20.48 0-34.133 13.653-34.133 34.133v819.2c0 20.48 13.653 34.133 34.133 34.133s34.133-13.653 34.133-34.133v-819.2c0-20.48-13.653-34.133-34.133-34.133zM648.533 4.267c-20.48 0-34.133 13.653-34.133 34.133v819.2c0 20.48 13.653 34.133 34.133 34.133s34.133-13.653 34.133-34.133v-819.2c0-20.48-13.653-34.133-34.133-34.133zM921.6 4.267c-20.48 0-34.133 13.653-34.133 34.133v819.2c0 20.48 13.653 34.133 34.133 34.133s34.133-13.653 34.133-34.133v-819.2c0-20.48-13.653-34.133-34.133-34.133zM887.467 448h-778.24c-20.48 0-34.133 13.653-34.133 34.133s13.653 34.133 34.133 34.133h778.24c20.48 0 34.133-13.653 34.133-34.133s-13.653-34.133-34.133-34.133zM887.467 174.933h-778.24c-20.48 0-34.133 13.653-34.133 34.133s13.653 34.133 34.133 34.133h778.24c20.48 0 34.133-13.653 34.133-34.133s-13.653-34.133-34.133-34.133z" />
</font>
</defs>
</svg>
