<svg version="1.1" id="Layer_1" xmlns="http://www.w3.org/2000/svg" xmlns:xlink="http://www.w3.org/1999/xlink" x="0" y="0" width="500" height="494.5" xml:space="preserve"><style>.st0{fill:none;stroke:#57a1e8;stroke-linecap:round;stroke-linejoin:round;stroke-miterlimit:10}.st1{fill:#fff}.st2{fill:#374451}.st3{fill:#3f3454}.st4{opacity:.1;fill:#eaeaea;enable-background:new}.st6{fill:none;stroke:#dfebfa;stroke-miterlimit:10}.st7{fill:#efefef}.st8{fill:#67b2f1}.st9{fill:#1d8cf7}.st10,.st11{fill:none;stroke:#efefef;stroke-miterlimit:10}.st11{stroke:#67b2f1}.st12{fill:#67b3f2}.st13{fill:#1d8df8}.st14{fill:#bababa}.st15{fill:none;stroke:#efefef;stroke-linecap:round}.st16,.st17{fill:none;stroke:#dbe2eb;stroke-width:2}.st17{stroke:#43b2ff;stroke-width:4}.st18,.st19{fill:none;stroke:#999;stroke-width:2}.st19{stroke:#43b2ff}.st20{fill:#ea7b7a}.st22{fill:none;stroke:#dfebfa}.st27{fill:#3379c6}.st28,.st29,.st30{fill:none;stroke:#ccc;stroke-width:2}.st29,.st30{stroke-width:6}.st30{stroke:#43b2ff}.st33{fill:#707070}.st35,.st36{fill:none;stroke:#777a8d;stroke-width:3;stroke-linecap:round}.st36{stroke:#057aff}.st37{fill:#323648}.st38{fill:#616680}.st39{fill:none;stroke:#deedff;stroke-width:2;stroke-linecap:square;stroke-miterlimit:10}.st42,.st45{fill:none;stroke:#a1a3af;stroke-linecap:round;stroke-linejoin:round}.st45{stroke-miterlimit:10}.st46{fill:#a1a3af}.st47{stroke:#a1a3af;stroke-miterlimit:10}.st47,.st50,.st55{fill:none;stroke-linecap:round}.st50{stroke:#5ddee8;stroke-linejoin:round}.st55{stroke:#fc47aa;stroke-miterlimit:10}.st60{opacity:.3;fill:#81d852;enable-background:new}.st61,.st62{fill:none;stroke-linecap:round;stroke-miterlimit:10}.st61{stroke:#61c161;stroke-linejoin:round}.st62{stroke:#d7dfe6;stroke-width:1.5}.st63{fill-rule:evenodd;clip-rule:evenodd}.st63,.st65{fill:#f2f4fc}.st70{fill:#9799a5}.st72{fill:#057aff}.st78,.st79,.st80,.st81,.st82{fill:none;stroke:#838b9c;stroke-linecap:round;stroke-linejoin:round;stroke-miterlimit:10}.st79,.st80,.st81,.st82{stroke:#838b9b}.st80,.st81,.st82{stroke:#d27731}.st81,.st82{stroke:#9d62ff}.st82{stroke:#24c5da}.st83{fill:#2f3e56}.st85{fill:none;stroke:#176dff;stroke-miterlimit:10}.st86{fill:#533f39}.st87,.st89{fill:none;stroke:#24c5da;stroke-miterlimit:10}.st89{stroke:#176dff;stroke-linecap:round;stroke-linejoin:round}.st90{fill:#424960}.st91{fill:none;stroke:#c5d0dd;stroke-linecap:round;stroke-linejoin:round;stroke-miterlimit:10}.st92{fill:#c5d0dd}.st93,.st97{fill:none;stroke:#c5d0dd;stroke-miterlimit:10}.st97{fill:#424960}.st99{fill:#018ed4}.st100{fill:#898989}.st101{fill:#dddfe1}.st103,.st104,.st105{fill-rule:evenodd;clip-rule:evenodd;fill:#b1b1b1}.st104,.st105{fill:gray}.st105{opacity:.5;fill:#d2d2d2;enable-background:new}.st107{fill:none;stroke:#dcdfea;stroke-width:1.5;stroke-miterlimit:10}.st108{fill:#dcdfea}</style><g id="Layer_2_1_"><path class="st0" d="M115.5 391h2.3c.4 0 .7.3.7.7v2.3M118.5 397v4.6c0 .8-.6 1.4-1.4 1.4h-9.2c-.8 0-1.4-.6-1.4-1.4v-9.2c0-.8.6-1.4 1.4-1.4h4.6M113 396.5l5.2-5.2"/><path class="st1" d="M130.2 398.2l6.7-6.7c.4-.4 1.1-.4 1.6 0l1.4 1.4c.4.4.4 1.1 0 1.6l-6.7 6.7-3-3zM132 402.5h-3v-3"/></g><g id="Layer_1_1_"><path class="st2" d="M44 279v36h6v-36l-3-6z"/><path class="st3" d="M29.5 284.5l-1 27s0 3 2 3c3 0 3-3 3-3l-1-27.4"/><path class="st3" d="M30.5 284.5s-5.7-.2-3-7c2-5 4-6 4-6s.4 3.6 2 6c2 3 1 5 0 6s-3 1-3 1z"/><path class="st4" d="M123 236.5c5.2 0 9.5 4.3 9.5 9.5s-4.3 9.5-9.5 9.5-9.5-4.3-9.5-9.5 4.3-9.5 9.5-9.5"/><path d="M225 253h-16c-1.1 0-2-.9-2-2v-9c0-1.1.9-2 2-2h16c1.1 0 2 .9 2 2v9.1c0 1-.9 1.9-2 1.9z" opacity=".1" fill="#057aff"/><path id="Path_270" class="st6" d="M36.2 121.2l-5 5 5 6"/><path id="Line_133" class="st6" d="M31 126.3h14"/><path class="st7" d="M336 9.8h1v17h-1zM403 18.8h17v1h-17zM303 8.8h1v17h-1z"/><path class="st8" d="M305 10.8h8v6h-8z"/><path class="st9" d="M305 18.8h13v5h-13z"/><path class="st7" d="M368 9.8h1v17h-1z"/><path class="st8" d="M359 11.8h8v6h-8z"/><path class="st9" d="M354 19.8h13v5h-13z"/><path class="st7" d="M427 25.8h17v1h-17z"/><path class="st8" d="M436 16.8h6v8h-6z"/><path class="st9" d="M429 11.8h5v13h-5z"/><path class="st7" d="M377 11.8h17v1h-17z"/><path class="st8" d="M379 13.8h6v8h-6z"/><path class="st9" d="M387 13.8h5v13h-5z"/><path class="st7" d="M464 9.8h1v18h-1zM454 9.8h1v18h-1z"/><path class="st9" d="M457 11.8h5v14h-5z"/><path class="st7" d="M475 13.8h18v1h-18zM475 23.8h18v1h-18z"/><path class="st9" d="M477 16.8h14v5h-14z"/><path class="st10" d="M144.5 11.3h16v14h-16z"/><path class="st11" d="M170.5 11.3h16v14h-16z"/><circle class="st11" cx="228" cy="18.8" r="7.5"/><circle class="st10" cx="203" cy="18.8" r="7.5"/><path class="st10" d="M249 26.8l16-16"/><path class="st11" d="M271 26.8l16-16"/><path class="st12" d="M332 11.8h9v6h-9z"/><path class="st13" d="M330 19.8h13v5h-13z"/><path class="st12" d="M412 14.8h6v9h-6z"/><path class="st13" d="M405 12.8h5v13h-5z"/><path class="st14" d="M337 39.8h1v17h-1zM404 48.8h17v1h-17zM304 38.8h1v17h-1zM306 40.8h8v6h-8zM306 48.8h13v5h-13zM369 39.8h1v17h-1zM360 41.8h8v6h-8zM355 49.8h13v5h-13zM428 55.8h17v1h-17zM437 46.8h6v8h-6zM430 41.8h5v13h-5zM378 41.8h17v1h-17zM380 43.8h6v8h-6zM388 43.8h5v13h-5zM465 39.8h1v18h-1zM455 39.8h1v18h-1zM458 41.8h5v14h-5zM476 43.8h18v1h-18zM476 53.8h18v1h-18zM478 46.8h14v5h-14z"/><path class="st14" d="M333 41.8h9v6h-9zM331 49.8h13v5h-13zM413 44.8h6v9h-6zM406 42.8h5v13h-5zM39 49.8h10v2H39zM36 40.8h16v2H36zM36 52.8h16v2H36zM39 43.8h10v2H39zM36 46.8h16v2H36zM10 49.8h10v2H10zM10 52.8h16v2H10zM10 43.8h10v2H10zM10 40.8h16v2H10zM10 46.8h16v2H10zM61 46.8h16v2H61zM67 49.8h10v2H67zM61 52.8h16v2H61zM61 40.8h16v2H61zM67 43.8h10v2H67z"/><path class="st8" d="M114 49.8h10v2h-10z"/><path class="st9" d="M111 40.8h16v2h-16zM111 52.8h16v2h-16z"/><path class="st8" d="M114 43.8h10v2h-10z"/><path class="st9" d="M111 46.8h16v2h-16z"/><path class="st8" d="M84 49.8h10v2H84z"/><path class="st9" d="M84 52.8h16v2H84z"/><path class="st8" d="M84 43.8h10v2H84z"/><path class="st9" d="M84 40.8h16v2H84zM84 46.8h16v2H84zM136 46.8h16v2h-16z"/><path class="st8" d="M142 49.8h10v2h-10z"/><path class="st9" d="M136 52.8h16v2h-16zM136 40.8h16v2h-16z"/><path class="st8" d="M142 43.8h10v2h-10z"/><g id="Group_17_1_" transform="translate(-2294.55 -6000.05)"><g id="Group_13_1_" transform="rotate(-135 2309 6005.207)"><path id="Path_23_1_" class="st15" d="M2232.5 5967v7"/><path id="Path_24_1_" class="st15" d="M2230.4 5971.9l2.1 2.1 2.1-2.1"/></g><g id="Group_16_1_" transform="rotate(45 2293.636 5997.429)"><path id="Path_23-2_1_" class="st15" d="M2386.5 6036v7"/><path id="Path_24-2_1_" class="st15" d="M2384.4 6040.9l2.1 2.1 2.1-2.1"/></g><g id="Group_14_1_" transform="rotate(135 2304.5 6002.929)"><path id="Path_23-3_1_" class="st15" d="M2344 5924.5v7"/><path id="Path_24-3_1_" class="st15" d="M2341.9 5929.4l2.1 2.1 2.1-2.1"/></g><g id="Group_15_1_" transform="rotate(-45 2319.864 6010.707)"><path id="Path_23-4_1_" class="st15" d="M2275 6078.5v7"/><path id="Path_24-4_1_" class="st15" d="M2272.9 6083.4l2.1 2.1 2.1-2.1"/></g></g><circle class="st7" cx="66.4" cy="88.2" r="2.1"/><path class="st10" d="M58.6 88.4c2.5 2.9 5.2 4.4 7.8 4.4 4 0 7-3.2 7.9-4.4-2.4-3-4.9-4.6-7.6-4.6-4 0-7.1 3.5-8.1 4.6z"/><g id="Group_810" transform="rotate(180 105.5 172.5)"><path id="Rectangle_1722" class="st16" d="M169 155.2h30c2.8 0 5 2.2 5 5v30c0 2.8-2.2 5-5 5h-30c-2.8 0-5-2.2-5-5v-30c0-2.8 2.2-5 5-5z"/><path id="Path_566" class="st17" d="M164 172.2v-10.3c0-3.7 3-6.7 6.7-6.7H181"/></g><g id="Group_810_1_" transform="rotate(180 105.5 172.5)"><path id="Rectangle_1722_2_" class="st16" d="M147 160.2v30c0 2.8-2.2 5-5 5h-30c-2.8 0-5-2.2-5-5v-30c0-2.8 2.2-5 5-5h30c2.8 0 5 2.2 5 5z"/><path id="Path_566_1_" class="st17" d="M130 155.2h10.3c3.7 0 6.7 3 6.7 6.7v10.3"/></g><g id="Group_810_2_" transform="rotate(180 105.5 172.5)"><path id="Rectangle_1722_5_" class="st16" d="M86 195.2H56c-2.8 0-5-2.2-5-5v-30c0-2.8 2.2-5 5-5h30c2.8 0 5 2.2 5 5v30c0 2.7-2.2 5-5 5z"/><path id="Path_566_2_" class="st17" d="M91 178.2v10.3c0 3.7-3 6.7-6.7 6.7H74"/></g><g id="Group_810_3_" transform="rotate(180 105.5 172.5)"><path id="Rectangle_1722_6_" class="st16" d="M-4 190.2v-30c0-2.8 2.2-5 5-5h30c2.8 0 5 2.2 5 5v30c0 2.8-2.2 5-5 5H1c-2.8 0-5-2.3-5-5z"/><path id="Path_566_3_" class="st17" d="M13 195.2H2.7c-3.7 0-6.7-3-6.7-6.7v-10.3"/></g><path id="Rectangle_1722_1_" class="st18" d="M330 189.8h-36c-1.1 0-2-.9-2-2v-36c0-1.1.9-2 2-2h36c1.1 0 2 .9 2 2v36c0 1.1-.9 2-2 2z"/><path id="Rectangle_1722_3_" class="st19" d="M332 188.8c0 .6-.4 1-1 1h-38c-.6 0-1-.4-1-1"/><path id="Rectangle_1722_8_" class="st18" d="M349 187.8v-36c0-1.1.9-2 2-2h36c1.1 0 2 .9 2 2v36c0 1.1-.9 2-2 2h-36c-1.1 0-2-.9-2-2z"/><path id="Rectangle_1722_7_" class="st19" d="M350 189.8c-.6 0-1-.4-1-1v-38c0-.6.4-1 1-1"/><path id="Rectangle_1722_10_" class="st18" d="M405 149.8h36c1.1 0 2 .9 2 2v36c0 1.1-.9 2-2 2h-36c-1.1 0-2-.9-2-2v-36c0-1.1.9-2 2-2z"/><path id="Rectangle_1722_9_" class="st19" d="M403 150.8c0-.6.4-1 1-1h38c.6 0 1 .4 1 1"/><path d="M200 79.8h3v3h-3zM214 79.8h3v3h-3zM214 93.8h3v3h-3zM200 93.8h3v3h-3zM201 89.8h1v1h-1zM201 91.8h1v1h-1zM201 87.8h1v1h-1zM201 85.8h1v1h-1zM201 83.8h1v1h-1zM215 89.8h1v1h-1zM215 91.8h1v1h-1zM215 87.8h1v1h-1zM215 85.8h1v1h-1zM215 83.8h1v1h-1zM210 80.8h1v1h-1zM212 80.8h1v1h-1zM208 80.8h1v1h-1zM206 80.8h1v1h-1zM204 80.8h1v1h-1zM210 94.8h1v1h-1zM212 94.8h1v1h-1zM208 94.8h1v1h-1zM206 94.8h1v1h-1zM204 94.8h1v1h-1z"/><path class="st7" d="M158 83.8h-15v-1c0-.6.4-1 1-1h13c.6 0 1 .4 1 1v1zM154 81.8h-7v-1c0-.6.4-1 1-1h5c.6 0 1 .4 1 1v1zM144 84.8l1.9 11.2c.1.5.5.8 1 .8h7.3c.5 0 .9-.4 1-.8l1.9-11.2H144zm4 10l-1-7h1l1 7h-1zm3 0h-1v-7h1v7zm2 0h-1l1-7h1l-1 7z"/><path class="st20" d="M186 83.8h-15v-1c0-.6.4-1 1-1h13c.6 0 1 .4 1 1v1zM182 81.8h-7v-1c0-.6.4-1 1-1h5c.6 0 1 .4 1 1v1zM172 84.8l1.9 11.2c.1.5.5.8 1 .8h7.3c.5 0 .9-.4 1-.8l1.9-11.2H172zm4 10l-1-7h1l1 7h-1zm3 0h-1v-7h1v7zm2 0h-1l1-7h1l-1 7z"/><circle cx="19" cy="86.8" r="1"/><circle cx="19" cy="89.8" r="1"/><circle cx="16" cy="86.8" r="1"/><circle cx="16" cy="89.8" r="1"/><circle cx="13" cy="86.8" r="1"/><circle cx="13" cy="89.8" r="1"/><circle cx="10" cy="86.8" r="1"/><circle cx="10" cy="89.8" r="1"/><path class="st14" d="M168.6 49.2h-3.1l-.4.9c-.2.3-.2.6-.2.7 0 .2.1.4.3.6.1.1.4.2.9.2v.2h-2.9v-.2c.3-.1.6-.2.8-.4s.5-.6.7-1.4l3.1-7h.2l3.2 7.2c.3.7.6 1.1.7 1.3.2.2.3.2.6.2v.2h-4.2v-.2h.2c.3 0 .6-.1.7-.2.1-.1.2-.2.2-.3v-.2s-.1-.2-.2-.5l-.6-1.1zm-.2-.5l-1.3-3-1.4 3h2.7zM178.2 49.2h-3.1l-.4.9c-.2.3-.2.6-.2.7 0 .2.1.4.3.6.1.1.4.2.9.2v.2h-2.9v-.2c.3-.1.6-.2.8-.4s.5-.6.7-1.4l3.1-7h.2l3.2 7.2c.3.7.6 1.1.7 1.3.2.2.3.2.6.2v.2h-4.2v-.2h.2c.3 0 .6-.1.7-.2.1-.1.2-.2.2-.3v-.2s-.1-.2-.2-.5l-.6-1.1zm-.3-.5l-1.3-3-1.4 3h2.7z"/><path class="st9" d="M195.6 49.2h-3.1l-.4.9c-.2.3-.2.6-.2.7 0 .2.1.4.3.6.1.1.4.2.9.2v.2h-2.9v-.2c.3-.1.6-.2.8-.4s.5-.6.7-1.4l3.1-7h.2l3.2 7.2c.3.7.6 1.1.7 1.3.2.2.3.2.6.2v.2h-4.2v-.2h.2c.3 0 .6-.1.7-.2.1-.1.2-.2.2-.3v-.2s-.1-.2-.2-.5l-.6-1.1zm-.2-.5l-1.3-3-1.4 3h2.7z"/><path class="st8" d="M205.2 49.2h-3.1l-.4.9c-.2.3-.2.6-.2.7 0 .2.1.4.3.6.1.1.4.2.9.2v.2h-2.9v-.2c.3-.1.6-.2.8-.4s.5-.6.7-1.4l3.1-7h.2l3.2 7.2c.3.7.6 1.1.7 1.3.2.2.3.2.6.2v.2h-4.2v-.2h.2c.3 0 .6-.1.7-.2.1-.1.2-.2.2-.3v-.2s-.1-.2-.2-.5l-.6-1.1zm-.3-.5l-1.3-3-1.4 3h2.7z"/><path class="st14" d="M258.3 47.4c.2 0 .5-.2.6-.3s.1-.2.1-.5c0-.4-.2-.7-.4-.9-.3-.2-.7-.2-1.2-.2-.6 0-1 .2-1.3.5-.2.2-.2.5-.3.8h-1.1c0-.9.3-1.5.8-1.9.6-.3 1.2-.5 1.9-.5.8 0 1.5.2 2 .5s.8.8.8 1.5v4c0 .2 0 .2.1.3s.2.1.3.1h.4v.9c-.2.1-.3.1-.4.1h-.4c-.4 0-.7-.2-.9-.4-.1-.2-.2-.4-.2-.6-.2.3-.6.6-1 .8-.5.2-1 .3-1.5.3-.6 0-1.2-.2-1.6-.6-.4-.4-.6-.9-.6-1.5s.2-1.1.6-1.5c.4-.3 1-.6 1.6-.6l1.7-.3zm-2.5 3.2c.2.2.6.3.9.3.4 0 .8-.1 1.2-.3.6-.3 1-.8 1-1.6v-1c-.2.1-.3.2-.6.2-.2.1-.5.1-.6.2l-.7.1c-.4.1-.7.2-1 .2-.4.2-.6.6-.6 1s.1.7.4.9zM261.9 41.9h1.1v3.5c.2-.3.6-.6 1-.8.3-.2.7-.2 1.2-.2.9 0 1.6.3 2.2.9.6.6.8 1.5.8 2.7s-.2 2-.8 2.8-1.3 1.1-2.3 1.1c-.6 0-1-.2-1.4-.4-.2-.2-.5-.4-.7-.7v.9h-1.1v-9.8zm4.5 8.1c.3-.5.5-1.2.5-2 0-.7-.2-1.4-.5-1.9s-.8-.7-1.5-.7c-.6 0-1 .2-1.5.6s-.6 1-.6 2c0 .6.1 1.2.2 1.6.3.8.9 1.1 1.8 1.1.8.2 1.3-.1 1.6-.7z"/><path fill="none" stroke="#bababa" stroke-miterlimit="10" d="M252 48.3h19"/><path class="st9" d="M283.3 47.4c.2 0 .5-.2.6-.3s.1-.2.1-.5c0-.4-.2-.7-.4-.9-.3-.2-.7-.2-1.2-.2-.6 0-1 .2-1.3.5-.2.2-.2.5-.3.8h-1.1c0-.9.3-1.5.8-1.9.6-.3 1.2-.5 1.9-.5.8 0 1.5.2 2 .5s.8.8.8 1.5v4c0 .2 0 .2.1.3s.2.1.3.1h.4v.9c-.2.1-.3.1-.4.1h-.4c-.4 0-.7-.2-.9-.4-.1-.2-.2-.4-.2-.6-.2.3-.6.6-1 .8-.5.2-1 .3-1.5.3-.6 0-1.2-.2-1.6-.6-.4-.4-.6-.9-.6-1.5s.2-1.1.6-1.5c.4-.3 1-.6 1.6-.6l1.7-.3zm-2.5 3.2c.2.2.6.3.9.3.4 0 .8-.1 1.2-.3.6-.3 1-.8 1-1.6v-1c-.2.1-.3.2-.6.2-.2.1-.5.1-.6.2l-.7.1c-.4.1-.7.2-1 .2-.4.2-.6.6-.6 1s.1.7.4.9z"/><path class="st8" d="M286.9 41.9h1.1v3.5c.2-.3.6-.6 1-.8.3-.2.7-.2 1.2-.2.9 0 1.6.3 2.2.9.6.6.8 1.5.8 2.7s-.2 2-.8 2.8-1.3 1.1-2.3 1.1c-.6 0-1-.2-1.4-.4-.2-.2-.5-.4-.7-.7v.9h-1.1v-9.8zm4.5 8.1c.3-.5.5-1.2.5-2 0-.7-.2-1.4-.5-1.9s-.8-.7-1.5-.7c-.6 0-1 .2-1.5.6s-.6 1-.6 2c0 .6.1 1.2.2 1.6.3.8.9 1.1 1.8 1.1.8.2 1.3-.1 1.6-.7z"/><path class="st10" d="M277 48.3h19"/><path class="st22" d="M15.1 123.5l-8 8M15.1 131.5l-8-8"/><path d="M69.5 133.3h-12c-.6 0-1-.4-1-1v-12c0-.6.4-1 1-1h12c.6 0 1 .4 1 1v12c0 .6-.4 1-1 1z" fill="none" stroke="#dbe2eb" stroke-miterlimit="10"/><g id="Group_634_2_" transform="translate(-1416 -700)"><path id="Path_395_2_" d="M1509 833.8h-11c-1.1 0-2-.9-2-2v-11c0-1.1.9-2 2-2h11c1.1 0 2 .9 2 2v11c0 1.1-.9 2-2 2z" fill="#43b2ff"/><path id="Path_396_2_" d="M1499.8 826.8l2 2 5-5" fill="none" stroke="#fff" stroke-width="2" stroke-linecap="square" stroke-miterlimit="10"/></g><path d="M120.3 131l-2.2 2.1.7.7 2.2-2.1zM120.3 125.8l-7.3 7.3.7.7 7.3-7.3zM120.3 120.8L108 133.1l.7.7 12.3-12.3z"/><path fill="#dfebfa" d="M139 125.8h8l-4 4z"/><path d="M169.6 129c.8-.8 1.2-2 1.2-3.3 0-2.7-2.2-5-4.9-5s-4.9 2.2-4.9 5c0 2.7 2.2 5 4.9 5 1.2 0 2.3-.5 3.2-1.2l3.2 3.3c.1.1.2.1.3.1s.2 0 .3-.1c.2-.2.2-.4 0-.5l-3.3-3.3zm-3.7.9c-2.3 0-4.2-1.9-4.2-4.2s1.9-4.2 4.2-4.2 4.2 1.9 4.2 4.2-1.9 4.2-4.2 4.2z"/><path id="Rectangle_1310_2_" class="st27" d="M404 83.8h6v6h-6z"/><path id="Rectangle_1315_2_" class="st13" d="M412 85.8h13v2h-13z"/><path id="Rectangle_1316_2_" class="st13" d="M425 80.8h2v12h-2z"/><path id="Rectangle_1317_2_" class="st13" d="M389 85.8h13v2h-13z"/><path id="Rectangle_1318_2_" class="st13" d="M387 80.8h2v12h-2z"/><path id="Rectangle_1319_2_" class="st27" d="M465 83.8h6v6h-6z"/><path id="Rectangle_1322_2_" class="st13" d="M473 85.8h13v2h-13z"/><path id="Rectangle_1323_2_" class="st13" d="M450 85.8h13v2h-13z"/><path id="Path_380_2_" class="st13" d="M452 82.8v8l-4-4 4-4z"/><path id="Path_381_2_" class="st13" d="M485 90.8v-8l4 4-4 4z"/><g id="Group_975" transform="translate(-360 -188)"><path id="Rectangle_1829" class="st28" d="M592 282.8v-16c0-2.2 1.8-4 4-4h16c2.2 0 4 1.8 4 4v16c0 2.2-1.8 4-4 4h-16c-2.2 0-4-1.8-4-4z"/></g><path id="Rectangle_1829_1_" class="st28" d="M272 94.8v-16c0-2.2 1.8-4 4-4h16c2.2 0 4 1.8 4 4v16c0 2.2-1.8 4-4 4h-16c-2.2 0-4-1.8-4-4z"/><path id="Rectangle_1829_4_" class="st29" d="M292 98.8h-16"/><path id="Rectangle_1829_5_" class="st28" d="M309 94.8v-16c0-2.2 1.8-4 4-4h16c2.2 0 4 1.8 4 4v16c0 2.2-1.8 4-4 4h-16c-2.2 0-4-1.8-4-4z"/><path id="Rectangle_1829_3_" class="st30" d="M329 98.8h-16"/><g id="Group_975_2_" transform="translate(-360 -188)"><path id="Rectangle_1829_2_" class="st17" d="M707 282.8v-16c0-2.2 1.8-4 4-4h16c2.2 0 4 1.8 4 4v16c0 2.2-1.8 4-4 4h-16c-2.2 0-4-1.8-4-4z"/></g><path id="Rectangle_1722_4_" class="st19" d="M271 189.8h-36c-1.1 0-2-.9-2-2v-36c0-1.1.9-2 2-2h36c1.1 0 2 .9 2 2v36c0 1.1-.9 2-2 2z"/><g id="Ellipse_161"><circle cx="203" cy="126.6" r="10.5" fill="#292c3c"/><circle cx="203" cy="126.6" r="10" fill="none" stroke="#707070"/></g><path class="st33" d="M202 124.8h2v7h-2z"/><circle class="st33" cx="203" cy="122.4" r="1"/><path fill="none" stroke="#777a8d" stroke-width="2" stroke-linecap="round" stroke-linejoin="round" d="M228.5 129l4.2-4.7 4.3 4.6"/><path id="Rectangle_1829_7_" class="st28" d="M259 114.8h16c2.2 0 4 1.8 4 4v16c0 2.2-1.8 4-4 4h-16c-2.2 0-4-1.8-4-4v-16c0-2.2 1.8-4 4-4z"/><path id="Rectangle_1829_6_" class="st29" d="M255 134.8v-16"/><path id="Rectangle_1829_9_" class="st28" d="M319 118.8v16c0 2.2-1.8 4-4 4h-16c-2.2 0-4-1.8-4-4v-16c0-2.2 1.8-4 4-4h16c2.2 0 4 1.8 4 4z"/><path id="Rectangle_1829_8_" class="st29" d="M299 114.8h16"/><path id="Rectangle_1829_11_" class="st28" d="M355 138.8h-16c-2.2 0-4-1.8-4-4v-16c0-2.2 1.8-4 4-4h16c2.2 0 4 1.8 4 4v16c0 2.2-1.8 4-4 4z"/><path id="Rectangle_1829_10_" class="st29" d="M359 118.8v16"/><path id="Rectangle_1829_13_" class="st28" d="M381 114.8h16c2.2 0 4 1.8 4 4v16c0 2.2-1.8 4-4 4h-16c-2.2 0-4-1.8-4-4v-16c0-2.2 1.8-4 4-4z"/><path id="Rectangle_1829_12_" class="st30" d="M377 134.8v-16"/><path id="Rectangle_1829_15_" class="st28" d="M439 118.8v16c0 2.2-1.8 4-4 4h-16c-2.2 0-4-1.8-4-4v-16c0-2.2 1.8-4 4-4h16c2.2 0 4 1.8 4 4z"/><path id="Rectangle_1829_14_" class="st30" d="M419 114.8h16"/><path id="Rectangle_1829_17_" class="st28" d="M476 138.8h-16c-2.2 0-4-1.8-4-4v-16c0-2.2 1.8-4 4-4h16c2.2 0 4 1.8 4 4v16c0 2.2-1.8 4-4 4z"/><path id="Rectangle_1829_16_" class="st30" d="M480 118.8v16"/><path id="Rectangle_1722_12_" class="st18" d="M496 151.8v36c0 1.1-.9 2-2 2h-36c-1.1 0-2-.9-2-2v-36c0-1.1.9-2 2-2h36c1.1 0 2 .9 2 2z"/><path id="Rectangle_1722_11_" class="st19" d="M495 149.8c.6 0 1 .4 1 1v38c0 .6-.4 1-1 1"/><path class="st35" d="M187.5 199.5H179c-1.4 0-2.5 1.1-2.5 2.5v8.5M213.5 210.5V202c0-1.4-1.1-2.5-2.5-2.5h-8.5M176.5 219.5v8.5c0 1.4 1.1 2.5 2.5 2.5h8.5M202.5 230.5h8.5c1.4 0 2.5-1.1 2.5-2.5v-8.5"/><path class="st36" d="M244.5 199.5H236c-1.4 0-2.5 1.1-2.5 2.5v8.5M270.5 210.5V202c0-1.4-1.1-2.5-2.5-2.5h-8.5M233.5 219.5v8.5c0 1.4 1.1 2.5 2.5 2.5h8.5M259.5 230.5h8.5c1.4 0 2.5-1.1 2.5-2.5v-8.5"/><path class="st37" d="M1719 912.5h-11c-.8 0-1.5-.7-1.5-1.5v-11c0-.8.7-1.5 1.5-1.5h11c.8 0 1.5.7 1.5 1.5v11c0 .8-.7 1.5-1.5 1.5z" transform="translate(-1416 -700)"/><path class="st38" d="M1719 912c.6 0 1-.4 1-1v-11c0-.6-.4-1-1-1h-11c-.6 0-1 .4-1 1v11c0 .6.4 1 1 1h11m0 1h-11c-1.1 0-2-.9-2-2v-11c0-1.1.9-2 2-2h11c1.1 0 2 .9 2 2v11c0 1.1-.9 2-2 2z" transform="translate(-1416 -700)"/><path class="st39" d="M294.4 206.4l2 2 5-5"/><path class="st37" d="M1719 930.5h-11c-.8 0-1.5-.7-1.5-1.5v-11c0-.8.7-1.5 1.5-1.5h11c.8 0 1.5.7 1.5 1.5v11c0 .8-.7 1.5-1.5 1.5z" transform="translate(-1416 -700)"/><path class="st38" d="M1719 930c.6 0 1-.4 1-1v-11c0-.6-.4-1-1-1h-11c-.6 0-1 .4-1 1v11c0 .6.4 1 1 1h11m0 1h-11c-1.1 0-2-.9-2-2v-11c0-1.1.9-2 2-2h11c1.1 0 2 .9 2 2v11c0 1.1-.9 2-2 2z" transform="translate(-1416 -700)"/><path d="M324 231h-11c-1.1 0-2-.9-2-2v-11c0-1.1.9-2 2-2h11c1.1 0 2 .9 2 2v11c0 1.1-.9 2-2 2z" fill="#6a708e"/><path class="st39" d="M315.4 224.4l2 2 5-5"/><path class="st14" d="M333.9 257.5c.2 0 .4-.1.6-.3.1-.1.1-.2.1-.5s-.2-.7-.4-.9c-.4-.2-.8-.2-1.2-.2-.5 0-1 .2-1.3.5-.2.2-.2.5-.3.8h-1.1c-.1-.7.2-1.4.8-1.9.6-.3 1.2-.5 1.9-.5s1.4.2 2 .5c.5.3.8.9.8 1.5v4c0 .2 0 .2.1.3.1.1.2.1.3.1h.4v.9c-.1.1-.3.1-.4.1h-.4c-.3 0-.7-.2-.9-.4-.1-.2-.2-.4-.2-.6-.3.3-.6.6-1 .8-.5.2-1 .3-1.5.3-.6 0-1.2-.2-1.6-.6-.8-.8-.8-2.2 0-3 .5-.4 1-.6 1.6-.6l1.7-.3zm-2.5 3.2c.3.2.6.3.9.3.4 0 .8-.1 1.2-.3.6-.3 1-.9 1-1.6v-1c-.2.1-.4.2-.6.2-.2.1-.5.1-.6.2l-.7.1c-.3.1-.7.2-1 .2-.4.2-.6.6-.6 1s.1.7.4.9zM340.9 257.5c.2 0 .4-.1.6-.3.1-.1.1-.2.1-.5s-.2-.7-.4-.9c-.4-.2-.8-.2-1.2-.2-.5 0-1 .2-1.3.5-.2.2-.2.5-.3.8h-1.1c-.1-.7.2-1.4.8-1.9.6-.3 1.2-.5 1.9-.5s1.4.2 2 .5c.5.3.8.9.8 1.5v4c0 .2 0 .2.1.3.1.1.2.1.3.1h.4v.9c-.1.1-.3.1-.4.1h-.4c-.3 0-.7-.2-.9-.4-.1-.2-.2-.4-.2-.6-.3.3-.6.6-1 .8-.5.2-1 .3-1.5.3-.6 0-1.2-.2-1.6-.6-.8-.8-.8-2.2 0-3 .5-.4 1-.6 1.6-.6l1.7-.3zm-2.5 3.2c.3.2.6.3.9.3.4 0 .8-.1 1.2-.3.6-.3 1-.9 1-1.6v-1c-.2.1-.4.2-.6.2-.2.1-.5.1-.6.2l-.7.1c-.3.1-.7.2-1 .2-.4.2-.6.6-.6 1s.1.7.4.9z" transform="translate(-116 -210.5)"/><path class="st9" d="M353.8 257.5c.2 0 .4-.1.6-.3.1-.1.1-.2.1-.5s-.2-.7-.4-.9c-.4-.2-.8-.2-1.2-.2-.5 0-1 .2-1.3.5-.2.2-.2.5-.3.8h-1.1c-.1-.7.2-1.4.8-1.9.6-.3 1.2-.5 1.9-.5s1.4.2 2 .5c.5.3.8.9.8 1.5v4c0 .2 0 .2.1.3.1.1.2.1.3.1h.4v.9c-.1.1-.3.1-.4.1h-.4c-.3 0-.7-.2-.9-.4-.1-.2-.2-.4-.2-.6-.3.3-.6.6-1 .8-.5.2-1 .3-1.5.3-.6 0-1.2-.2-1.6-.6-.8-.8-.8-2.2 0-3 .5-.4 1-.6 1.6-.6l1.7-.3zm-2.5 3.2c.3.2.6.3.9.3.4 0 .8-.1 1.2-.3.6-.3 1-.9 1-1.6v-1c-.2.1-.4.2-.6.2-.2.1-.5.1-.6.2l-.7.1c-.3.1-.7.2-1 .2-.4.2-.6.6-.6 1-.1.4.1.7.4.9zM360.8 257.5c.2 0 .4-.1.6-.3.1-.1.1-.2.1-.5s-.2-.7-.4-.9c-.4-.2-.8-.2-1.2-.2-.5 0-1 .2-1.3.5-.2.2-.2.5-.3.8h-1.1c-.1-.7.2-1.4.8-1.9.6-.3 1.2-.5 1.9-.5s1.4.2 2 .5c.5.3.8.9.8 1.5v4c0 .2 0 .2.1.3.1.1.2.1.3.1h.4v.9c-.1.1-.3.1-.4.1h-.4c-.3 0-.7-.2-.9-.4-.1-.2-.2-.4-.2-.6-.3.3-.6.6-1 .8-.5.2-1 .3-1.5.3-.6 0-1.2-.2-1.6-.6-.8-.8-.8-2.2 0-3 .5-.4 1-.6 1.6-.6l1.7-.3zm-2.5 3.2c.3.2.6.3.9.3.4 0 .8-.1 1.2-.3.6-.3 1-.9 1-1.6v-1c-.2.1-.4.2-.6.2-.2.1-.5.1-.6.2l-.7.1c-.3.1-.7.2-1 .2-.4.2-.6.6-.6 1-.1.4.1.7.4.9z" transform="translate(-116 -210.5)"/><path class="st37" d="M1740 912.5h-11c-.8 0-1.5-.7-1.5-1.5v-11c0-.8.7-1.5 1.5-1.5h11c.8 0 1.5.7 1.5 1.5v11c0 .8-.7 1.5-1.5 1.5z" transform="translate(-1416 -700)"/><path d="M1740 912c.6 0 1-.4 1-1v-11c0-.6-.4-1-1-1h-11c-.6 0-1 .4-1 1v11c0 .6.4 1 1 1h11m0 1h-11c-1.1 0-2-.9-2-2v-11c0-1.1.9-2 2-2h11c1.1 0 2 .9 2 2v11c0 1.1-.9 2-2 2z" fill="#818799" transform="translate(-1416 -700)"/><path class="st4" d="M77 204h9v20h-9zM28.4 23H12.6c-.9 0-1.6-.7-1.6-1.6v-8.8c0-.9.7-1.6 1.6-1.6h15.8c.9 0 1.6.7 1.6 1.6v8.8c0 .9-.7 1.6-1.6 1.6zM96 221.3l-3.3 2.3-2.7-2.3V209h6zM196 251.7l-2.9.9-16.1-.6v-12h19z"/><path class="st42" d="M7.5 17.5h-.6"/><path d="M4.8 17.1c-.2-.2-.3-.5-.3-.8V6.6c0-.6.5-1.1 1.1-1.1h19.7c.6 0 1.1.5 1.1 1.1v2.2" fill="none" stroke="#a1a3af" stroke-linecap="round" stroke-linejoin="round" stroke-dasharray="1.1256,2.2511"/><path class="st42" d="M26.5 9.9v.6"/><path d="M27.5 23.5h-15c-1.1 0-2-.9-2-2v-8c0-1.1.9-2 2-2h15c1.1 0 2 .9 2 2v8c0 1.1-.9 2-2 2z" fill="none" stroke="#a1a3af" stroke-width=".972" stroke-miterlimit="10"/><path class="st45" d="M84.5 223.5h-7c-.6 0-1-.4-1-1v-18c0-.6.4-1 1-1h7c.6 0 1 .4 1 1v18c0 .6-.4 1-1 1zM76.5 219.5h5M76.5 207.5h5M76.5 215.5h3M76.5 211.5h3M95.5 220.3l-3 3.8-3-3.8v-16.8h6zM89.5 208.5h6"/><g transform="translate(585 227)"><path id="Path_299-2_5_" class="st46" d="M-561.5-207.5l3.2 7.3c.3.7 1.4.7 1.7 0l.9-2.4c.1-.2.2-.4.4-.5l2.4-1.2c.7-.4.7-1.4-.1-1.7l-7.4-2.8c-.7-.2-1.4.6-1.1 1.3z"/></g><circle class="st4" cx="90" cy="16" r="10"/><path class="st47" d="M90.5 12.5v8M94.5 16.5h-8"/><circle class="st47" cx="90.5" cy="16.5" r="10"/><path class="st4" d="M27.4 225H12.1c-1.7 0-3.1-1.4-3.1-3.1v-3.4l6.9-4.9s2.5 2.4 4.9 4.9c1.2-.7 4-2 4-2l5.1 2.7v3.2c.1 1.4-1.1 2.6-2.5 2.6z"/><path d="M26.5 224.5h-15c-1.7 0-3-1.3-3-3v-15c0-1.7 1.3-3 3-3h15c1.7 0 3 1.3 3 3v15c0 1.7-1.3 3-3 3z" fill="none" stroke="#a1a3af" stroke-miterlimit="10"/><circle class="st46" cx="23.5" cy="208.5" r="2"/><path class="st47" d="M10.5 216.9l4.9-3.9c.4-.3 1-.3 1.4.1l4 4.5 3.4-2c.3-.2.8-.2 1.1 0l2.8 1.6"/><path d="M63.4 23H47.6c-.9 0-1.6-.7-1.6-1.6v-8.8c0-.9.7-1.6 1.6-1.6h15.8c.9 0 1.6.7 1.6 1.6v8.8c0 .9-.7 1.6-1.6 1.6z" opacity=".3" fill="#5cead9"/><path class="st50" d="M42.5 17.5h-.6"/><path d="M39.8 17.1c-.2-.2-.3-.5-.3-.8V6.6c0-.6.5-1.1 1.1-1.1h19.7c.6 0 1.1.5 1.1 1.1v2.2" fill="none" stroke="#5ddee8" stroke-linecap="round" stroke-linejoin="round" stroke-dasharray="1.1256,2.2511"/><path class="st50" d="M61.5 9.9v.6"/><path d="M62.5 23.5h-15c-1.1 0-2-.9-2-2v-8c0-1.1.9-2 2-2h15c1.1 0 2 .9 2 2v8c0 1.1-.9 2-2 2z" fill="none" stroke="#5ddee8" stroke-width=".972" stroke-miterlimit="10"/><g transform="translate(585 227)"><path id="Path_299-2_1_" d="M-526.5-207.5l3.2 7.3c.3.7 1.4.7 1.7 0l.9-2.4c.1-.2.2-.4.4-.5l2.4-1.2c.7-.4.7-1.4-.1-1.7l-7.4-2.8c-.7-.2-1.4.6-1.1 1.3z" fill="#5ddee8"/></g><circle cx="120" cy="16" r="10" opacity=".3" fill="#e85baf"/><path class="st55" d="M120.5 12.5v8M124.5 16.5h-8"/><circle class="st55" cx="120.5" cy="16.5" r="10"/><path d="M57.4 225H42.1c-1.7 0-3.1-1.4-3.1-3.1v-3.4l6.9-4.9s2.5 2.4 4.9 4.9c1.2-.7 4-2 4-2l5.1 2.7v3.2c.1 1.4-1.1 2.6-2.5 2.6z" opacity=".3" fill="#ffd00c"/><path d="M56.5 224.5h-15c-1.7 0-3-1.3-3-3v-15c0-1.7 1.3-3 3-3h15c1.7 0 3 1.3 3 3v15c0 1.7-1.3 3-3 3z" fill="none" stroke="#ffd00c" stroke-miterlimit="10"/><circle cx="53.5" cy="208.5" r="2" fill="#ffd00c"/><path d="M40.5 216.9l4.9-3.9c.4-.3 1-.3 1.4.1l4 4.5 3.4-2c.3-.2.8-.2 1.1 0l2.8 1.6" fill="none" stroke="#ffd00c" stroke-linecap="round" stroke-miterlimit="10"/><path class="st60" d="M117 204h9v20h-9zM136 221.3l-3.3 2.3-2.7-2.3V209h6z"/><path class="st61" d="M124.5 223.5h-7c-.6 0-1-.4-1-1v-18c0-.6.4-1 1-1h7c.6 0 1 .4 1 1v18c0 .6-.4 1-1 1zM116.5 219.5h5M116.5 207.5h5M116.5 215.5h3M116.5 211.5h3M135.5 220.3l-3 3.8-3-3.8v-16.8h6zM129.5 208.5h6"/><path class="st15" d="M92.5 82.5h9c2.8 0 5 2.2 5 5s-2.2 5-5 5h-9"/><path class="st15" d="M94.5 80.4l-2.2 2.2 2.2 2.2M127.5 82.5h-9c-2.8 0-5 2.2-5 5s2.2 5 5 5h9"/><path class="st15" d="M125.3 80.4l2.2 2.2-2.2 2.2"/><g><path class="st62" d="M411 223h9M411 213h7M411 218h6"/></g><g><path id="SVGID_1_" class="st63" d="M445 217v-3h1.4l-1.9-2.4-1.8 2.4h1.3v7h-1.3l1.8 2.6 1.8-2.6H445z"/><defs><path id="SVGID_2_" d="M445 217v-3h1.4l-1.9-2.4-1.8 2.4h1.3v7h-1.3l1.8 2.6 1.8-2.6H445z"/></defs><clipPath id="SVGID_4_"><use xlink:href="#SVGID_2_" overflow="visible"/></clipPath><g clip-path="url(#SVGID_4_)"><path id="SVGID_3_" class="st65" d="M-318-587h2793v2806H-318z"/></g></g><g><path id="SVGID_5_" class="st63" d="M445 218h3v1.4l2.4-1.9-2.4-1.8v1.3h-7v-1.3l-2.6 1.8 2.6 1.8V218z"/><defs><path id="SVGID_6_" d="M445 218h3v1.4l2.4-1.9-2.4-1.8v1.3h-7v-1.3l-2.6 1.8 2.6 1.8V218z"/></defs><clipPath id="SVGID_8_"><use xlink:href="#SVGID_6_" overflow="visible"/></clipPath><g clip-path="url(#SVGID_8_)"><path id="SVGID_7_" class="st65" d="M-1557-545h2806v2793h-2806z"/></g></g><g><path class="st65" d="M354.4 217.1l3.6-3.9 3.7 3.8zM352 211h12v1h-12zM352 222h12v1h-12zM352 225h12v1h-12z"/><path class="st65" d="M357 216h2v4h-2z"/></g><g><path class="st65" d="M385.7 220l-3.7 3.8-3.6-3.9zM376 225h12v1h-12zM376 214h12v1h-12zM376 211h12v1h-12z"/><path class="st65" d="M381 217h2v4h-2z"/></g><g id="Group_17_2_" transform="translate(-2294.55 -6000.05)"><g id="Group_13_2_" transform="rotate(-135 2309 6005.207)"><path id="Path_23_2_" class="st15" d="M1830.9 6187.6v7"/><path id="Path_24_2_" class="st15" d="M1828.8 6179.8l2.1 2.1 2.1-2.1"/></g><g id="Group_16_2_" transform="rotate(45 2293.636 5997.429)"><path id="Path_23-2_2_" class="st15" d="M2788.1 5815.4v7"/><path id="Path_24-2_2_" class="st15" d="M2786 5807.6l2.1 2.1 2.1-2.1"/></g><g id="Group_14_2_" transform="rotate(135 2304.5 6002.929)"><path id="Path_23-3_2_" class="st15" d="M2123.4 5522.9v7"/><path id="Path_24-3_2_" class="st15" d="M2121.3 5515l2.1 2.1 2.1-2.1"/></g><g id="Group_15_2_" transform="rotate(-45 2319.864 6010.707)"><path id="Path_23-4_2_" class="st15" d="M2495.6 6480.1v7"/><path id="Path_24-4_2_" class="st15" d="M2493.5 6472.3l2.1 2.1 2.1-2.1"/></g></g><g><path class="st1" d="M10.2 238H22v1H10.2z"/><path d="M10.2 239H22v1H10.2z"/><path class="st1" d="M10.2 242H22v1H10.2z"/><path d="M10.2 243H22v1H10.2z"/><path class="st1" d="M10.2 246H22v1H10.2z"/><path d="M10.2 247H22v1H10.2z"/></g><g><path transform="rotate(-45.001 40.796 242.998)" class="st1" d="M34.9 242.5h11.8v1H34.9z"/><path transform="rotate(-45.001 39.597 242.803)" d="M33.7 242.3h11.8v1H33.7z"/><path transform="rotate(-45.001 40.996 243.2)" class="st1" d="M40.5 237.3h1v11.8h-1z"/><path transform="rotate(-45.001 39.703 243.398)" d="M39.2 237.5h1v11.8h-1z"/></g><g><path class="st1" d="M53 243h12v1H53z"/><path d="M53 242h12v1H53z"/><g><path class="st1" d="M59 238h1v12h-1z"/><path d="M58 237h1v12h-1z"/></g></g><g><path transform="rotate(-45.001 75.15 241.696)" class="st1" d="M71.8 241.2h6.7v1h-6.7z"/><path transform="rotate(-45.001 74.452 240.994)" d="M71.1 240.5h6.7v1h-6.7z"/><path transform="rotate(-45.001 75.602 244.747)" class="st1" d="M75.1 241.8h1v5.9h-1z"/><path transform="rotate(-45.001 74.495 245.042)" d="M74 241.6h1v6.9h-1z"/></g><g><path transform="rotate(-45.001 89.592 241.64)" class="st1" d="M89.1 238.3h1v6.7h-1z"/><path transform="rotate(-45.001 90.293 240.94)" d="M89.8 237.6h1v6.7h-1z"/><path transform="rotate(-45.001 89.15 244.794)" class="st1" d="M86.2 244.3h5.9v1h-5.9z"/><path transform="rotate(-45.001 90.146 245.102)" d="M86.7 244.6h6.9v1h-6.9z"/></g><path class="st45" d="M123 236.5c5.2 0 9.5 4.3 9.5 9.5s-4.3 9.5-9.5 9.5-9.5-4.3-9.5-9.5 4.3-9.5 9.5-9.5"/><path d="M122.6 248.5c-.1-1.1.2-1.9 1.1-2.5.3-.2.7-.5 1-.7 1.1-.7 1.1-2.7-.3-3.4-.9-.5-2-.5-2.9 0-.5.2-.8.7-1 1.2" fill="none" stroke="#9799a5" stroke-width="1.5" stroke-linecap="round" stroke-miterlimit="10"/><g><circle id="SVGID_9_" cx="122.5" cy="251.5" r="1" fill-rule="evenodd" clip-rule="evenodd" fill="#a1a3af"/></g><path d="M194.5 252.5h-16.1c-1.1 0-2-.9-2-2v-9.1c0-1.1.9-2 2-2h16.1c1.1 0 2 .9 2 2v9.1c0 1.1-.9 2-2 2z" fill="none" stroke="#a1a3af" stroke-width="1.065" stroke-linecap="round" stroke-linejoin="round" stroke-miterlimit="10"/><path class="st46" d="M185 244.2v3.3c0 .5.5.8.9.6l3.2-1.7c.5-.2.5-.9 0-1.1l-3.2-1.7c-.4-.2-.9.1-.9.6z"/><path class="st70" d="M179.5 250h-.9c-.3 0-.5-.2-.5-.5v-.9c0-.3.2-.5.5-.5h.9c.3 0 .5.2.5.5v.9c0 .3-.2.5-.5.5zM179.5 247h-.9c-.3 0-.5-.2-.5-.5v-.9c0-.3.2-.5.5-.5h.9c.3 0 .5.2.5.5v.9c0 .3-.2.5-.5.5zM179.5 244h-.9c-.3 0-.5-.2-.5-.5v-.9c0-.3.2-.5.5-.5h.9c.3 0 .5.2.5.5v.9c0 .3-.2.5-.5.5zM194.5 250h-.9c-.3 0-.5-.2-.5-.5v-.9c0-.3.2-.5.5-.5h.9c.3 0 .5.2.5.5v.9c0 .3-.2.5-.5.5zM194.5 247h-.9c-.3 0-.5-.2-.5-.5v-.9c0-.3.2-.5.5-.5h.9c.3 0 .5.2.5.5v.9c0 .3-.2.5-.5.5zM194.5 244h-.9c-.3 0-.5-.2-.5-.5v-.9c0-.3.2-.5.5-.5h.9c.3 0 .5.2.5.5v.9c0 .3-.2.5-.5.5z"/><path d="M225.5 252.5h-16.1c-1.1 0-2-.9-2-2v-9.1c0-1.1.9-2 2-2h16.1c1.1 0 2 .9 2 2v9.1c0 1.1-.9 2-2 2z" fill="none" stroke="#057aff" stroke-width="1.06" stroke-miterlimit="10"/><path class="st72" d="M216 244.2v3.3c0 .5.5.8.9.6l3.2-1.7c.5-.2.5-.9 0-1.1l-3.2-1.7c-.4-.2-.9.1-.9.6zM210.5 250h-.9c-.3 0-.5-.2-.5-.5v-.9c0-.3.2-.5.5-.5h.9c.3 0 .5.2.5.5v.9c0 .3-.2.5-.5.5zM210.5 247h-.9c-.3 0-.5-.2-.5-.5v-.9c0-.3.2-.5.5-.5h.9c.3 0 .5.2.5.5v.9c0 .3-.2.5-.5.5zM210.5 244h-.9c-.3 0-.5-.2-.5-.5v-.9c0-.3.2-.5.5-.5h.9c.3 0 .5.2.5.5v.9c0 .3-.2.5-.5.5zM225.5 250h-.9c-.3 0-.5-.2-.5-.5v-.9c0-.3.2-.5.5-.5h.9c.3 0 .5.2.5.5v.9c0 .3-.2.5-.5.5zM225.5 247h-.9c-.3 0-.5-.2-.5-.5v-.9c0-.3.2-.5.5-.5h.9c.3 0 .5.2.5.5v.9c0 .3-.2.5-.5.5zM225.5 244h-.9c-.3 0-.5-.2-.5-.5v-.9c0-.3.2-.5.5-.5h.9c.3 0 .5.2.5.5v.9c0 .3-.2.5-.5.5z"/><path d="M154 236.5c5.2 0 9.5 4.3 9.5 9.5s-4.3 9.5-9.5 9.5-9.5-4.3-9.5-9.5 4.3-9.5 9.5-9.5" fill="none" stroke="#fe8a2d" stroke-miterlimit="10"/><path d="M153.6 248.5c-.1-1.1.2-1.9 1.1-2.5.3-.2.7-.5 1-.7 1.1-.7 1.1-2.7-.3-3.4-.9-.5-2-.5-2.9 0-.5.2-.8.7-1 1.2" fill="none" stroke="#fe8a2d" stroke-width="1.5" stroke-linecap="round" stroke-miterlimit="10"/><g><circle id="SVGID_11_" cx="153.5" cy="251.5" r="1" fill-rule="evenodd" clip-rule="evenodd" fill="#fe8a2d"/></g><circle cx="154" cy="246" r="9.5" opacity=".1" fill="#fe8a2d"/><g><linearGradient id="SVGID_12_" gradientUnits="userSpaceOnUse" x1="240.675" y1="244.775" x2="250.137" y2="254.238" gradientTransform="matrix(1 0 0 -1 0 496)"><stop offset="0" stop-color="#61b888"/><stop offset=".406" stop-color="#57c34f"/><stop offset=".411" stop-color="#eeb55e"/><stop offset=".748" stop-color="#eeb55e"/><stop offset=".758" stop-color="#e85e5d"/></linearGradient><path id="SVGID_10_" d="M242 240.9v11.2c0 .6.4 1 1 1 .2 0 .3 0 .5-.1l10.4-5.6c.5-.3.7-.9.4-1.4-.1-.2-.2-.3-.4-.4l-10.4-5.6c-.5-.3-1.1-.1-1.4.4-.1.2-.1.3-.1.5z" fill="url(#SVGID_12_)"/><path class="st78" d="M272.5 238.5h3.2c.4 0 .8.4.8.8v3.2M276.5 246.5v5c0 1.1-.9 2-2 2h-11c-1.1 0-2-.9-2-2v-11c0-1.1.9-2 2-2h6M269.8 245.2l6.3-6.3"/><path class="st79" d="M293.4 247c0-4.4 3.6-8 8-8s8 3.6 8 8-3.6 8-8 8c-2.6 0-4.9-1.2-6.4-3.1-.4-.5-.7-1.1-1-1.6"/><path class="st79" d="M293.5 252.5v-3h3"/><path class="st80" d="M40 313.9c-.5 0-1 .1-1.5.1-.6 0-1.2 0-1.8-.1M53.5 279.5c3.4 3.7 5.5 8.6 5.5 14 0 5.5-2.1 10.4-5.6 14.1M35.9 273.2c.8-.1 1.7-.2 2.6-.2 1.3 0 2.7.1 3.9.4M25.1 309c-4.3-3.8-7.1-9.3-7.1-15.5 0-5.6 2.3-10.7 5.9-14.4"/><path class="st81" d="M29.5 284.5l-1 27s0 3 2 3c3 0 3-3 3-3l-1-27.4M29.5 290.5h3M29.5 287.5h3"/><path class="st82" d="M43.5 278.5v36h6v-36l-3-6zM43.5 279.5h6M46.5 281.5v25M43.5 309.5h6"/><path class="st82" d="M45.5 275.5l1 1 1.5-1"/><path class="st81" d="M30.5 284.5s-5.7-.2-3-7c2-5 4-6 4-6s.4 3.6 2 6c2 3 1 5 0 6s-3 1-3 1z"/><path class="st83" d="M110.5 308h-26c-.8 0-1.5-.6-1.5-1.5v-18.1c0-.8.6-1.5 1.5-1.5h26.1c.8 0 1.5.6 1.5 1.5v18.1c-.1.9-.7 1.5-1.6 1.5z"/><path d="M110.5 288c.2 0 .5.2.5.5v18.1c0 .2-.2.5-.5.5h-26c-.2 0-.5-.2-.5-.5v-18.1c0-.2.2-.5.5-.5h26m0-1h-26c-.8 0-1.5.6-1.5 1.5v18.1c0 .8.6 1.5 1.5 1.5h26.1c.8 0 1.5-.6 1.5-1.5v-18.1c-.1-.9-.7-1.5-1.6-1.5z" fill="#176dff"/><path class="st85" d="M84 293.5h28M84 301.5h28M97.5 288v6M97.5 301v6"/><path class="st86" d="M120.5 294h-26c-.8 0-1.5-.6-1.5-1.5v-18.1c0-.8.6-1.5 1.5-1.5h7.5v4h18.5c.8 0 1.5.6 1.5 1.5v14.1c0 .9-.6 1.5-1.5 1.5z"/><path class="st80" d="M121 294.5H95c-.8 0-1.5-.6-1.5-1.5v-18c0-.8.6-1.5 1.5-1.5h7.5v4H121c.8 0 1.5.6 1.5 1.5v14c0 .9-.6 1.5-1.5 1.5z"/><path class="st87" d="M105 274.5h5M112 274.5h5"/><path class="st86" d="M190.3 311h-23.7c-.9 0-1.7-.7-1.7-1.7v-34.7c0-.9.7-1.7 1.7-1.7h23.7c.9 0 1.7.7 1.7 1.7v34.7c0 1-.7 1.7-1.7 1.7z"/><path class="st3" d="M122.4 286.7l2.8 5.8c.3.6.9 1 1.6 1.1l6.4.9c1.7.2 2.4 2.3 1.2 3.5l-4.6 4.5c-.5.5-.7 1.2-.6 1.8l1.1 6.3c.3 1.7-1.5 3-3 2.2l-5.7-3c-.6-.3-1.3-.3-1.9 0l-5.7 3c-1.5.8-3.3-.5-3-2.2l1.1-6.3c.1-.7-.1-1.4-.6-1.8l-4.6-4.5c-1.2-1.2-.6-3.3 1.2-3.5l6.4-.9c.7-.1 1.3-.5 1.6-1.1l2.8-5.8c.6-1.6 2.8-1.6 3.5 0z"/><path d="M120.6 286.5c.4 0 .8.2 1 .6l2.8 5.8c.4.9 1.3 1.5 2.3 1.7l6.4.9c.4.1.7.3.9.7.1.4 0 .8-.3 1.1l-4.6 4.5c-.7.7-1.1 1.7-.9 2.7l1.1 6.3c.1.4-.1.7-.2.9-.2.2-.5.4-.8.4-.2 0-.3 0-.5-.1l-5.7-3c-.4-.2-.9-.4-1.4-.4s-1 .1-1.4.4l-5.7 3c-.2.1-.3.1-.5.1-.3 0-.6-.1-.8-.4-.1-.2-.3-.5-.2-.9l1.1-6.3c.2-1-.2-2-.9-2.7l-4.6-4.5c-.3-.3-.4-.7-.3-1.1s.5-.7.9-.7l6.4-.9c1-.1 1.9-.8 2.3-1.7l2.8-5.8c0-.3.4-.6.8-.6m0-1c-.7 0-1.5.4-1.9 1.2l-2.8 5.8c-.3.6-.9 1-1.6 1.1l-6.4.9c-1.7.2-2.4 2.3-1.2 3.5l4.6 4.5c.5.5.7 1.2.6 1.8l-1.1 6.3c-.2 1.3.8 2.4 2.1 2.4.3 0 .7-.1 1-.2l5.7-3c.3-.2.6-.2 1-.2s.7.1 1 .2l5.7 3c.3.2.6.2 1 .2 1.2 0 2.3-1.1 2.1-2.4l-1.1-6.3c-.1-.7.1-1.4.6-1.8l4.6-4.5c1.2-1.2.6-3.3-1.2-3.5l-6.4-.9c-.7-.1-1.3-.5-1.6-1.1l-2.8-5.8c-.4-.8-1.2-1.2-1.9-1.2z" fill="#9d62ff"/><path class="st82" d="M190.8 311.5h-23.7c-.9 0-1.7-.7-1.7-1.7v-34.7c0-.9.7-1.7 1.7-1.7h23.7c.9 0 1.7.7 1.7 1.7v34.7c0 1-.7 1.7-1.7 1.7z"/><path class="st83" d="M172.4 303h-14.9c-.9 0-1.6-.7-1.6-1.6v-14.9c0-.9.7-1.6 1.6-1.6h14.9c.9 0 1.6.7 1.6 1.6v14.9c0 .9-.7 1.6-1.6 1.6z"/><path class="st89" d="M172.9 303.5H158c-.9 0-1.6-.7-1.6-1.6V287c0-.9.7-1.6 1.6-1.6h14.9c.9 0 1.6.7 1.6 1.6v14.9c0 .9-.7 1.6-1.6 1.6z"/><path class="st3" d="M198.5 295h-18.1c-1.4 0-2.5-1.1-2.5-2.5v-12.1c0-1.4 1.1-2.5 2.5-2.5h18.1c1.4 0 2.5 1.1 2.5 2.5v12.1c0 1.4-1.1 2.5-2.5 2.5z"/><path class="st81" d="M199 295.5h-18c-1.4 0-2.5-1.1-2.5-2.5v-12c0-1.4 1.1-2.5 2.5-2.5h18c1.4 0 2.5 1.1 2.5 2.5v12c0 1.4-1.1 2.5-2.5 2.5z"/><path class="st2" d="M195.2 307h-10.4c-1 0-1.8-.8-1.8-1.8v-2.4c0-1 .8-1.8 1.8-1.8h10.4c1 0 1.8.8 1.8 1.8v2.4c0 1-.8 1.8-1.8 1.8z"/><path class="st82" d="M195.7 307.5h-10.4c-1 0-1.8-.8-1.8-1.8v-2.4c0-1 .8-1.8 1.8-1.8h10.4c1 0 1.8.8 1.8 1.8v2.4c0 1-.8 1.8-1.8 1.8z"/><circle class="st81" cx="194.5" cy="285.5" r="3"/><path class="st81" d="M178.5 288.5l3.2-3.2c.9-.9 2.5-.8 3.3.2l7 9"/><path class="st89" d="M165.5 290.5v8M161.5 289.5h7"/><path class="st90" d="M44 339v36h6v-36l-3-6zM29.5 344.5l-1 27s0 3 2 3c3 0 3-3 3-3l-1-27.4"/><path class="st90" d="M30.5 344.5s-5.7-.2-3-7c2-5 4-6 4-6s.4 3.6 2 6c2 3 1 5 0 6s-3 1-3 1z"/><path class="st91" d="M40 373.9c-.5 0-1 .1-1.5.1-.6 0-1.2 0-1.8-.1M53.5 339.5c3.4 3.7 5.5 8.6 5.5 14 0 5.5-2.1 10.4-5.6 14.1M35.9 333.2c.8-.1 1.7-.2 2.6-.2 1.3 0 2.7.1 3.9.4M25.1 369c-4.3-3.8-7.1-9.3-7.1-15.5 0-5.6 2.3-10.7 5.9-14.4M29.5 344.5l-1 27s0 3 2 3c3 0 3-3 3-3l-1-27.4M29.5 350.5h3M29.5 347.5h3M43.5 338.5v36h6v-36l-3-6zM43.5 339.5h6M46.5 341.5v25M43.5 369.5h6"/><path class="st91" d="M45.5 335.5l1 1 1.5-1M30.5 344.5s-5.7-.2-3-7c2-5 4-6 4-6s.4 3.6 2 6c2 3 1 5 0 6s-3 1-3 1z"/><path class="st90" d="M110.5 368h-26c-.8 0-1.5-.6-1.5-1.5v-18.1c0-.8.6-1.5 1.5-1.5h26.1c.8 0 1.5.6 1.5 1.5v18.1c-.1.9-.7 1.5-1.6 1.5z"/><path class="st92" d="M110.5 348c.2 0 .5.2.5.5v18.1c0 .2-.2.5-.5.5h-26c-.2 0-.5-.2-.5-.5v-18.1c0-.2.2-.5.5-.5h26m0-1h-26c-.8 0-1.5.6-1.5 1.5v18.1c0 .8.6 1.5 1.5 1.5h26.1c.8 0 1.5-.6 1.5-1.5v-18.1c-.1-.9-.7-1.5-1.6-1.5z"/><path class="st93" d="M84 353.5h28M84 361.5h28M97.5 348v6M97.5 361v6"/><path class="st90" d="M120.5 354h-26c-.8 0-1.5-.6-1.5-1.5v-18.1c0-.8.6-1.5 1.5-1.5h7.5v4h18.5c.8 0 1.5.6 1.5 1.5v14.1c0 .9-.6 1.5-1.5 1.5z"/><path class="st91" d="M121 354.5H95c-.8 0-1.5-.6-1.5-1.5v-18c0-.8.6-1.5 1.5-1.5h7.5v4H121c.8 0 1.5.6 1.5 1.5v14c0 .9-.6 1.5-1.5 1.5z"/><path class="st93" d="M105 334.5h5M112 334.5h5"/><path class="st90" d="M190.3 371h-23.7c-.9 0-1.7-.7-1.7-1.7v-34.7c0-.9.7-1.7 1.7-1.7h23.7c.9 0 1.7.7 1.7 1.7v34.7c0 1-.7 1.7-1.7 1.7zM122.4 346.7l2.8 5.8c.3.6.9 1 1.6 1.1l6.4.9c1.7.2 2.4 2.3 1.2 3.5l-4.6 4.5c-.5.5-.7 1.2-.6 1.8l1.1 6.3c.3 1.7-1.5 3-3 2.2l-5.7-3c-.6-.3-1.3-.3-1.9 0l-5.7 3c-1.5.8-3.3-.5-3-2.2l1.1-6.3c.1-.7-.1-1.4-.6-1.8l-4.6-4.5c-1.2-1.2-.6-3.3 1.2-3.5l6.4-.9c.7-.1 1.3-.5 1.6-1.1l2.8-5.8c.6-1.6 2.8-1.6 3.5 0z"/><g><path class="st92" d="M120.6 346.5c.4 0 .8.2 1 .6l2.8 5.8c.4.9 1.3 1.5 2.3 1.7l6.4.9c.4.1.7.3.9.7.1.4 0 .8-.3 1.1l-4.6 4.5c-.7.7-1.1 1.7-.9 2.7l1.1 6.3c.1.4-.1.7-.2.9-.2.2-.5.4-.8.4-.2 0-.3 0-.5-.1l-5.7-3c-.4-.2-.9-.4-1.4-.4s-1 .1-1.4.4l-5.7 3c-.2.1-.3.1-.5.1-.3 0-.6-.1-.8-.4-.1-.2-.3-.5-.2-.9l1.1-6.3c.2-1-.2-2-.9-2.7l-4.6-4.5c-.3-.3-.4-.7-.3-1.1s.5-.7.9-.7l6.4-.9c1-.1 1.9-.8 2.3-1.7l2.8-5.8c0-.3.4-.6.8-.6m0-1c-.7 0-1.5.4-1.9 1.2l-2.8 5.8c-.3.6-.9 1-1.6 1.1l-6.4.9c-1.7.2-2.4 2.3-1.2 3.5l4.6 4.5c.5.5.7 1.2.6 1.8l-1.1 6.3c-.2 1.3.8 2.4 2.1 2.4.3 0 .7-.1 1-.2l5.7-3c.3-.2.6-.2 1-.2s.7.1 1 .2l5.7 3c.3.2.6.2 1 .2 1.2 0 2.3-1.1 2.1-2.4l-1.1-6.3c-.1-.7.1-1.4.6-1.8l4.6-4.5c1.2-1.2.6-3.3-1.2-3.5l-6.4-.9c-.7-.1-1.3-.5-1.6-1.1l-2.8-5.8c-.4-.8-1.2-1.2-1.9-1.2z"/></g><path class="st91" d="M190.8 371.5h-23.7c-.9 0-1.7-.7-1.7-1.7v-34.7c0-.9.7-1.7 1.7-1.7h23.7c.9 0 1.7.7 1.7 1.7v34.7c0 1-.7 1.7-1.7 1.7z"/><path class="st90" d="M172.4 363h-14.9c-.9 0-1.6-.7-1.6-1.6v-14.9c0-.9.7-1.6 1.6-1.6h14.9c.9 0 1.6.7 1.6 1.6v14.9c0 .9-.7 1.6-1.6 1.6z"/><path class="st91" d="M172.9 363.5H158c-.9 0-1.6-.7-1.6-1.6V347c0-.9.7-1.6 1.6-1.6h14.9c.9 0 1.6.7 1.6 1.6v14.9c0 .9-.7 1.6-1.6 1.6z"/><path class="st90" d="M198.5 355h-18.1c-1.4 0-2.5-1.1-2.5-2.5v-12.1c0-1.4 1.1-2.5 2.5-2.5h18.1c1.4 0 2.5 1.1 2.5 2.5v12.1c0 1.4-1.1 2.5-2.5 2.5z"/><path class="st91" d="M199 355.5h-18c-1.4 0-2.5-1.1-2.5-2.5v-12c0-1.4 1.1-2.5 2.5-2.5h18c1.4 0 2.5 1.1 2.5 2.5v12c0 1.4-1.1 2.5-2.5 2.5z"/><path class="st90" d="M195.2 367h-10.4c-1 0-1.8-.8-1.8-1.8v-2.4c0-1 .8-1.8 1.8-1.8h10.4c1 0 1.8.8 1.8 1.8v2.4c0 1-.8 1.8-1.8 1.8z"/><path class="st91" d="M195.7 367.5h-10.4c-1 0-1.8-.8-1.8-1.8v-2.4c0-1 .8-1.8 1.8-1.8h10.4c1 0 1.8.8 1.8 1.8v2.4c0 1-.8 1.8-1.8 1.8z"/><circle class="st91" cx="194.5" cy="345.5" r="3"/><path class="st91" d="M178.5 348.5l3.2-3.2c.9-.9 2.5-.8 3.3.2l7 9"/><g><path class="st91" d="M165.5 350.5v8M161.5 349.5h7"/></g><path fill="none" stroke="#c5d0dd" stroke-linecap="round" stroke-miterlimit="10" d="M308.5 370.5l41-41"/><g><path d="M282.5 312h-61c-1.1 0-2-.9-2-2v-35c0-1.1.9-2 2-2h61c1.1 0 2 .9 2 2v35c0 1.1-.9 2-2 2z" fill="#424960" stroke="#c5d0dd" stroke-width="1.006" stroke-miterlimit="10"/><path class="st90" d="M277.5 307h-51c-1.1 0-2-.9-2-2v-25c0-1.1.9-2 2-2h51c1.1 0 2 .9 2 2v25c0 1.1-.9 2-2 2z"/><path d="M277.5 307h-51c-1.1 0-2-.9-2-2v-25c0-1.1.9-2 2-2h51c1.1 0 2 .9 2 2v25c0 1.1-.9 2-2 2z" fill="none" stroke="#c5d0dd" stroke-linecap="round" stroke-miterlimit="10" stroke-dasharray="3.0472,3.0472"/></g><g><path class="st97" d="M373.5 310h-70c-1.1 0-2-.9-2-2v-30h72c1.1 0 2 .9 2 2v28c0 1.1-.9 2-2 2z"/><path class="st92" d="M321 277.5h-20V273c0-.8.7-1.5 1.5-1.5h17c.8 0 1.5.7 1.5 1.5v4.5z"/><path class="st93" d="M323.5 278.5v-5c0-.8.7-1.5 1.5-1.5h17c.8 0 1.5.7 1.5 1.5v5M345.5 278.5v-5c0-.8.7-1.5 1.5-1.5h17c.8 0 1.5.7 1.5 1.5v5"/></g><g><path class="st97" d="M462.7 311h-62.4c-1 0-1.8-.9-1.8-2v-34c0-1.1.8-2 1.8-2h62.4c1 0 1.8.9 1.8 2v34c0 1.1-.8 2-1.8 2z"/><path class="st93" d="M464 285h-66M464 298h-65M431.5 310.5v-37"/></g><g><path class="st97" d="M260.5 359h-18c-1.1 0-2-.9-2-2v-18c0-1.1.9-2 2-2h18c1.1 0 2 .9 2 2v18c0 1.1-.9 2-2 2z"/><circle class="st97" cx="259" cy="359.5" r="9.5"/><path class="st97" d="M237 328.7l-9.4 15.2c-.8 1.3.1 3.1 1.7 3.1h18.8c1.6 0 2.5-1.7 1.7-3.1l-9.4-15.2c-.8-1.2-2.6-1.2-3.4 0z"/></g><g><path class="st90" d="M459.5 372h-52c-1.1 0-2-.9-2-2v-44c0-1.1.9-2 2-2h52c1.1 0 2 .9 2 2v44c0 1.1-.9 2-2 2z"/><path d="M459.5 372h-52c-1.1 0-2-.9-2-2v-44c0-1.1.9-2 2-2h52c1.1 0 2 .9 2 2v44c0 1.1-.9 2-2 2z" fill="none" stroke="#c5d0dd" stroke-linecap="round" stroke-miterlimit="10" stroke-dasharray="3.9336,3.9336"/><path class="st97" d="M423.5 338v6h3v-1.5c-.1-.6.4-1 1-1.5h4v13.6c0 .8-.6 1.4-1.4 1.4h-1.6v3h11v-3h-1.6c-.8 0-1.4-.6-1.4-1.4V341h4c.6.5 1 .9 1 1.5v1.5h4v-6h-22z"/><path class="st92" d="M407.6 327.5h-3.1c-.8 0-1.4-.6-1.4-1.4V322c0-.8.6-1.4 1.4-1.4h3.1c.8 0 1.4.6 1.4 1.4v4.1c0 .8-.6 1.4-1.4 1.4zM462.6 327.5h-3.1c-.8 0-1.4-.6-1.4-1.4V322c0-.8.6-1.4 1.4-1.4h3.1c.8 0 1.4.6 1.4 1.4v4.1c0 .8-.6 1.4-1.4 1.4zM407.6 374.5h-3.1c-.8 0-1.4-.6-1.4-1.4V369c0-.8.6-1.4 1.4-1.4h3.1c.8 0 1.4.6 1.4 1.4v4.1c0 .8-.6 1.4-1.4 1.4zM462.6 374.5h-3.1c-.8 0-1.4-.6-1.4-1.4V369c0-.8.6-1.4 1.4-1.4h3.1c.8 0 1.4.6 1.4 1.4v4.1c0 .8-.6 1.4-1.4 1.4z"/></g><path class="st99" d="M22 392.8h8l-4 4zM36 396.8h8l-4-4z"/><g><path class="st100" d="M59 386.5h5.3v5.3H59z"/><path class="st101" d="M64.3 386.5h5.3v5.3h-5.3z"/><path class="st100" d="M69.6 386.5h5.3v5.3h-5.3z"/><path class="st101" d="M75 386.5h5.3v5.3H75zM59 391.8h5.3v5.3H59z"/><path class="st100" d="M64.3 391.8h5.3v5.3h-5.3z"/><path class="st101" d="M69.6 391.8h5.3v5.3h-5.3z"/><path class="st100" d="M75 391.8h5.3v5.3H75z"/><path class="st101" d="M59 402.5h5.3v5.3H59z"/><path class="st100" d="M64.3 402.5h5.3v5.3h-5.3z"/><path class="st101" d="M69.6 402.5h5.3v5.3h-5.3z"/><path class="st100" d="M75 402.5h5.3v5.3H75zM59 397.1h5.3v5.3H59z"/><path class="st101" d="M64.3 397.1h5.3v5.3h-5.3z"/><path class="st100" d="M69.6 397.1h5.3v5.3h-5.3z"/><path class="st101" d="M75 397.1h5.3v5.3H75z"/><path class="st100" d="M80.3 386.5h5.3v5.3h-5.3z"/><path class="st101" d="M85.6 386.5h5.3v5.3h-5.3zM80.3 391.8h5.3v5.3h-5.3z"/><path class="st100" d="M85.6 391.8h5.3v5.3h-5.3z"/><path class="st101" d="M80.3 402.5h5.3v5.3h-5.3z"/><path class="st100" d="M85.6 402.5h5.3v5.3h-5.3zM80.3 397.1h5.3v5.3h-5.3z"/><path class="st101" d="M85.6 397.1h5.3v5.3h-5.3z"/><path class="st100" d="M59 407.8h5.3v5.3H59z"/><path class="st101" d="M64.3 407.8h5.3v5.3h-5.3z"/><path class="st100" d="M69.6 407.8h5.3v5.3h-5.3z"/><path class="st101" d="M75 407.8h5.3v5.3H75z"/><path class="st100" d="M80.3 407.8h5.3v5.3h-5.3z"/><path class="st101" d="M85.6 407.8h5.3v5.3h-5.3z"/></g></g></g><g id="Layer_2_2_"><g id="Page-3"><g id="template_gallery_1-copy-4" transform="translate(-807 -238)"><g id="Group-28" transform="translate(807 238)"><g id="Group-3"><path id="Fill-1" d="M198 440.5h-35.7c-5.7 0-10.3-4.6-10.3-10.3v-35.4c0-5.7 4.6-10.3 10.3-10.3h35.4c5.7 0 10.3 4.6 10.3 10.3v35.4c0 5.7-4.6 10.3-10.3 10.3" fill-rule="evenodd" clip-rule="evenodd" fill="#ededed"/></g><path id="Fill-4" class="st103" d="M160 401.7v-7.4c0-1 .8-1.8 1.8-1.8h15.4c1 0 1.8.8 1.8 1.8v7.4c0 1-.8 1.8-1.8 1.8h-15.4c-1 0-1.8-.8-1.8-1.8z"/><path id="Fill-6" class="st104" d="M177 391.5h-15.7c-1.3 0-2.3 1-2.3 2.3v7.4c0 1.3 1 2.3 2.3 2.3h15.4c1.3 0 2.3-1 2.3-2.3v-7.4c0-1.3-1.1-2.3-2.4-2.3m.1 1c.7 0 1.3.6 1.3 1.3v7.4c0 .7-.6 1.3-1.3 1.3h-15.4c-.7 0-1.3-.6-1.3-1.3v-7.4c0-.7.6-1.3 1.3-1.3H177"/><path id="Fill-8" class="st103" d="M184 415.7v-21.4c0-1 .8-1.8 1.8-1.8h13.4c1 0 1.8.8 1.8 1.8v21.4c0 1-.8 1.8-1.8 1.8h-13.4c-1 0-1.8-.8-1.8-1.8z"/><path id="Fill-10" class="st104" d="M200 391.5h-13.7c-1.3 0-2.3 1-2.3 2.3v21.4c0 1.3 1 2.3 2.3 2.3h13.4c1.3 0 2.3-1 2.3-2.3v-21.4c0-1.3-1.1-2.3-2.4-2.3m.1 1c.7 0 1.3.6 1.3 1.3v21.4c0 .7-.6 1.3-1.3 1.3h-13.4c-.7 0-1.3-.6-1.3-1.3v-21.4c0-.7.6-1.3 1.3-1.3H200"/><path id="Fill-12" class="st103" d="M160 415.7v-7.4c0-1 .8-1.8 1.8-1.8h15.4c1 0 1.8.8 1.8 1.8v7.4c0 1-.8 1.8-1.8 1.8h-15.4c-1 0-1.8-.8-1.8-1.8z"/><path id="Fill-14" class="st104" d="M177 405.5h-15.7c-1.3 0-2.3 1-2.3 2.3v7.4c0 1.3 1 2.3 2.3 2.3h15.4c1.3 0 2.3-1 2.3-2.3v-7.4c0-1.3-1.1-2.3-2.4-2.3m.1 1c.7 0 1.3.6 1.3 1.3v7.4c0 .7-.6 1.3-1.3 1.3h-15.4c-.7 0-1.3-.6-1.3-1.3v-7.4c0-.7.6-1.3 1.3-1.3H177"/><path id="Fill-16" class="st103" d="M160 430.7v-7.4c0-1 .8-1.8 1.8-1.8h37.4c1 0 1.8.8 1.8 1.8v7.4c0 1-.8 1.8-1.8 1.8h-37.4c-1 0-1.8-.8-1.8-1.8z"/><path id="Fill-18" class="st104" d="M200 421.5h-37.7c-1.3 0-2.3 1-2.3 2.3v7.4c0 1.3 1 2.3 2.3 2.3h37.4c1.3 0 2.3-1 2.3-2.3v-7.4c0-1.2-1-2.3-2.3-2.3m0 1c.7 0 1.3.6 1.3 1.3v7.4c0 .7-.6 1.3-1.3 1.3h-37.4c-.7 0-1.3-.6-1.3-1.3v-7.4c0-.7.6-1.3 1.3-1.3H200"/><path id="Fill-20" class="st105" d="M169 402.5h-6.9c-1.2 0-2.1-.9-2.1-2.1v-5.8c0-1.2.9-2.1 2.1-2.1H176"/><path id="Fill-22" class="st105" d="M163 416.5h-.9c-1.2 0-2.1-.9-2.1-2.1v-5.8c0-1.2.9-2.1 2.1-2.1h7.9"/><path id="Fill-24" class="st105" d="M185 414.5V394.6c0-1.2.9-2.1 2.1-2.1H199"/><path id="Fill-26" class="st105" d="M176 432.5h-13.9c-1.2 0-2.1-.9-2.1-2.1v-5.8c0-1.2.9-2.1 2.1-2.1H184"/></g></g></g><g id="Page-3_1_"><g id="template_gallery_1-copy-4_1_" transform="translate(-459 -233)"><path id="Fill-1_1_" d="M699 623.8v11.7h-12.2c-.9-.1-1.7.7-1.7 1.6s.8 1.7 1.7 1.4H699v12c-.5.9.2 1.7 1.2 1.7s1.7-.8 1.8-1.7v-11.9h-.2 11.7c.9.3 1.7-.5 1.7-1.4s-.8-1.7-1.7-1.6H702V623.8c-.2-.9-.9-1.7-1.8-1.7s-1.7.7-1.2 1.7z" fill-rule="evenodd" clip-rule="evenodd" fill="#919191"/></g></g></g><path class="st107" d="M275 394.5V392c0-1.4 1.1-2.5 2.5-2.5h.1c1.4 0 2.5 1.1 2.5 2.5v2.5"/><path class="st108" d="M281.6 393.5h-8.2c-.8 0-1.4.6-1.4 1.3v4.5c0 .7.6 1.3 1.4 1.3h8.2c.8 0 1.4-.6 1.4-1.3v-4.5c0-.7-.6-1.3-1.4-1.3zM300.6 393.5h-8.2c-.8 0-1.4.6-1.4 1.3v4.5c0 .7.6 1.3 1.4 1.3h8.2c.8 0 1.4-.6 1.4-1.3v-4.5c0-.7-.6-1.3-1.4-1.3z"/><path class="st107" d="M294 394.5V392c0-1.4 1.1-2.5 2.5-2.5h.1c1.1 0 2.1.8 2.4 1.8"/><path class="st108" d="M277.8 405.5v4.7h-.7v3.3h-.9v-8z"/><path class="st108" d="M281 408.8v.7h-3.2v.7H273v-1.4zM273 407.5l-2.1 2.1 2.1 2.2zM282.9 409.5H281v-2zM279.3 405.5l-2.2-2.1-2.1 2.1zM277.1 413.5v2.1l-2.1-2.1z"/><path class="st108" d="M277.1 409.5h.6v.8h-.6z"/><path d="M281 413.5v-.7c0-.8.5-1.4 1.3-1.3h0c.7-.1 1.7 0 1.7 1.3v.7" fill="none" stroke="#dcdfea" stroke-miterlimit="10"/><path class="st108" d="M285.1 413.5h-5.2c-.5 0-.9.3-.9.7v2.5c0 .4.4.7.9.7h5.2c.5 0 .9-.3.9-.7v-2.5c0-.4-.4-.7-.9-.7z"/><circle class="st45" cx="320.5" cy="395" r="2"/><circle class="st45" cx="327.5" cy="395" r="2"/><circle class="st45" cx="334.5" cy="395" r="2"/></svg>